<svg width="1664" height="1664" viewBox="0 0 1664 1664" fill="none" xmlns="http://www.w3.org/2000/svg">
<path d="M875.256 869.718H875.722L892.956 921.385H857.866L875.256 869.718ZM852.587 819.604L790.17 981.74H834.887L846.066 953.502H904.136L914.694 981.74H959.721L898.546 819.604H852.587Z" fill="#3399CC"/>
<path d="M1024 819.604H981.769V981.74H1024V819.604Z" fill="#CC3300"/>
<path d="M1103.65 946.054H1113.12C1138.28 946.054 1159.86 932.246 1159.86 900.749C1159.86 871.735 1140.76 855.444 1113.59 855.444H1103.65V946.054ZM1061.42 819.604H1121.2C1166.38 819.604 1203.64 855.134 1203.64 900.749C1203.64 946.365 1166.23 981.74 1121.2 981.74H1061.42V819.604Z" fill="#FFCC00"/>
<path d="M1289.66 869.718H1290.13L1307.36 921.385H1272.27L1289.66 869.718ZM1267.15 819.604L1204.73 981.74H1249.45L1260.63 953.502H1318.7L1329.26 981.74H1374.28L1313.11 819.604H1267.15Z" fill="#339900"/>
<path d="M608.819 981.741C608.509 981.741 608.043 981.741 607.732 981.741H607.422C584.442 980.189 517.988 966.07 399.365 870.185C362.101 839.309 336.637 805.796 316.297 778.799C298.131 754.905 282.604 734.27 264.749 723.409C264.593 723.254 264.438 723.254 264.128 723.099C261.799 721.857 255.588 718.599 259.935 710.376C263.507 702.463 272.667 681.517 273.133 680.431C273.599 679.5 275.617 677.328 277.946 677.328C279.499 677.328 280.896 678.104 282.294 679.811C321.11 721.857 352.474 743.269 375.454 743.269C404.488 743.269 425.605 732.563 448.118 721.237C470.787 709.755 494.233 697.808 527.925 696.102C527.925 696.102 531.341 695.636 536.931 695.636C560.065 695.636 618.29 702.153 660.678 762.973C666.268 770.886 669.684 776.937 672.013 780.971C674.497 785.316 675.739 787.643 676.981 787.643C677.136 787.643 677.136 787.643 677.136 787.643C678.068 787.333 687.073 778.799 701.669 764.99C714.4 752.888 728.685 739.235 738.001 731.167C740.951 728.529 746.851 723.719 750.112 721.547C758.186 716.272 766.104 713.479 772.47 713.479C776.196 713.479 779.302 714.41 781.475 716.272C787.531 721.392 787.997 727.598 786.755 737.993V738.304C786.289 741.872 785.668 746.527 787.686 748.854C788.462 749.785 789.549 750.095 790.791 750.095C793.742 750.095 798.089 748.234 803.989 744.2C811.442 739.235 816.876 734.27 820.913 730.546C824.484 727.133 827.124 724.805 829.453 724.03C829.919 723.874 830.229 723.874 830.54 723.874C831.782 723.874 832.558 724.65 832.558 726.202C832.558 729.15 824.64 737.218 807.094 755.216L806.939 755.371C804.921 757.543 802.747 759.715 800.418 762.042C797.468 764.99 794.363 768.093 791.257 771.352C777.283 785.626 761.601 801.607 744.677 820.07L743.435 821.466C712.537 855.135 638.941 936.126 623.725 960.019C621.706 963.122 619.843 966.07 618.29 968.553L616.893 970.88C611.924 978.948 609.906 981.741 608.819 981.741Z" fill="white"/>
<path d="M532.583 811.69C582.89 811.69 608.509 839.153 619.533 850.945C620.775 852.186 621.706 853.272 622.638 854.203L622.949 854.513C628.072 859.633 633.351 864.908 639.562 864.908C645.617 864.908 652.139 859.788 659.126 849.393C660.213 847.841 661.144 846.445 662.231 844.893C673.876 827.671 685.831 809.673 700.892 809.673C702.911 809.673 704.929 809.984 707.103 810.604C708.811 811.07 710.674 811.225 712.382 811.225C724.182 811.225 736.604 801.605 747.472 793.227C750.267 791.055 752.907 789.038 755.391 787.176C772.625 774.609 797.779 755.369 804.921 749.939L788.618 757.697C784.27 759.869 781.32 760.955 779.457 760.955C778.37 760.955 777.749 760.645 777.128 760.024C775.886 758.628 776.352 755.68 776.818 752.111C777.594 746.991 778.37 740.63 775.265 735.355C773.868 732.872 771.849 731.786 768.899 731.786C753.217 731.786 717.661 766.851 694.216 790.124C690.334 794.003 686.608 797.571 683.347 800.675C681.484 802.692 679.621 804.553 678.068 806.105C668.752 815.88 664.871 819.758 662.076 819.758C660.057 819.758 658.66 817.741 656.486 814.483C655.865 813.397 655.089 812.311 654.157 811.07C651.207 807.036 648.723 803.312 646.239 799.588C633.662 781.435 624.656 768.402 596.864 745.75C579.784 731.941 560.531 725.27 537.863 725.27C507.741 725.27 476.687 737.372 449.205 748.077C434.61 753.818 420.792 759.093 408.215 762.351C401.694 764.058 394.862 764.834 388.186 764.834C359.927 764.834 336.327 750.249 323.595 740.164C340.674 755.835 368.156 778.953 392.688 793.072C418.463 807.967 445.168 814.638 479.482 814.638C491.438 814.638 504.17 813.863 518.765 812.311C523.578 811.846 528.081 811.69 532.583 811.69Z" fill="#CC3300"/>
<path d="M337.413 772.902C362.1 801.916 389.117 828.603 418.152 852.341C444.236 873.753 471.874 892.992 500.443 909.438C547.023 936.28 584.287 948.847 594.69 951.485C596.708 951.95 598.416 952.416 599.969 952.881C603.229 953.812 605.558 954.433 607.422 954.433C610.993 954.433 613.322 952.106 617.98 945.589C644.064 907.421 711.605 840.239 744.988 806.881C736.137 814.018 724.958 821 715.021 821C712.848 821 710.674 820.69 708.655 819.914C706.792 819.293 704.774 818.828 702.91 818.828C690.023 818.828 679.62 834.654 667.51 853.117C666.268 854.979 665.025 856.996 663.628 858.858C650.43 880.735 641.58 889.734 633.04 889.734C626.209 889.734 619.688 884.148 610.837 876.39C608.043 873.908 604.937 871.27 601.521 868.477C570.623 841.791 558.357 834.964 516.746 834.964C504.014 834.964 488.332 835.585 472.029 836.36C470.166 836.516 468.303 836.516 466.44 836.516C426.381 836.516 391.291 816.811 368.932 800.365C354.958 790.124 344.09 779.884 337.413 772.902Z" fill="#CC3300"/>
</svg>
