<svg width="1664" height="1664" viewBox="0 0 1664 1664" fill="none" xmlns="http://www.w3.org/2000/svg">
<path fill-rule="evenodd" clip-rule="evenodd" d="M1258.29 876.866V902.977C1244.75 897.871 1232.69 895.288 1222.13 895.288C1215.88 895.288 1210.9 896.445 1207.16 898.68C1203.42 900.935 1201.51 903.71 1201.51 906.986C1201.51 911.341 1205.73 915.214 1214.24 918.683L1238.82 930.631C1258.7 940.093 1268.56 952.657 1268.56 968.44C1268.56 981.563 1263.33 992.027 1252.77 999.774C1242.3 1007.6 1228.19 1011.47 1210.63 1011.47C1202.53 1011.47 1195.25 1011.12 1188.79 1010.39C1182.33 1009.7 1174.9 1008.27 1166.66 1006.23V978.904C1181.77 984.011 1195.52 986.593 1207.91 986.593C1222.69 986.593 1230.04 982.315 1230.04 973.682C1230.04 969.384 1227.03 965.916 1220.92 963.198L1193.61 951.578C1183.54 947.03 1176.05 941.519 1171.15 934.986C1166.33 928.396 1163.88 920.842 1163.88 912.208C1163.88 900.125 1168.97 890.393 1179.05 882.993C1189.2 875.651 1202.66 871.971 1219.41 871.971C1224.85 871.971 1231.12 872.452 1238.07 873.339C1245.08 874.283 1251.81 875.439 1258.29 876.866Z" fill="white"/>
<path fill-rule="evenodd" clip-rule="evenodd" d="M484.997 876.866V902.977C471.451 897.871 459.411 895.288 448.856 895.288C442.585 895.288 437.626 896.445 433.882 898.68C430.139 900.935 428.229 903.71 428.229 906.986C428.229 911.341 432.512 915.214 441.022 918.683L465.605 930.631C485.402 940.093 495.282 952.657 495.282 968.44C495.282 981.563 490.033 992.027 479.555 999.774C469.001 1007.6 454.973 1011.47 437.356 1011.47C429.251 1011.47 421.958 1011.12 415.493 1010.39C409.029 1009.7 401.678 1008.27 393.381 1006.23V978.904C408.547 984.011 422.305 986.593 434.616 986.593C449.396 986.593 456.748 982.315 456.748 973.682C456.748 969.384 453.757 965.916 447.698 963.198L420.395 951.578C410.245 947.03 402.758 941.519 397.935 934.986C393.033 928.396 390.641 920.842 390.641 912.208C390.641 900.125 395.696 890.393 405.826 882.993C415.899 875.651 429.386 871.971 446.135 871.971C451.635 871.971 457.829 872.452 464.852 873.339C471.799 874.283 478.533 875.439 484.997 876.866Z" fill="white"/>
<path fill-rule="evenodd" clip-rule="evenodd" d="M513.169 874.418H553.208V1009.02H513.169V874.418Z" fill="white"/>
<path fill-rule="evenodd" clip-rule="evenodd" d="M682.199 874.418V899.297H622.71V929.147H674.307V951.578H622.71V982.913H683.415V1009.02H584.177V874.418H682.199Z" fill="white"/>
<path fill-rule="evenodd" clip-rule="evenodd" d="M869.116 874.418V1009.02H831.738V920.244L792.956 1010.26H769.879L732.58 920.244V1009.02H705.547V874.418H754.423L787.785 956.82L822.691 874.418H869.116Z" fill="white"/>
<path fill-rule="evenodd" clip-rule="evenodd" d="M998.052 874.418V899.297H938.888V929.147H990.485V951.578H938.888V982.913H999.268V1009.02H900.03V874.418H998.052Z" fill="white"/>
<path fill-rule="evenodd" clip-rule="evenodd" d="M1138.54 874.418V1009.02H1096.07L1048.42 922.691V1009.02H1021.4V874.418H1065.11L1111.53 959.267V874.418H1138.54Z" fill="white"/>
<g clip-path="url(#clip0_585_1750)">
<path fill-rule="evenodd" clip-rule="evenodd" d="M750.257 707.356C755.762 705.226 760.484 701.466 763.793 696.58C767.101 691.693 768.838 685.913 768.77 680.012C768.77 655.403 751.309 643.203 727.327 643.203H664.426V777.019H732.797C753.834 777.019 774.45 762.295 774.45 739.789C774.45 713.035 750.257 707.608 750.257 707.356ZM697.244 670.967H721.647C723.209 670.871 724.776 671.083 726.256 671.592C727.737 672.101 729.102 672.897 730.275 673.935C731.447 674.972 732.403 676.23 733.089 677.638C733.774 679.045 734.175 680.574 734.269 682.136C734.269 682.613 734.269 683.097 734.269 683.588C734.203 686.877 732.839 690.008 730.475 692.297C728.111 694.585 724.938 695.848 721.647 695.808H697.033L697.244 670.967ZM721.857 749.002H697.454V722.71H721.226C733.217 722.71 738.897 727.968 738.897 735.751C738.897 745.468 731.745 749.002 721.857 749.002Z" fill="white"/>
<path fill-rule="evenodd" clip-rule="evenodd" d="M846.817 639.838C808.109 639.838 785.389 670.757 785.389 709.88C785.389 749.002 808.109 779.922 846.817 779.922C885.526 779.922 908.246 749.213 908.246 709.88C908.246 670.547 885.736 639.838 846.817 639.838ZM846.817 747.951C827.884 747.951 818.417 730.913 818.417 709.88C818.417 688.846 827.884 672.019 846.817 672.019C865.751 672.019 875.428 689.056 875.428 709.88C875.428 731.124 865.751 747.951 846.817 747.951Z" fill="white"/>
<path fill-rule="evenodd" clip-rule="evenodd" d="M979.562 695.787L974.934 694.735C963.574 692.421 954.528 689.477 954.528 681.273C954.528 672.439 963.153 668.864 970.727 668.864C975.894 668.941 980.989 670.082 985.695 672.218C990.401 674.353 994.615 677.436 998.075 681.273L1018.9 660.661C1009.43 649.933 994.078 639.627 970.096 639.627C941.906 639.627 920.448 655.402 920.448 681.694C920.448 705.672 937.698 717.451 958.735 721.868L963.364 722.92C980.824 726.496 987.346 729.23 987.346 737.643C987.346 745.636 980.193 750.895 969.254 750.895C956.211 750.895 944.43 745.216 935.384 733.647L914.137 754.681C925.918 768.773 940.854 779.711 969.675 779.711C994.709 779.711 1021.43 765.408 1021.43 736.171C1021.85 705.672 998.706 699.783 979.562 695.787Z" fill="white"/>
<path fill-rule="evenodd" clip-rule="evenodd" d="M1096.32 747.949C1081.59 747.949 1066.24 735.75 1066.24 709.037C1066.24 685.269 1080.54 672.018 1095.48 672.018C1107.26 672.018 1114.2 677.487 1119.67 686.952L1146.6 669.073C1133.13 648.671 1117.15 640.047 1095.06 640.047C1054.66 640.047 1032.79 671.387 1032.79 709.247C1032.79 749.001 1056.98 780.131 1094.64 780.131C1121.14 780.131 1133.76 770.876 1147.44 751.104L1120.3 732.847C1114.83 741.639 1108.94 747.949 1096.32 747.949Z" fill="white"/>
<path fill-rule="evenodd" clip-rule="evenodd" d="M1236.43 643.203V692.422H1195.82V643.203H1160.69V776.977H1195.82V724.182H1236.43V776.977H1271.56V643.203H1236.43Z" fill="white"/>
<path d="M462.048 609.129C441.993 609.129 422.388 615.075 405.713 626.215C389.038 637.355 376.042 653.189 368.367 671.714C360.692 690.239 358.684 710.623 362.597 730.289C366.509 749.956 376.167 768.02 390.348 782.199C404.528 796.377 422.596 806.033 442.266 809.945C461.935 813.857 482.323 811.849 500.851 804.175C519.38 796.502 535.216 783.508 546.358 766.836C557.5 750.163 563.447 730.562 563.447 710.511C563.447 683.623 552.764 657.836 533.748 638.823C514.732 619.81 488.94 609.129 462.048 609.129ZM462.048 802.428C443.865 802.428 426.091 797.037 410.973 786.937C395.854 776.837 384.071 762.481 377.113 745.686C370.155 728.89 368.334 710.409 371.882 692.579C375.429 674.749 384.185 658.371 397.042 645.516C409.899 632.661 426.279 623.907 444.112 620.36C461.946 616.814 480.43 618.634 497.229 625.591C514.027 632.548 528.385 644.329 538.487 659.445C548.588 674.56 553.98 692.331 553.98 710.511C553.974 734.887 544.287 758.263 527.047 775.5C509.808 792.736 486.428 802.422 462.048 802.428Z" fill="white"/>
<path d="M503.912 647.199H496.97V681.905H427.337V647.199H420.184C409.708 654.109 401.11 663.51 395.161 674.56C389.213 685.609 386.099 697.962 386.099 710.51C386.099 723.059 389.213 735.411 395.161 746.461C401.11 757.51 409.708 766.911 420.184 773.821H427.337V739.158H496.97V773.863H503.912C514.393 766.957 522.995 757.557 528.947 746.507C534.9 735.457 538.015 723.103 538.015 710.552C538.015 698.002 534.9 685.648 528.947 674.598C522.995 663.548 514.393 654.148 503.912 647.241V647.199ZM417.66 760.192C411.136 754.396 405.817 747.371 402.008 739.52C398.199 731.668 395.974 723.144 395.46 714.433C394.946 705.721 396.154 696.994 399.014 688.75C401.873 680.505 406.329 672.904 412.127 666.382C413.865 664.441 415.712 662.601 417.66 660.871V760.192ZM496.97 729.483H427.337V691.37H496.97V729.483ZM506.437 759.981V738.948V681.905V660.871C512.945 666.714 518.238 673.782 522.014 681.672C525.789 689.561 527.972 698.117 528.439 706.85C528.906 715.583 527.647 724.323 524.735 732.57C521.822 740.816 517.313 748.409 511.465 754.912C509.874 756.671 508.196 758.349 506.437 759.939V759.981Z" fill="white"/>
</g>
<defs>
<clipPath id="clip0_585_1750">
<rect width="910.909" height="204.026" fill="white" transform="translate(360.648 608.75)"/>
</clipPath>
</defs>
</svg>
