<svg width="1664" height="1664" viewBox="0 0 1664 1664" fill="none" xmlns="http://www.w3.org/2000/svg">
<rect width="995.735" height="996.289" transform="translate(333.76 333.76)" fill="white"/>
<path d="M1301.31 361.957H361.939V1301.85H1301.31V361.957Z" fill="black"/>
<path d="M502.762 1033.55V1114.02H541.742C556.275 1114.02 570.126 1107.03 570.126 1090.69C570.778 1081.21 564.57 1072.62 555.366 1070.29C562.138 1067.5 566.488 1060.82 566.292 1053.49C566.292 1038.5 555.937 1033.55 540.606 1033.55H502.762ZM582.134 1033.55V1114.02H598.126V1033.55H582.134ZM681.235 1033.55V1114.02H697.227V1083.47C697.227 1071.63 700.954 1066.78 709.619 1066.78C717.056 1066.78 719.86 1071.52 719.86 1081.1V1114.02H735.866V1078.18C735.866 1063.76 731.582 1054.16 714.575 1054.16C707.628 1054.3 701.215 1057.94 697.556 1063.85H697.214V1033.55H681.235ZM905.289 1033.55L931.413 1114.02H951.349L978.048 1033.55H959.783L941.655 1090.13H941.436L923.527 1033.55H905.289ZM520.438 1047.29H537.005C543.321 1047.29 549.177 1048.86 549.177 1056.53C549.177 1063.3 544.544 1066.11 538.347 1066.11H520.438V1047.29ZM639.708 1054.16C621.46 1054.16 609.627 1066.33 609.627 1084.93C609.627 1103.42 621.46 1115.59 639.708 1115.59C658.068 1115.59 669.898 1103.42 669.898 1084.93C669.898 1066.34 658.068 1054.16 639.708 1054.16ZM782.72 1054.16C775.562 1054.09 768.86 1057.65 764.92 1063.63H764.687V1055.74H749.613V1114.02H765.605V1080.21C765.605 1068.82 773.267 1066.78 776.421 1066.78C786.558 1066.78 786.115 1074.57 786.115 1081.33V1114.02H802.107V1081.55C802.107 1074.23 803.792 1066.78 812.801 1066.78C821.928 1066.78 822.604 1073.21 822.604 1080.99V1114.02H838.596V1075.02C838.596 1059.91 829.706 1054.16 817.305 1054.16C810.197 1054.23 803.594 1057.87 799.739 1063.85C796.584 1056.87 790.045 1054.16 782.72 1054.16ZM1007.35 1054.16C989.087 1054.16 977.267 1066.33 977.267 1084.93C977.267 1103.42 989.094 1115.59 1007.35 1115.59C1025.71 1115.59 1037.54 1103.42 1037.54 1084.93C1037.54 1066.34 1025.71 1054.16 1007.35 1054.16ZM1072.04 1054.16C1059.54 1054.16 1046.7 1058 1046.7 1072.88C1046.7 1083.13 1055.94 1086.4 1065.18 1088.43C1076.67 1090.91 1083.31 1092.6 1083.31 1097.44C1083.31 1103.08 1077.46 1104.89 1072.84 1104.89C1066.53 1104.89 1060.67 1102.07 1060.56 1095.08H1045.36C1046.04 1110.53 1059.21 1115.59 1072.73 1115.59C1086.02 1115.59 1099.32 1110.63 1099.32 1095.3C1099.32 1084.48 1090.18 1081.11 1080.85 1078.97C1071.72 1076.83 1062.7 1076.04 1062.7 1070.29C1062.7 1065.56 1067.99 1064.88 1071.59 1064.88C1077.34 1064.88 1082.07 1066.57 1082.52 1072.77H1097.73C1096.49 1058.45 1084.77 1054.16 1072.04 1054.16ZM1133.83 1054.16C1121.33 1054.16 1108.49 1058 1108.49 1072.88C1108.49 1083.13 1117.74 1086.4 1126.97 1088.43C1138.46 1090.91 1145.1 1092.6 1145.1 1097.44C1145.1 1103.08 1139.25 1104.89 1134.63 1104.89C1128.33 1104.89 1122.47 1102.07 1122.36 1095.08H1107.15C1107.83 1110.53 1121 1115.59 1134.52 1115.59C1147.8 1115.59 1161.09 1110.63 1161.09 1095.3C1161.09 1084.48 1151.97 1081.11 1142.62 1078.97C1133.5 1076.83 1124.48 1076.04 1124.48 1070.29C1124.48 1065.56 1129.78 1064.88 1133.38 1064.88C1139.13 1064.88 1143.86 1066.57 1144.31 1072.77H1159.52C1158.28 1058.45 1146.56 1054.16 1133.83 1054.16ZM872.21 1057.1V1079.52H849.81V1091.58H872.21V1114.02H884.272V1091.58H906.686V1079.52H884.272V1057.1H872.21ZM639.708 1066.23C650.63 1066.23 653.893 1075.58 653.893 1084.93C653.893 1094.19 650.63 1103.54 639.708 1103.54C628.891 1103.54 625.619 1094.18 625.619 1084.93C625.619 1075.58 628.891 1066.23 639.708 1066.23ZM1007.35 1066.23C1018.26 1066.23 1021.55 1075.58 1021.55 1084.93C1021.55 1094.19 1018.26 1103.54 1007.35 1103.54C996.525 1103.54 993.266 1094.18 993.273 1084.93C993.273 1075.58 996.525 1066.23 1007.35 1066.23ZM520.438 1078.18H539.716C547.266 1078.18 552.45 1081.45 552.45 1089.67C552.45 1098.02 546.356 1100.28 539.374 1100.28H520.438V1078.18Z" fill="white"/>
</svg>
