<svg width="1664" height="1664" viewBox="0 0 1664 1664" fill="none" xmlns="http://www.w3.org/2000/svg">
<g clip-path="url(#clip0_585_1629)">
<path d="M1305.9 710.758H525.145C498.01 710.758 483.825 710.758 469.024 712.608C434.489 716.924 404.27 731.724 385.769 753.307C367.268 775.506 357.4 802.638 357.4 831.004C357.4 863.687 370.351 894.519 393.786 917.335C411.054 934.601 433.872 945.084 462.857 949.401C481.975 952.484 501.093 951.867 518.361 951.867H1241.14L1305.9 710.758Z" fill="#009A4E"/>
<path d="M1236.83 946.318H530.079C483.209 946.318 434.489 949.401 397.487 913.636C375.902 892.67 362.951 863.687 362.951 831.005C362.951 802.639 372.818 776.74 390.086 756.39C409.204 733.574 439.423 721.241 469.642 717.541C485.059 715.691 499.243 715.691 525.145 715.691H1298.5L1236.83 946.318Z" fill="white"/>
<path d="M1186.87 873.552C1186.26 876.636 1185.64 879.719 1185.64 882.185C1185.64 889.585 1191.19 890.818 1196.74 890.818H1208.46L1203.52 911.168H1180.09C1172.69 911.168 1166.52 910.551 1163.44 909.318C1155.42 906.235 1150.49 898.835 1150.49 888.352C1150.49 883.419 1151.72 878.485 1152.34 873.552C1153.57 867.386 1185.64 752.689 1185.64 752.689L1222.03 745.906C1222.03 745.289 1187.49 868.002 1186.87 873.552ZM987.677 781.672H962.392L972.259 745.289L935.873 751.456L927.856 782.288H915.522L909.972 802.638H922.306C922.306 802.638 902.571 873.552 901.338 879.102C900.104 882.802 899.487 887.735 899.487 891.435C899.487 900.685 905.655 907.468 913.672 909.935C916.755 911.168 921.689 911.168 927.856 911.168H953.141L958.691 890.818H945.741C940.19 890.818 934.64 890.202 934.64 883.419C934.64 881.569 935.256 879.719 935.256 877.252C935.873 874.169 956.225 802.021 956.225 802.021H981.51L987.677 781.672ZM906.271 781.055C897.637 778.588 887.77 777.355 878.519 777.355C852.001 777.355 823.632 791.538 823.016 821.754C823.016 848.886 855.701 858.136 855.701 873.552C855.701 885.885 844.601 890.818 833.5 890.818C824.866 890.818 815.615 889.585 806.981 887.119L801.431 908.085C812.532 911.785 826.099 913.018 837.817 913.018C864.952 913.018 889.62 897.602 890.237 868.002C890.237 839.02 859.402 832.853 859.402 816.204C859.402 803.254 872.352 799.554 882.836 799.554C888.387 799.554 894.554 800.171 900.104 801.404L906.271 781.055ZM715.709 774.889C715.709 751.456 699.674 743.439 678.706 743.439C657.121 743.439 639.237 753.306 625.053 769.955C605.935 792.771 589.9 841.487 589.9 871.086C589.9 901.918 602.851 917.334 634.303 917.334C678.09 917.334 688.574 881.569 699.058 846.42L661.438 853.82C658.355 863.686 650.954 892.668 637.387 892.668C629.37 892.668 627.52 885.269 627.52 878.486C627.52 858.753 639.237 820.521 646.637 802.021C650.338 792.155 660.205 769.339 673.156 769.339C676.239 769.339 678.09 771.189 679.323 772.422C680.556 774.272 681.173 776.122 681.173 779.205C681.173 780.438 681.173 783.522 680.556 785.372C679.94 790.305 672.539 814.971 672.539 814.971L708.925 808.804C711.392 797.705 715.709 785.372 715.709 774.889ZM1067.23 781.055C1061.68 777.972 1053.05 777.355 1045.65 777.355C1030.85 777.355 1012.96 779.822 1000.01 786.605L965.475 910.551H1000.01L1029.61 802.638C1034.55 800.788 1040.1 800.171 1045.03 800.171C1049.35 800.171 1051.81 800.171 1054.28 800.788L1067.23 781.055ZM810.065 828.537L787.863 908.085C772.446 912.401 756.411 914.251 740.377 914.251C720.026 914.251 699.674 904.385 699.674 881.569C699.674 841.487 742.844 830.387 774.913 827.304C776.763 822.37 777.996 816.821 777.996 811.271C777.996 802.021 769.979 800.171 762.578 800.171C752.094 800.171 737.293 803.254 727.426 806.338L732.977 784.755C744.077 779.822 760.112 777.972 772.446 777.972C791.564 777.972 812.532 784.138 812.532 807.571C813.148 814.354 811.915 821.137 810.065 828.537ZM736.06 877.252C736.06 885.269 739.76 891.435 748.394 891.435C751.478 891.435 754.561 891.435 758.261 890.818L769.979 848.27C753.328 850.12 736.06 858.136 736.06 877.252ZM1141.85 858.136C1130.75 888.969 1112.25 914.251 1076.48 914.251C1051.81 914.251 1037.63 901.918 1037.63 876.636C1037.63 865.536 1040.71 853.203 1043.8 842.72C1053.66 813.121 1075.87 777.972 1111.02 777.972C1137.54 777.972 1149.87 791.538 1149.87 817.437C1150.49 829.77 1146.17 845.803 1141.85 858.136ZM1109.78 800.171C1106.08 800.171 1103.62 802.021 1100.53 804.488C1091.28 813.121 1080.8 840.253 1075.87 861.219C1073.4 871.086 1072.17 876.636 1072.17 882.802C1072.17 888.352 1074.63 891.435 1078.95 891.435C1082.65 891.435 1086.35 888.969 1088.82 886.502C1093.75 881.569 1096.83 874.786 1100.53 865.536C1109.17 844.57 1115.95 817.437 1115.95 808.804C1116.57 804.488 1114.72 800.171 1109.78 800.171Z" fill="#ED1B2F"/>
<path d="M458.54 819.903C459.774 819.903 461.007 821.136 461.007 822.369C461.007 823.603 459.774 824.836 458.54 824.836H452.373C451.14 824.836 449.906 823.603 449.906 822.369C449.906 821.136 451.14 819.903 452.373 819.903H458.54ZM446.206 813.736H449.906C450.523 813.736 451.756 814.353 451.756 815.586C451.756 816.203 451.14 817.436 449.906 817.436H446.206C445.589 817.436 444.356 816.82 444.356 815.586C444.356 814.353 444.973 813.736 446.206 813.736ZM434.489 820.519H438.189C438.805 820.519 440.039 821.136 440.039 822.369C440.039 822.986 439.422 824.219 438.189 824.219H434.489C433.872 824.219 432.638 823.603 432.638 822.369C433.255 821.136 433.872 820.519 434.489 820.519ZM427.088 813.736H430.788C431.405 813.736 432.638 814.353 432.638 815.586C432.638 816.203 432.022 817.436 430.788 817.436H427.088C426.471 817.436 425.238 816.82 425.238 815.586C425.855 814.353 426.471 813.736 427.088 813.736ZM422.771 843.952H419.071C418.454 843.952 417.221 843.335 417.221 842.102C417.221 841.486 417.837 840.869 419.071 840.869H422.771C423.388 840.869 424.004 841.486 424.004 842.102C424.621 843.335 424.004 843.952 422.771 843.952ZM427.088 830.386H423.388C422.771 830.386 421.538 829.769 421.538 829.153C421.538 828.536 422.154 827.919 423.388 827.919H427.088C427.705 827.919 428.938 828.536 428.938 829.153C428.938 829.769 427.705 830.386 427.088 830.386ZM434.489 837.169H430.788C430.172 837.169 429.555 836.552 429.555 835.936C429.555 835.319 430.172 834.086 430.788 834.086H434.489C435.105 834.086 436.339 834.702 436.339 835.936C435.722 836.552 435.105 837.169 434.489 837.169ZM441.889 843.952H438.189C437.572 843.952 436.955 843.335 436.955 842.102C436.955 841.486 437.572 840.869 438.189 840.869H441.889C442.506 840.869 443.739 841.486 443.739 842.102C443.122 843.335 442.506 843.952 441.889 843.952ZM441.889 830.386C441.272 830.386 440.656 829.769 440.656 829.153C440.656 828.536 441.272 827.919 441.889 827.919H445.589C446.206 827.919 446.823 828.536 446.823 829.153C446.823 829.769 446.206 830.386 445.589 830.386H441.889ZM448.673 837.786C447.439 837.786 446.206 836.552 446.206 835.319C446.206 834.086 447.439 832.852 448.673 832.852H454.84C456.073 832.852 457.307 834.086 457.307 835.319C457.307 836.552 456.073 837.786 454.84 837.786H448.673Z" fill="#F9B29E"/>
<path d="M434.489 823.603H438.189C438.806 823.603 440.039 822.986 440.039 821.753C440.039 821.136 439.423 819.903 438.189 819.903H434.489C433.872 819.903 432.639 820.52 432.639 821.753C433.255 822.986 433.872 823.603 434.489 823.603ZM446.206 816.82H449.907C450.523 816.82 451.757 816.203 451.757 814.97C451.757 814.353 451.14 813.12 449.907 813.12H446.206C445.59 813.12 444.356 813.737 444.356 814.97C444.356 816.203 444.973 816.82 446.206 816.82ZM473.341 811.887H467.174C465.324 811.887 464.091 813.12 464.091 814.97C464.091 816.82 465.324 818.053 467.174 818.053H472.108L473.341 811.887ZM450.523 821.753C450.523 822.986 451.757 824.22 452.99 824.22H459.157C460.391 824.22 461.624 822.986 461.624 821.753C461.624 820.52 460.391 819.287 459.157 819.287H452.99C451.14 819.903 450.523 820.52 450.523 821.753ZM455.457 842.102C455.457 843.952 456.69 845.186 458.54 845.186H463.474L465.324 838.403H458.54C457.307 839.019 455.457 840.253 455.457 842.102ZM459.774 828.536C459.774 830.386 461.007 832.236 462.857 832.236H467.174L469.025 825.453H462.241C461.624 825.453 459.774 826.686 459.774 828.536ZM441.889 840.869H438.189C437.572 840.869 436.956 841.486 436.956 842.102C436.956 842.719 437.572 843.952 438.189 843.952H441.889C442.506 843.952 443.74 843.336 443.74 842.102C443.123 841.486 442.506 840.869 441.889 840.869ZM447.44 829.153C447.44 828.536 446.823 827.92 446.206 827.92H442.506C441.889 827.92 441.273 828.536 441.273 829.153C441.273 829.77 441.889 830.386 442.506 830.386H446.206C446.823 830.386 447.44 829.77 447.44 829.153ZM456.69 835.319C456.69 834.086 455.457 832.853 454.224 832.853H448.056C446.823 832.853 445.59 834.086 445.59 835.319C445.59 836.553 446.823 837.786 448.056 837.786H454.224C456.074 837.786 456.69 836.553 456.69 835.319ZM427.088 816.82H430.789C431.405 816.82 432.639 816.203 432.639 814.97C432.639 814.353 432.022 813.12 430.789 813.12H427.088C426.472 813.12 425.238 813.737 425.238 814.97C425.855 816.203 426.472 816.82 427.088 816.82Z" fill="#ED1B2F"/>
<path d="M572.014 811.887H479.508C480.742 812.503 481.975 813.737 481.975 814.97C481.975 816.82 480.742 818.053 478.891 818.053H472.108L470.258 824.836H474.574C476.425 824.836 477.658 826.686 477.658 828.536C477.658 830.386 476.425 831.619 474.574 831.619H467.791L465.941 838.403H470.874C472.724 838.403 473.958 839.636 473.958 841.486C473.958 843.336 472.724 844.569 470.874 845.186H572.631C573.248 840.253 573.864 835.936 573.864 831.003C573.864 824.836 573.248 818.053 572.014 811.887ZM506.027 819.903H510.344C511.577 819.903 512.194 820.52 512.194 821.753C512.194 822.986 511.577 823.603 510.344 823.603H506.027C504.793 823.603 504.176 822.986 504.176 821.753C504.176 821.136 505.41 819.903 506.027 819.903ZM497.393 813.737H501.71C502.943 813.737 503.56 814.353 503.56 815.587C503.56 816.82 502.943 817.437 501.71 817.437H497.393C496.159 817.437 495.543 816.82 495.543 815.587C495.543 814.353 496.776 813.737 497.393 813.737ZM483.208 819.287H489.992C491.226 819.287 492.459 820.52 492.459 821.753C492.459 822.986 491.226 824.22 489.992 824.22H483.208C481.975 824.22 480.742 822.986 480.742 821.753C480.742 820.52 481.975 819.287 483.208 819.287ZM479.508 837.786C478.275 837.786 477.041 836.553 477.041 835.319C477.041 834.086 478.275 832.853 479.508 832.853H486.292C487.525 832.853 488.759 834.086 488.759 835.319C488.759 836.553 487.525 837.786 486.292 837.786H479.508ZM493.692 843.952H489.375C488.142 843.952 487.525 843.336 487.525 842.102C487.525 840.869 488.142 840.253 489.375 840.253H493.692C494.926 840.253 495.543 840.869 495.543 842.102C495.543 843.336 494.926 843.952 493.692 843.952ZM498.009 830.386H493.692C492.459 830.386 491.842 829.77 491.842 828.536C491.842 827.303 492.459 826.686 493.692 826.686H498.009C499.243 826.686 499.859 827.303 499.859 828.536C499.859 829.77 498.626 830.386 498.009 830.386ZM506.643 837.169H502.326C501.093 837.169 500.476 836.553 500.476 835.319C500.476 834.086 501.093 833.469 502.326 833.469H506.643C507.877 833.469 508.493 834.086 508.493 835.319C508.493 836.553 507.26 837.169 506.643 837.169ZM514.66 843.952H510.344C509.11 843.952 508.493 843.336 508.493 842.102C508.493 840.869 509.11 840.253 510.344 840.253H514.66C515.894 840.253 516.511 840.869 516.511 842.102C516.511 843.336 515.894 843.952 514.66 843.952ZM518.977 830.386H514.66C513.427 830.386 512.81 829.77 512.81 828.536C512.81 827.303 513.427 826.686 514.66 826.686H518.977C520.211 826.686 520.828 827.303 520.828 828.536C520.828 829.77 520.211 830.386 518.977 830.386ZM522.678 817.437H518.361C517.127 817.437 516.511 816.82 516.511 815.587C516.511 814.353 517.127 813.737 518.361 813.737H522.678C523.911 813.737 524.528 814.353 524.528 815.587C524.528 816.82 523.911 817.437 522.678 817.437ZM422.771 840.869H419.071C418.454 840.869 417.221 841.486 417.221 842.102C417.221 842.719 417.837 843.952 419.071 843.952H422.771C423.388 843.952 424.004 843.336 424.004 842.102C424.621 841.486 424.004 840.869 422.771 840.869ZM434.489 834.086H430.788C430.172 834.086 429.555 834.703 429.555 835.936C429.555 836.553 430.172 837.169 430.788 837.169H434.489C435.105 837.169 436.339 836.553 436.339 835.936C435.722 834.703 435.105 834.086 434.489 834.086ZM427.088 827.303H423.388C422.771 827.303 421.538 827.92 421.538 828.536C421.538 829.153 422.154 829.77 423.388 829.77H427.088C427.705 829.77 428.938 829.153 428.938 828.536C428.938 827.92 427.705 827.303 427.088 827.303Z" fill="#ED1B2F"/>
<path d="M478.892 736.039C467.175 736.039 456.074 737.889 446.207 741.589L430.789 797.087H568.315C554.131 761.938 519.595 736.039 478.892 736.039ZM424.005 859.985C417.838 859.985 412.905 859.369 409.204 857.519C403.654 855.052 399.337 849.502 399.337 840.869C399.337 833.47 401.187 827.303 403.654 818.67L422.155 755.155C398.72 772.421 383.303 800.171 383.303 831.62C383.303 884.035 425.856 926.583 478.276 926.583C520.828 926.583 557.214 898.834 568.932 859.985H424.005Z" fill="#009A4E"/>
</g>
<defs>
<clipPath id="clip0_585_1629">
<rect width="950.227" height="241.738" fill="white" transform="translate(356.514 710.758)"/>
</clipPath>
</defs>
</svg>
