<svg width="1664" height="1664" viewBox="0 0 1664 1664" fill="none" xmlns="http://www.w3.org/2000/svg">
<g clip-path="url(#clip0_585_1640)">
<path d="M920.701 778.084C894.419 824.439 855.506 842.62 801.359 842.62C756.415 842.62 716.298 825.918 689.961 799.776C717.526 859.357 777.602 900.675 847.305 900.675C906.078 900.675 958.01 871.305 989.374 826.378L920.701 778.084Z" fill="#E7AF2A"/>
<path d="M673.902 726.402C673.902 781.587 730.961 826.32 801.357 826.32C820.903 826.398 840.284 822.806 858.498 815.735C854.792 816.202 851.062 816.433 847.325 816.433C797.842 816.433 757.725 776.134 757.725 726.416C757.725 676.697 797.842 636.398 847.325 636.398C861.754 636.401 875.965 639.898 888.746 646.584C901.527 653.271 912.496 662.949 920.714 674.792L989.387 626.481C958.023 581.564 906.09 552.201 847.325 552.201C751.554 552.201 673.913 630.189 673.902 726.395V726.402Z" fill="#9B9B9B"/>
<path d="M605.892 1034.45C599.712 1043.35 591.466 1050.63 581.859 1055.65C572.252 1060.68 561.566 1063.31 550.717 1063.31C513.511 1063.31 483.355 1033.01 483.355 995.61C483.355 958.205 513.514 927.911 550.717 927.911C561.566 927.915 572.249 930.542 581.859 935.569C591.47 940.596 599.715 947.872 605.892 956.777L644.863 929.37C634.321 914.177 620.25 901.759 603.855 893.181C587.46 884.603 569.228 880.118 550.717 880.111C487.239 880.115 435.773 931.817 435.773 995.586C435.773 1059.36 487.239 1111.05 550.721 1111.05C569.228 1111.05 587.463 1106.57 603.858 1097.99C620.253 1089.41 634.324 1077 644.867 1061.8L605.892 1034.45Z" fill="#9B9B9B"/>
<path d="M812.191 993.824C803.755 973.737 787.83 957.71 767.784 949.129C752.443 942.626 735.505 940.868 719.151 944.075C702.8 947.285 687.787 955.317 676.05 967.129C664.304 978.856 656.297 993.797 653.045 1010.06C649.792 1026.33 651.441 1043.19 657.778 1058.53C664.116 1073.86 674.863 1086.97 688.657 1096.21C702.452 1105.45 718.68 1110.4 735.294 1110.43C746.269 1110.45 757.136 1108.28 767.268 1104.07C777.401 1099.86 786.592 1093.67 794.311 1085.89C806.055 1074.02 814.017 1058.94 817.198 1042.57C820.378 1026.19 818.638 1009.24 812.191 993.844V993.824ZM705.762 996.963C709.622 993.064 714.223 989.973 719.294 987.874C724.366 985.771 729.806 984.697 735.294 984.718C758.142 984.718 776.732 1003.45 776.732 1026.48C776.752 1031.96 775.691 1037.39 773.606 1042.47C771.521 1047.54 768.456 1052.15 764.582 1056.04C760.722 1059.91 756.136 1062.97 751.088 1065.07C746.037 1067.16 740.624 1068.24 735.157 1068.24C729.69 1068.24 724.274 1067.16 719.226 1065.07C714.175 1062.97 709.588 1059.91 705.732 1056.04C697.944 1048.17 693.575 1037.56 693.575 1026.5C693.575 1015.44 697.944 1004.82 705.732 996.963H705.762Z" fill="#9B9B9B"/>
<path d="M1053.76 1071.25C1048.87 1072.3 1045.03 1073.05 1040.17 1073.18C1034.01 1073.36 1029.6 1072.06 1026.69 1069.19C1023.59 1066.15 1022.12 1061.32 1022.22 1054.44V974.836H1053.26V938.719H1022.22V895.748L983.48 908.835L982.954 938.859H959.307V974.857H980.002V1054.46C980.002 1070.92 983.473 1084.07 990.329 1093.55C997.182 1103.02 1007.4 1108.76 1020.6 1110.46C1022.81 1110.72 1025.03 1110.85 1027.25 1110.83C1039.46 1110.83 1053.56 1107.72 1054.25 1107.56L1055.18 1107.35V1070.98L1053.76 1071.25Z" fill="#9B9B9B"/>
<path d="M937.416 1029.58C930.519 1022.76 920.134 1016.51 902.677 1008.69L897.725 1006.45C891.436 1003.67 886.466 1001.45 882.467 999.589C876.603 996.849 873.846 993.101 874.897 989.291C876.269 984.322 884.054 979.622 894.268 980.624C901.449 981.371 906.442 983.109 913.742 990.705C914.018 991.049 915.127 992.467 916.475 994.283L917.219 995.289L944.375 972.384L944.017 971.573C936.515 954.72 913.912 942.482 890.275 942.482C875.651 942.482 861.218 947.199 850.611 955.412C845.233 959.505 840.803 964.706 837.619 970.663C834.346 976.903 832.657 983.848 832.701 990.892C832.64 997.34 834.107 1003.71 836.977 1009.49C839.66 1014.69 843.298 1019.34 847.704 1023.19C852.383 1027.39 859.403 1032.66 875.924 1039.88C879.368 1041.37 882.555 1042.69 885.61 1043.96C896.039 1048.24 903.534 1051.33 906.022 1055.86C906.636 1057.16 906.93 1058.59 906.872 1060.03C906.783 1061.19 906.459 1062.31 905.92 1063.34C905.377 1064.36 904.633 1065.26 903.729 1065.98C900.152 1069.15 891.808 1072.22 883.419 1071.67C869.86 1070.77 856.185 1062.65 850.14 1051.9L850.076 1051.79L849.881 1051.54L849.693 1051.28L848.823 1050.01L825.094 1077.71L825.438 1078.41C829.698 1087.02 837.626 1094.95 847.786 1100.73C859.256 1107.15 872.201 1110.48 885.35 1110.4C902.083 1110.4 917.786 1105.32 929.557 1096.11C935.379 1091.65 940.167 1085.98 943.587 1079.49C947.064 1072.77 948.853 1065.3 948.802 1057.73C948.815 1046.25 945.187 1037.3 937.416 1029.58Z" fill="#9B9B9B"/>
<path d="M1190.04 1109.6H1227.48V939.395L1190.86 951.016L1189.86 958.315C1183.77 953.36 1169.29 942.537 1142.8 942.52C1131.62 942.52 1115.9 947.154 1107.12 951.639C1095.3 957.726 1085.08 966.515 1077.31 977.294C1069.53 988.07 1064.41 1000.53 1062.38 1013.66C1060.33 1026.78 1061.43 1040.21 1065.58 1052.83C1069.72 1065.45 1076.79 1076.92 1086.21 1086.29C1093.88 1093.97 1103 1100.05 1113.04 1104.2C1123.08 1108.34 1133.83 1110.46 1144.69 1110.43H1145.12C1154.18 1110.39 1174.81 1106.82 1189.82 1093.79L1190.04 1109.6ZM1186.52 1026.47C1186.52 1027.22 1186.52 1027.92 1186.47 1028.63C1186.47 1028.72 1186.47 1028.82 1186.47 1028.91C1186.47 1029 1186.47 1029.1 1186.47 1029.21C1186.47 1029.75 1186.4 1030.25 1186.35 1030.76C1185.34 1040.98 1180.58 1050.48 1172.99 1057.42C1165.09 1064.6 1154.72 1068.46 1144.03 1068.2C1133.35 1067.95 1123.18 1063.59 1115.63 1056.03C1109.79 1050.19 1105.8 1042.75 1104.19 1034.65C1102.57 1026.56 1103.4 1018.16 1106.56 1010.53C1109.72 1002.9 1115.07 996.376 1121.94 991.782C1128.81 987.188 1136.89 984.727 1145.16 984.717C1167.94 984.717 1186.52 1003.45 1186.52 1026.47Z" fill="#9B9B9B"/>
</g>
<defs>
<clipPath id="clip0_585_1640">
<rect width="791.709" height="558.853" fill="white" transform="translate(435.773 552.201)"/>
</clipPath>
</defs>
</svg>
