<svg width="1664" height="1664" viewBox="0 0 1664 1664" fill="none" xmlns="http://www.w3.org/2000/svg">
<path d="M502.597 879.166C497.609 882.5 489.956 885.081 481.295 885.252C472.787 885.474 465.407 882.842 460.487 878.192C453.893 871.918 450.511 861.097 450.511 846.174C450.511 831.626 454.662 807.078 481.841 805.181C485.531 804.907 495.423 804.138 502.597 803.95V879.166ZM502.597 744.016V774.068H483.396C426.543 774.068 414.688 816.566 414.688 847.182C414.688 869.593 421.521 889.047 433.786 901.971C444.361 912.997 458.523 918.895 474.803 918.895C485.702 918.895 494.893 916.86 502.597 912.792L502.802 915.869H540.317V744.016H502.597Z" fill="#EAEAEB"/>
<path d="M604.498 824.822C608.325 811.232 617.721 802.513 632.771 802.513C646.779 802.513 656.346 812.343 657.49 824.822H604.498ZM694.339 825.454C692.904 809.402 687.01 795.812 677.409 786.359C666.664 775.743 651.597 770.324 632.771 770.324C611.058 770.324 593.189 778.376 581.026 793.573C570.195 807.06 564.233 825.933 564.233 846.754C564.233 881.508 583.879 918.809 638.938 918.809C660.036 918.809 680.638 912.261 692.46 906.364V871.559C685.883 875.2 665.742 886.089 638.238 885.594C618.062 885.252 607.198 874.397 603.798 855.268H694.698L694.749 853.866C694.954 841.045 694.698 830.224 694.339 825.454Z" fill="#EAEAEB"/>
<path d="M793.217 770.667C781.019 770.667 767.558 775.248 762.365 777.18L762.194 774.069H724.628V915.869H762.365V809.66C770.513 804.565 783.138 802.429 793.354 804.822C803.467 807.198 808.438 813.609 808.438 831.968V915.869H846.072V826.395C846.072 788.907 828.818 770.667 793.217 770.667Z" fill="#EAEAEB"/>
<path d="M1210.86 774.034V880.243C1202.84 885.389 1190.13 887.491 1179.91 885.149C1169.81 882.773 1164.86 876.397 1164.86 857.935V774.034H1127.16V863.542C1127.16 901.013 1144.46 919.236 1180.01 919.236C1192.23 919.236 1205.74 914.706 1210.86 912.723L1211.09 915.834H1248.57V774.034H1210.86Z" fill="#EAEAEB"/>
<path d="M915.634 744.017H877.948V867.081C877.948 884.005 880.887 895.869 887.156 904.245C894.536 914.16 906.597 918.93 923.97 918.93C937.927 918.93 951.372 915.87 959.23 913.391V879.441C954.361 880.672 939.431 883.886 930.786 883.886C925.303 883.886 921.442 882.74 919.067 880.364C915.634 876.86 915.634 870.894 915.634 865.15V805.25C930.411 805.25 948.912 806.276 959.23 807.387V774.069H915.634V744.017Z" fill="#EAEAEB"/>
<path d="M1054.71 827.25C1045.86 825.643 1035.39 823.78 1029.34 820.447C1026.4 818.84 1024.85 816.566 1024.88 814.053C1024.98 811.592 1026.67 809.215 1029.19 807.985C1034.67 804.942 1044.63 803.472 1059.77 806.241C1074.3 808.856 1090.43 814.463 1095.42 816.566V782.343C1077.99 773.693 1062.48 770.325 1045.02 770.581C1028.81 770.889 1014.8 775.129 1004.48 782.804C993.619 791.027 987.503 802.737 986.888 816.737C985.778 840.277 1000.54 854.363 1034.55 860.978C1041.62 862.38 1051.92 864.483 1056.3 866.312C1060.7 868.055 1063.32 870.962 1063.32 874.261C1063.35 877.423 1061.11 880.398 1057.58 881.902C1051.21 884.569 1040.84 884.176 1034.24 883.475C1014.77 881.509 996.147 874.62 989.399 871.628V906.775C1000.91 912.621 1019.07 919.374 1040.61 919.066C1065.28 918.57 1095.9 911.22 1101.41 878.671C1103.53 866.585 1101.38 855.662 1095.2 847.046C1087.64 836.635 1076.01 831.251 1054.71 827.25Z" fill="#EAEAEB"/>
</svg>
