<svg width="1664" height="1664" viewBox="0 0 1664 1664" fill="none" xmlns="http://www.w3.org/2000/svg">
<path d="M745.823 724.193C799.945 725.343 857.954 724.273 912.265 724.238L912.314 806.752C912.321 819.89 912.994 836.299 911.331 849.207C910.209 857.937 901.971 863.699 895.144 868.3C883.622 875.863 843.689 888.046 829.431 887.122C808.734 885.779 751.13 873.924 746.948 847.604C745.189 836.534 745.711 815.183 745.718 802.914L745.823 724.193Z" fill="#A7A7A7"/>
<path d="M757.061 735.163L823.916 735.15C824.512 755.571 824.056 778.458 823.972 799.014L757.087 799.023L757.061 735.163Z" fill="#F6F6F6"/>
<path d="M834.412 809.515L901.69 809.512C901.732 813.629 901.816 817.895 901.795 822.006C901.704 842.064 904.475 849.987 886.049 860.822C870.76 868.515 851.225 873.154 834.447 876.014C834.202 854.008 834.419 831.557 834.412 809.515Z" fill="#F6F6F6"/>
<path d="M790.39 809.538L824.028 809.514C824.106 820.223 824.099 830.932 824.014 841.641L790.35 841.684L790.39 809.538Z" fill="#F6F6F6"/>
<path d="M868.003 766.727C867.575 776.505 867.904 789.035 867.89 799.019L834.441 799.015L834.42 766.841C845.612 766.873 856.811 766.835 868.003 766.727Z" fill="#F6F6F6"/>
<path d="M868.037 734.788L901.669 734.781L901.704 766.642C891.438 766.66 877.994 766.27 868.002 766.728L868.037 734.788Z" fill="#F6F6F6"/>
<path d="M757.092 841.898L790.179 841.842L790.065 867.914C775.856 863.629 760.146 857.859 757.092 841.898Z" fill="#F6F6F6"/>
<path d="M828.506 605.771C830.534 605.903 834.877 608.176 835.831 609.848C839.501 616.271 834.793 620.078 830.639 623.023C833.375 639.854 831.951 654.239 838.308 670.936C847.514 661.048 851.591 639.488 853.921 625.989C837.929 612.943 864.495 604.848 865.225 618.447C865.435 622.307 859.745 626.168 856.735 628.412C856.91 636.218 853.956 671.017 860.461 675.151C868.656 674.209 878.536 641.436 880.543 634.339C861.527 610.992 911.326 619.787 883.988 635.613C883.763 636.589 883.567 637.573 883.406 638.563C882.416 644.83 875.919 682.224 885.16 683.165C892.921 679.365 902.59 653.146 906.449 644.582C903.404 640.39 899.551 632.263 905.396 630.527C917.571 626.916 926.51 638.745 909.045 645.655C908.442 647.524 907.887 649.406 907.382 651.302C905.305 659.097 898.695 682.967 902.281 689.143C910.056 693.013 926.229 661.59 929.338 655.984C927.324 653.326 924.342 647.577 926.657 645.219C936.235 635.453 954.339 654.138 932.068 658.258C926.482 674.928 918.09 696.159 911.599 712.612C885.09 704.848 860.131 697.422 832.26 697.055C803.1 697.097 774.575 703.162 747.169 713.045C740.083 694.881 733.18 676.646 726.46 658.343C725.891 658.242 725.324 658.123 724.762 657.987C719.207 656.641 718.191 654.253 715.301 649.537C723.76 635.532 736.876 642.591 729.701 656.557C730.865 658.932 732.106 661.268 733.423 663.561C736.991 669.768 747.159 687.878 753.987 689.716C762.457 687.18 751.379 652.393 749.505 646.02C745.007 644.031 734.861 638.405 740.504 633.159C748.799 625.448 764.303 631.98 751.72 643.758C754.639 649.307 767.918 686.64 775.926 682.308C780.576 674.177 775.929 645.875 775.035 635.881C771.742 634.241 766.179 630.979 766.268 627.282C766.58 614.396 792.84 618.348 777.84 635.031C780.706 643.777 788.902 672.995 798.004 674.471C805.801 669.214 801.755 636.497 800.93 627.789C800.797 626.386 797.422 625.43 796.041 624.726C785.935 612.465 806.648 604.915 809.28 617.494C809.985 620.866 806.681 624.543 804.571 627.089C806.111 634.926 812.71 666.942 819.819 669.935C824.366 667.216 827.306 629.801 827.137 622.947C823.833 619.443 822.871 618.019 820.317 613.898C822.885 609.04 823.643 608.195 828.506 605.771Z" fill="#A7A7A7"/>
<path d="M563.099 988.565C582.341 987.074 599.16 1001.44 600.703 1020.69C602.247 1039.94 587.932 1056.8 568.699 1058.4C549.39 1060 532.452 1045.61 530.903 1026.29C529.354 1006.97 543.783 990.063 563.099 988.565ZM570.374 1054.51C590.32 1047.5 592.468 1027.05 587.534 1008.36C584.456 996.701 573.293 991.463 561.549 992.239C547.198 997.205 542.555 1008.25 542.065 1022.83C541.464 1040.79 550.126 1057.25 570.374 1054.51Z" fill="#A7A7A7"/>
<path d="M873.602 990.003C890.653 992.499 906.897 983.01 918.264 999.77C919.197 1014.82 916.875 1016.66 903.409 1022.54C919.808 1024.04 927.828 1034.68 918.39 1049.7C916.812 1051.23 914.861 1052.46 913.156 1053.6C906.728 1057.93 880.829 1057.84 874.184 1055.77L873.911 1054.86C875.728 1053.42 878.759 1053.73 881.201 1053.69C882.022 1034.53 881.503 1012.75 881.503 993.38C878.71 993.528 874.717 994.383 872.949 992.16L873.602 990.003ZM890.484 1053.81C898.133 1054.04 902.062 1054.51 908.476 1049.7C910.244 1047.17 912.223 1042.3 912.384 1039.27C913.114 1025.12 899.452 1024.13 890.056 1024.24C890.141 1033.64 889.965 1044.54 890.484 1053.81ZM890.183 1021.99C896.771 1021.23 899.234 1021.18 904.581 1017.47C909.156 1011.65 908.911 1008.73 908.546 1001.4C902.904 992.697 900.385 992.836 890.435 993.645C890.14 1003.09 890.056 1012.54 890.183 1021.99Z" fill="#A7A7A7"/>
<path d="M1005.53 990.351C1012.19 988.879 1033.85 988.847 1040.19 992.62C1052.25 999.799 1049.94 1012.83 1038.86 1019.55C1035.16 1021.8 1032.37 1022.3 1028.06 1023.42C1036.86 1034.41 1045.16 1042.9 1054.36 1053.29C1056.66 1053.61 1058.94 1053.69 1060.76 1055.11C1058.66 1057.07 1047.57 1056.48 1044.21 1056.45C1041.82 1053.15 1038.48 1049.32 1035.85 1046.12C1029.34 1038.33 1022.77 1030.6 1016.12 1022.92C1015.7 1032.32 1016.87 1044.1 1017.28 1053.85C1019.6 1053.92 1023.75 1053.65 1025.4 1054.72L1024.93 1055.85C1022.65 1057.08 1003.58 1056.49 999.954 1055.77L999.568 1055.05C1001.58 1053.61 1004.56 1053.72 1007.11 1053.56C1008.39 1033.54 1008.47 1013.47 1007.36 993.444C1004.89 993.565 1001.53 994.172 1000.14 991.81C1002.12 990.324 1002.87 990.66 1005.53 990.351ZM1016.73 1020.92C1023.18 1020.48 1026.08 1020.34 1031.8 1017.39C1033.65 1015.46 1035.43 1013.76 1036.86 1011.49C1037.69 995.613 1034.02 992.839 1018.36 993.574C1016.77 1001.23 1017.27 1012.64 1016.73 1020.92Z" fill="#A7A7A7"/>
<path d="M220.775 990.407C226.958 989.469 233.881 989.998 240.107 989.651C269.054 988.039 274.642 1016.94 243.585 1023.31C253.002 1032.57 260.506 1044.77 271.015 1053C272.856 1054.44 275.008 1053.21 277.269 1055.2L276.852 1056.53C275.829 1056.72 262.626 1056.53 260.547 1056.58C259.646 1055.76 254.092 1048.57 252.977 1047.17C246.582 1039.77 239.651 1030.39 232.748 1023.84C232.671 1033.07 232.429 1042.35 233.343 1051.53C234.627 1053.31 238.697 1054.52 241.077 1055.5L241.095 1056.07C234.814 1056.24 222.559 1055.91 216.949 1056.68L216.493 1056.75L215.566 1055.96C216.33 1052.93 223.712 1055 223.933 1049.28C224.145 1043.77 223.976 1038.15 223.973 1032.62L223.947 993.436C221.385 993.539 217.581 993.917 215.776 991.873C217.794 990.356 218.065 990.733 220.775 990.407ZM232.586 1020.56C239.201 1020.66 242.769 1020.58 248.552 1017.02C258.927 1006.61 253.629 993.287 239.605 993.377C237.846 993.402 236.087 993.464 234.329 993.563C233.546 1002.25 232.616 1011.83 232.586 1020.56Z" fill="#A7A7A7"/>
<path d="M158.192 960.065C169.84 958.853 179.026 960.39 190.555 962.072C189.518 966.576 189.183 976.893 188.776 982.143C186.6 976.395 186.573 971.052 179.749 967.437C172.527 963.798 161.572 962.608 153.844 964.74C121.65 973.622 119.372 1036.88 148.209 1050.84C160.768 1056.93 170.687 1055.54 183.254 1051.78L183.418 1020.5C180.138 1020.4 173.86 1021.07 172.139 1018.51L172.52 1017.35C179.059 1015.84 198.428 1016.67 205.103 1017.82C201.548 1019.34 197.134 1020.28 193.334 1021.22C192.695 1030.82 193.013 1044.8 192.963 1054.75C174.737 1059.53 148.746 1062.4 134.001 1049.16C103.512 1021.8 113.591 964.899 158.192 960.065Z" fill="#A7A7A7"/>
<path d="M622.282 993.516C619.797 993.521 614.319 993.864 612.63 991.893C616.413 989.136 626.243 989.79 630.912 989.952C643.885 1006.87 658.965 1027.51 671.598 1044.81C671.911 1030.18 671.619 1007.92 669.726 993.52C666.417 993.555 663.962 993.832 660.994 992.342L661.221 991.512C668.687 988.685 682.999 989.63 690.832 991.728C685.808 993.158 683.972 993.321 678.798 993.731C677.441 1001.58 674.77 1056.78 674.675 1056.96C671.239 1057.77 667.797 1054.93 665.939 1052.26C653.459 1034.32 637.726 1016.53 626.107 998.245C625.961 1004.58 626.937 1050.29 628.99 1054.07L628.998 1056.23C625.625 1056.28 613.294 1057.48 611.738 1054.94C613.483 1053.53 615.912 1054.34 619.055 1052.95C621.642 1047.84 622.347 1002.37 622.282 993.516Z" fill="#A7A7A7"/>
<path d="M798.689 1053.72C806.797 1039.05 814.174 1024.47 820.913 1009.09C823.369 1003.48 825.965 997.904 828.309 992.243C829.881 988.443 830.891 988.417 834.792 988.899C838.778 993.348 849.717 1032.92 854.538 1040.93C859.604 1049.35 854.201 1049.79 866.067 1055.49L865.73 1055.92C861.127 1056.44 859.274 1056.4 854.629 1056.11C851.261 1056.37 843.788 1057.24 840.946 1055.75L841.073 1054.82C843.402 1053.31 844.77 1054.44 848.265 1053.31L848.679 1053.17C845.97 1046.02 843.493 1038.63 840.778 1031.54L816.373 1031.69C813.78 1037.99 810.122 1047.22 808.206 1053.7C810.643 1053.79 813.304 1053.61 815.279 1054.93C812.783 1056.72 793.811 1057.59 791.402 1055.38C793.024 1053.33 796.139 1053.76 798.689 1053.72ZM817.545 1027.94L828.281 1028.03L839.788 1027.98C838.301 1023.86 831.2 1002.86 828.912 1000.37C825.264 1009.71 821.292 1018.69 817.545 1027.94Z" fill="#A7A7A7"/>
<path d="M848.678 1053.17L849.464 1055.28C851.393 1056.03 852.558 1055.99 854.628 1056.11C851.26 1056.37 843.787 1057.24 840.945 1055.75L841.072 1054.83C843.401 1053.31 844.769 1054.44 848.264 1053.31L848.678 1053.17Z" fill="white"/>
<path d="M1227.34 988.351C1229.59 988.324 1230.32 988.24 1232.43 988.991C1234.3 992.195 1237.66 1003 1239.19 1007.15C1244.34 1021.03 1249.45 1034.97 1254.94 1048.73C1256.6 1052.88 1258.86 1053.12 1263.21 1054.85L1263.05 1055.7C1259.85 1056.79 1239.98 1057.21 1237.92 1055.14C1240.47 1053.61 1242.98 1053.82 1245.96 1053.73C1243.18 1046.15 1241.39 1039.16 1238.04 1031.54L1227.54 1031.55L1213.58 1031.62C1210.92 1038.96 1208.31 1046.31 1205.75 1053.68C1207.78 1053.85 1210.85 1053.76 1212.19 1055.03C1209.56 1057.18 1195.7 1055.36 1190.54 1056.86L1190.35 1056.92C1190.45 1055.06 1198.19 1051.62 1200.25 1047.2C1202.22 1042.97 1204.69 1037.66 1206.73 1033.51C1214.16 1018.72 1221.03 1003.65 1227.34 988.351ZM1214.93 1028.01L1228.03 1028.06L1236.83 1027.97C1235.22 1022.93 1229.48 1003.29 1226.14 1000.87C1222.73 1010.25 1218.24 1019.09 1214.93 1028.01Z" fill="#A7A7A7"/>
<path d="M318.679 987.799C320.013 988.165 322.212 988.47 322.803 989.796C331.875 1010.14 336.758 1033.25 347.738 1052.66C348.643 1054.26 351.278 1053.1 353.382 1054.51L353.421 1056.12L352.741 1056.62C347.827 1056.33 331.65 1056.93 329.083 1056.26L328.527 1055.29C330.746 1052.98 330.758 1054.59 334.97 1053.54C335.705 1050.35 329.894 1035.65 328.401 1031.56L314.608 1031.55L303.926 1031.6L302.896 1034.11C301.363 1037.87 295.715 1050.57 297.042 1053.73C299.569 1053.94 300.242 1053.99 302.604 1054.86L302.416 1055.6C300.19 1057.05 285.83 1055.55 280.479 1056.78L280.27 1056.83L279.422 1056.29L279.291 1054.89C281.157 1053.02 285.571 1054.49 286.815 1052.44C297.522 1034.8 305.368 1015.38 313.86 996.602C315.259 993.506 316.283 990.266 318.679 987.799ZM305.067 1027.97L314.823 1028.02L326.893 1028.03C325.499 1023.65 318.767 1002.22 316.713 1000.37C312.836 1009.48 308.734 1018.8 305.067 1027.97Z" fill="#A7A7A7"/>
<path d="M1150.99 960.058C1163.12 958.791 1172.99 961.267 1185.03 961.286C1185.05 968.456 1185.36 977.056 1183.55 983.918C1181.63 978.448 1181.62 977.135 1181.09 971.409C1149.3 951.878 1122.48 969.945 1121.85 1005.96C1121.44 1029.84 1128.39 1052.16 1155.55 1055.01C1170.09 1054.24 1172.48 1049.97 1182.91 1046.86L1183.59 1047.34C1182.69 1054.56 1165.71 1057.76 1160.07 1058.5C1100.17 1066.45 1091.45 966.537 1150.99 960.058Z" fill="#A7A7A7"/>
<path d="M745.123 961.536C748.59 961.13 758.585 961.375 762.549 961.382C773.844 961.439 785.139 961.411 796.434 961.299C796.396 967.268 796.267 973.235 796.047 979.199C794.739 976.638 793.893 972.986 791.935 970.809C785.483 963.635 768.884 965.025 759.289 964.977C759.307 966.723 759.226 968.449 759.061 970.187C757.893 982.44 758.08 994.686 758.212 1006.98C764.217 1007.03 774.619 1007.46 780.024 1004.93C782.861 1003.6 782.528 1000.22 783.461 996.755L784.652 996.18L785.887 996.98C786.694 1000.53 787.778 1019.46 784.846 1021.34C782.691 1019.67 782.084 1016.11 781.18 1013.26C774.529 1010.53 765.222 1010.46 758.096 1010.57C758.073 1022.59 757.454 1041.48 759.465 1052.93C762.393 1052.99 765.912 1052.75 768.086 1054.71C765.172 1057.11 741.585 1057.38 738.792 1054.93L739.366 1053.79C741.533 1052.78 745.772 1052.8 748.325 1052.67C747.549 1034.39 751.47 990.261 748.781 969.535C748.384 966.474 742.045 964.277 738.807 963.292L738.684 962.501C740.603 961.657 742.998 961.67 745.123 961.536Z" fill="#A7A7A7"/>
<path d="M1414.12 990.41C1417.6 989.895 1423.15 989.962 1426.8 989.9C1426.68 993.245 1426.85 999.68 1425.78 1002.53C1423.44 1000.83 1426.41 996.677 1419.34 994.966C1412.93 993.416 1407.58 993.338 1401.07 993.531C1400.56 1002.34 1400.72 1012.76 1400.64 1021.69C1414.59 1021.92 1415.64 1024.16 1419.31 1010.27C1420.91 1016.83 1420.29 1028.62 1420.12 1035.81C1418.55 1032.53 1416.85 1029.32 1415.03 1026.17C1408.66 1025.17 1406.94 1025.13 1400.52 1025.13L1400.81 1052.92L1415.62 1052.41L1424.9 1050.74C1425.63 1046.08 1426.21 1043.16 1427.46 1038.62C1429.09 1045.77 1429.14 1050.23 1428.78 1057.36C1420.37 1055.54 1382.98 1056.75 1381.41 1056.02L1381.93 1055.07C1384.51 1053.32 1387.52 1053.71 1390.69 1053.73C1390.96 1033.64 1391.03 1013.55 1390.92 993.453C1387.81 993.54 1385.91 993.844 1383.43 991.9C1385.73 990.126 1407.89 991.033 1414.12 990.41Z" fill="#A7A7A7"/>
<path d="M451.811 991.024C455.205 990.432 475.855 989.602 477.79 992.143C476.78 993.203 473.58 993.534 471.941 993.845C470.949 996.967 488.509 1041.23 490.887 1046.19C493.131 1037.61 513.507 997.841 511.697 993.899C509.58 993.724 508.947 993.678 506.947 993.004L506.627 991.87C509.623 989.478 523.611 990.61 527.847 991.067C526.715 994.027 522.544 993.119 521.403 994.966C511 1011.79 502.001 1029.63 494.562 1047.95C492.323 1053.47 492.046 1056.74 486.603 1056.96C483.898 1055.68 480.217 1043.9 478.886 1040.69C472.393 1025.04 466.872 1008.46 459.032 993.4C455.357 993.49 453.766 994.233 451.811 991.024Z" fill="#A7A7A7"/>
<path d="M945.771 993.404C942.768 993.498 940.831 993.854 938.354 992.164L938.326 991.495C940.529 990.895 977.929 989.691 982.371 989.886C982.315 995.348 982.371 999.986 981.564 1005.42C979.494 1000.12 978.926 996.914 973.235 994.715C969.032 993.091 960.296 993.452 955.679 993.563L955.517 1021.66C960.584 1021.61 966.057 1021.7 971.053 1021.03C972.147 1018.24 973.474 1014.54 974.933 1012.03C975.284 1020.18 975.214 1027.05 975.01 1035.22C969.572 1023.55 967.039 1025.02 955.153 1025.13C955.475 1034.38 955.63 1043.64 955.637 1052.9C964.731 1052.62 970.919 1052.65 979.824 1050.79C980.133 1048.24 980.126 1045.61 981.831 1043.76L982.736 1044.12C984.259 1048.77 983.859 1052.32 983.837 1057.19C977.368 1055.4 955.012 1056.4 946.852 1056.26L945.659 1053.95C945.729 1041.01 945.897 1028.85 946.452 1015.93C946.739 1009.13 945.511 1000.75 945.771 993.404Z" fill="#A7A7A7"/>
<path d="M1290.8 988.788C1295.45 988.111 1301.72 989.029 1306.46 989.587C1306.62 993.418 1307.35 998.624 1305.31 1001.65C1302.63 1000.64 1304.27 996.624 1300.72 994.288C1296.19 990.48 1284.54 992.248 1281.78 997.758C1275.77 1009.71 1282.43 1016.13 1293.56 1019.04C1300.41 1021.2 1312.63 1025.93 1313.21 1034.6C1314.39 1052.05 1301.99 1056.24 1288.79 1058.12C1282.21 1058.4 1277.75 1057.89 1271.18 1057.23C1271.24 1051.39 1271.14 1046.07 1272.07 1040.28C1273.53 1043.8 1274.49 1047.81 1275.47 1051.5C1277.78 1052.41 1280.19 1053.43 1282.55 1054.05C1304.15 1059.64 1315.1 1034.24 1291.1 1026.86C1282.85 1024.33 1276.25 1021.58 1271.5 1014.16C1271.13 1009.58 1271.3 1005.7 1271.45 1001.13C1276.82 992.515 1280.81 990.271 1290.8 988.788Z" fill="#A7A7A7"/>
<path d="M1318.29 990.328C1335.54 990.97 1355.41 991.143 1372.51 989.977C1372.46 995.077 1372.18 1000.38 1371.99 1005.49C1367.89 991.284 1364.21 993.879 1350.23 994.186L1349.98 1053.78C1354.68 1053.95 1356.27 1054.23 1360.86 1055.31C1356.21 1056.31 1335.07 1057.23 1331.04 1055.84L1330.6 1054.91C1331.84 1053.9 1336.38 1053.99 1338.71 1053.55C1341.36 1050.31 1340.47 1002.2 1340.8 993.876C1334.14 994.113 1329.15 994.429 1322.55 995.228C1321.4 998.974 1320.24 1002.71 1319.05 1006.45C1318.51 1002.3 1317.28 994.034 1318.29 990.328Z" fill="#A7A7A7"/>
<path d="M369.354 993.519C367.056 993.502 362.734 993.765 360.98 992.659L361.305 991.383C365.912 988.748 397.815 990.028 405.527 989.952C405.5 993.045 405.744 999.473 404.73 1002.08L403.743 1002.34C400.717 1000.17 400.951 997.185 400.386 996.371C397.86 992.73 383.612 993.458 379.391 993.488C378.648 1003.89 378.116 1011.19 378.231 1021.71C385.307 1021.62 388.133 1021.48 395.038 1020.52C396.162 1017.68 397.43 1014.23 398.788 1011.56C399.174 1019.39 399.575 1028.67 398.42 1036.45C394.633 1021.79 391.19 1025.8 378.231 1024.1C378.18 1030.15 377.62 1048.24 379.269 1053.13C381.917 1055.13 384.79 1052.97 387.724 1054.76C386.868 1057.59 373.298 1056.22 369.562 1056.24L368.103 1054.11C370.403 1041.04 370.518 1007.2 369.354 993.519Z" fill="#A7A7A7"/>
<path d="M1444.13 991.003C1450.31 990.242 1467.96 990.731 1474.08 991.313C1470.62 992.918 1466.18 993.617 1462.39 994.375C1462.51 1002.08 1461.38 1011.6 1461.28 1019.78C1461.12 1031.86 1461.82 1042.05 1462.4 1053.99C1462.88 1053.98 1463.36 1053.97 1463.84 1053.94C1467.21 1053.78 1483.96 1053.1 1485.87 1049.22C1486.15 1048.65 1485.33 1044.74 1486.85 1043.06L1488.17 1043.49L1488.86 1045.09L1488.26 1046.3C1488.14 1049.46 1489.17 1053.92 1489.78 1057.13C1475.93 1056.15 1450.24 1057.34 1439.6 1055.01C1442.96 1054.05 1448.63 1053.84 1452.27 1053.58C1453.13 1035.43 1452.61 1012.4 1452.6 993.972C1449.56 993.617 1447.46 993.489 1444.58 992.398L1444.13 991.003Z" fill="#A7A7A7"/>
<path d="M1508.2 993.781C1505.85 993.556 1502.59 993.537 1500.75 992.249L1501.29 991.459C1508.09 990.309 1522.3 990.478 1529.28 991.171C1526.86 992.095 1518.85 994.484 1518.68 996.202C1517.4 1009.22 1517.24 1042.38 1518.53 1054.02C1526.15 1053.5 1533.73 1052.61 1541.26 1051.36C1541.41 1048.54 1541.3 1046.05 1542.7 1043.59L1543.7 1043.46C1545.66 1048.48 1545.13 1051.43 1544.98 1056.79C1538.6 1056.59 1521.43 1057.05 1515.9 1056.09C1514.22 1055.87 1511.68 1055.78 1509.92 1055.66C1508.47 1054.43 1508.87 1052.54 1508.38 1049.85C1509.28 1037.14 1510.21 1005.75 1508.2 993.781Z" fill="#A7A7A7"/>
<path d="M1088.57 1015.65C1091.8 1015.5 1095.87 1015.12 1098.92 1015.85C1099.27 1017.23 1098.45 1018.14 1097.7 1019.69C1094.51 1020.96 1083.27 1020.42 1079.31 1020.37C1076.4 1020.44 1070.31 1021.04 1068.04 1019.66C1068.12 1017.7 1068.19 1018.18 1069.56 1016.33C1073.25 1015.16 1084.2 1015.61 1088.57 1015.65Z" fill="#A7A7A7"/>
<path d="M1496.26 1055.15C1502.49 1052.99 1506.69 1056.74 1508.38 1049.85C1508.87 1052.54 1508.46 1054.43 1509.92 1055.66C1511.68 1055.78 1514.22 1055.87 1515.89 1056.09C1507.57 1056.84 1504.22 1056.64 1496.26 1055.15Z" fill="white"/>
<path d="M946.852 1056.26C944.087 1056.19 937.604 1057.42 935.898 1055.03C939.463 1053.49 941.758 1053.81 945.659 1053.95L946.852 1056.26Z" fill="white"/>
<path d="M369.562 1056.24C367.063 1056.4 362.314 1057.21 360.83 1054.93C363.44 1053.54 365.166 1053.91 368.103 1054.11L369.562 1056.24Z" fill="white"/>
<path d="M628.988 1054.07C631.213 1053.95 633.01 1053.62 634.896 1054.81C633.88 1056.7 630.99 1056.29 628.996 1056.23L628.988 1054.07Z" fill="#A7A7A7"/>
</svg>
