<svg width="1664" height="1664" viewBox="0 0 1664 1664" fill="none" xmlns="http://www.w3.org/2000/svg">
<path fill-rule="evenodd" clip-rule="evenodd" d="M1075.26 864.328C910.567 872.141 743.603 879.627 597.466 928.771C596.162 928.121 596.162 926.168 596.162 924.859L603.321 924.21V921.607C605.274 920.958 607.877 922.916 609.181 920.298C609.835 913.145 598.765 920.958 603.321 912.485H609.181C607.877 915.088 611.134 915.747 612.438 917.046C617.643 916.397 616.994 907.29 622.848 912.485L624.152 911.186C624.802 907.285 618.947 909.233 620.895 905.332L631.311 906.63C629.362 902.079 626.755 896.864 622.199 895.565C627.404 893.612 624.802 891.005 625.451 887.752V883.851C700.861 871.853 990.958 851.949 1070.62 858.815L1075.26 864.328Z" fill="white"/>
<path fill-rule="evenodd" clip-rule="evenodd" d="M890.39 856.841C747.188 853.589 592.261 871.813 454.259 895.247C444.492 891.335 437.983 901.102 429.526 897.849C431.474 893.938 427.572 893.289 424.965 891.994L426.269 888.083L432.128 891.994C430.175 883.527 441.24 894.597 436.684 886.13C437.339 884.177 439.941 885.48 441.24 884.831V888.083C437.339 886.774 436.684 890.686 435.381 893.289C438.638 895.891 441.24 891.99 443.843 891.99V889.387L451.007 890.686C453.609 882.873 446.451 887.434 445.147 881.569C449.053 882.878 455.558 888.733 460.118 883.522C462.072 884.831 464.674 884.831 465.978 882.223C465.329 878.961 456.212 880.27 461.422 874.41C469.235 875.06 469.885 884.826 478.997 877.663L481.599 880.265V873.102L492.015 876.354L486.16 863.995C490.716 857.481 493.973 852.929 503.735 852.929L505.688 855.522C506.992 854.224 508.291 852.27 510.893 852.929L512.846 855.522C515.449 852.27 520.005 852.27 523.262 855.522C523.912 852.93 526.519 850.971 529.122 852.27C531.075 854.224 529.771 860.083 534.982 858.125L534.332 852.27C540.192 849.668 555.164 852.929 559.72 848.369C671.03 843.163 794.061 843.163 897.559 852.929L894.956 855.522L890.39 856.841Z" fill="white"/>
<path fill-rule="evenodd" clip-rule="evenodd" d="M486.156 856.841C486.806 858.794 484.852 860.093 483.554 861.402C480.297 860.743 479.647 857.49 480.297 854.238C482.899 854.238 484.852 854.888 486.156 856.841ZM475.745 862.696C474.442 862.046 473.792 863.345 473.138 864.005C469.881 862.696 469.881 855.537 473.138 855.537C475.091 857.49 478.348 860.093 475.745 862.696ZM460.119 858.794C458.816 860.738 459.47 865.299 455.559 864V858.135L460.119 858.794Z" fill="white"/>
<path fill-rule="evenodd" clip-rule="evenodd" d="M516.747 868.888C511.542 871.491 516.098 861.725 512.846 859.771C516.747 861.725 516.747 864.977 516.747 868.888Z" fill="white"/>
<path fill-rule="evenodd" clip-rule="evenodd" d="M447.094 861.403C446.445 862.052 445.795 862.702 446.445 864.006H442.538V858.8C445.146 858.141 445.795 860.094 447.094 861.403ZM505.682 862.048C506.986 861.398 500.476 868.562 495.266 864.001C495.916 858.795 487.453 863.342 490.705 857.487C488.757 858.136 497.215 856.188 493.962 852.281C495.271 860.094 504.383 855.533 505.682 862.048ZM419.109 864.006C419.109 865.305 420.408 867.907 417.805 868.566C415.852 867.907 413.249 864.006 415.852 861.403C417.156 860.744 419.758 862.048 419.109 864.006ZM391.114 865.959C391.768 867.902 389.815 868.562 388.511 869.86L385.254 868.562C383.955 864.655 389.166 864.006 391.114 865.959ZM503.729 868.562C503.729 869.861 501.78 870.505 499.822 870.505L497.874 868.562C499.173 865.959 502.425 865.959 503.729 868.562Z" fill="white"/>
<path fill-rule="evenodd" clip-rule="evenodd" d="M442.544 864.005C441.24 866.608 441.24 868.566 437.983 867.907C436.034 865.958 439.941 858.14 442.544 864.005Z" fill="white"/>
<path fill-rule="evenodd" clip-rule="evenodd" d="M1221.73 874.742C1086.33 878.653 941.171 900.779 803.818 927.465C799.262 936.582 789.496 923.563 786.893 934.628L784.94 932.026L781.034 935.937C773.875 937.236 764.109 937.236 757.6 939.189C755.651 943.75 749.791 943.75 747.189 940.498C741.983 942.441 748.488 945.703 742.628 946.353C740.025 942.441 742.628 938.54 745.231 935.937L739.371 926.171L736.768 928.774C732.212 926.82 734.815 915.096 730.908 914.446C724.399 920.301 736.768 924.862 727.651 927.465C725.049 922.914 728.301 914.446 720.493 914.446C719.189 915.755 717.89 917.699 715.937 917.049L713.334 914.446L717.89 909.895C886.485 878.653 1064.2 864.976 1221.73 872.139V874.742H1221.73Z" fill="white"/>
<path fill-rule="evenodd" clip-rule="evenodd" d="M475.745 865.299C475.745 866.608 475.09 867.253 474.441 867.902H471.838V863.341C473.787 862.697 474.436 864.655 475.745 865.299ZM458.165 871.159L454.259 872.468C454.259 869.865 449.698 867.262 454.259 865.304C457.516 865.299 458.165 868.561 458.165 871.159ZM435.381 873.762C434.731 874.421 434.077 875.071 434.731 875.715H430.825V869.86C434.077 868.561 434.077 872.463 435.381 873.762ZM379.401 879.627H374.84L376.793 872.463C379.401 874.421 382.003 877.024 379.401 879.627ZM400.232 883.528V887.44H396.975V881.575C398.928 880.925 400.882 881.57 400.232 883.528Z" fill="white"/>
<path fill-rule="evenodd" clip-rule="evenodd" d="M620.899 893.616C617.642 894.266 615.694 891.014 615.044 889.056C617.647 883.201 625.455 889.715 620.899 893.616ZM612.442 893.616C612.442 894.925 613.741 897.528 611.138 898.177C608.535 899.486 607.881 896.224 606.582 894.925C606.582 891.663 611.138 889.715 612.442 893.616ZM597.465 898.177C596.816 899.486 598.115 902.089 596.161 902.738C594.858 902.738 592.255 904.037 591.605 901.429L593.559 896.869C594.863 898.177 596.166 898.177 597.465 898.177Z" fill="white"/>
<path fill-rule="evenodd" clip-rule="evenodd" d="M419.109 891.335C419.109 892.644 420.408 895.246 417.805 895.896C417.156 893.943 411.945 891.994 415.852 890.041C417.156 890.041 418.455 890.041 419.109 891.335Z" fill="white"/>
<path fill-rule="evenodd" clip-rule="evenodd" d="M585.751 904.032C585.102 904.692 583.798 905.341 584.447 906.635H581.19C578.587 902.733 584.447 899.481 585.751 904.032ZM616.349 907.294C615.045 909.897 613.092 908.593 611.138 908.593C609.185 907.294 610.489 904.692 612.442 904.032L616.349 907.294Z" fill="white"/>
<path fill-rule="evenodd" clip-rule="evenodd" d="M386.558 898.499C387.207 899.807 384.605 900.452 383.955 901.751L382.002 897.2C383.301 897.205 385.908 895.896 386.558 898.499Z" fill="white"/>
<path fill-rule="evenodd" clip-rule="evenodd" d="M522.607 905.34C523.257 907.293 521.303 908.592 519.999 909.9L516.742 908.592C515.448 905.984 519.355 904.69 522.607 905.34ZM540.186 911.195C540.836 913.148 538.883 914.447 537.579 915.755H534.976V911.195H540.186ZM559.714 915.751C560.363 917.049 559.06 917.694 558.41 918.353C556.457 918.353 555.807 915.75 553.854 914.442C554.504 910.545 560.363 911.844 559.714 915.751ZM599.419 914.447C599.419 915.755 600.068 917.049 598.769 918.358C594.863 919.008 592.909 914.447 594.863 912.493C597.465 911.195 598.12 913.148 599.419 914.447Z" fill="white"/>
<path fill-rule="evenodd" clip-rule="evenodd" d="M710.08 918.359C708.776 917.7 708.132 918.359 707.477 919.009C704.225 918.359 703.571 911.845 707.477 912.495C709.43 913.798 710.08 915.752 710.08 918.359Z" fill="white"/>
<path fill-rule="evenodd" clip-rule="evenodd" d="M583.148 918.36C579.891 919.009 577.289 916.406 578.588 913.154H583.148V918.36ZM477.692 918.36C478.347 920.303 477.043 921.612 475.744 922.921L471.838 921.612C471.183 918.36 475.09 917.7 477.692 918.36ZM452.305 919.004C452.955 921.607 451.001 922.916 449.697 924.21L446.445 922.911C445.146 919.654 449.053 918.36 452.305 919.004Z" fill="white"/>
<path fill-rule="evenodd" clip-rule="evenodd" d="M686.645 924.214L684.043 926.167C680.786 925.518 680.141 921.607 682.739 919.004C685.342 920.303 687.3 920.303 686.645 924.214Z" fill="white"/>
<path fill-rule="evenodd" clip-rule="evenodd" d="M593.56 924.215C592.91 924.865 592.256 925.524 592.91 926.168H590.303V921.607C592.261 920.963 592.91 922.916 593.56 924.215Z" fill="white"/>
<path fill-rule="evenodd" clip-rule="evenodd" d="M727.656 930.728L725.053 933.331C726.357 926.167 710.081 930.069 719.193 921.611C722.45 925.518 722.45 929.419 727.656 930.728Z" fill="white"/>
<path fill-rule="evenodd" clip-rule="evenodd" d="M533.023 924.215C531.719 926.169 531.719 928.127 528.462 927.467L529.117 922.916L533.023 924.215ZM578.588 924.215V927.467H574.032V922.916C575.335 922.916 577.938 921.613 578.588 924.215ZM496.571 924.865C496.571 926.173 496.571 928.127 495.267 928.776L492.01 924.865H496.571Z" fill="white"/>
<path fill-rule="evenodd" clip-rule="evenodd" d="M698.362 928.771L695.759 930.724C693.156 930.724 690.553 926.813 693.156 924.859C695.759 926.168 697.063 926.168 698.362 928.771Z" fill="white"/>
<path fill-rule="evenodd" clip-rule="evenodd" d="M748.486 934.63C749.789 935.28 749.79 936.584 749.79 937.883C742.626 936.584 750.439 932.028 748.486 930.07C750.439 930.07 754.345 929.42 753.047 926.168C755.649 932.028 748.486 930.07 748.486 934.63Z" fill="white"/>
<path fill-rule="evenodd" clip-rule="evenodd" d="M447.095 927.465C448.398 929.419 446.445 930.727 445.146 932.026L441.24 930.727C440.59 928.125 444.492 926.816 447.095 927.465Z" fill="white"/>
<path fill-rule="evenodd" clip-rule="evenodd" d="M587.05 928.77C587.7 933.975 581.191 932.671 578.588 934.624L584.448 932.022L583.149 928.77H587.05Z" fill="white"/>
<path fill-rule="evenodd" clip-rule="evenodd" d="M632.62 933.329C631.316 932.67 630.672 933.979 630.017 934.628C628.714 932.675 624.812 931.376 628.064 928.773C630.667 928.769 633.919 929.418 632.62 933.329Z" fill="white"/>
<path fill-rule="evenodd" clip-rule="evenodd" d="M483.553 932.026C483.553 933.334 484.203 934.628 482.249 935.937C479.647 937.236 478.992 933.334 477.693 932.026C478.997 929.418 482.249 929.418 483.553 932.026ZM505.034 932.026C505.683 934.628 503.73 935.278 502.426 936.587C498.52 937.236 499.824 931.381 501.123 930.073C503.081 929.418 503.73 931.376 505.034 932.026ZM515.45 932.026C514.795 932.675 513.496 933.334 514.146 934.628C510.894 935.937 510.244 932.026 510.894 930.068C512.847 928.769 514.146 930.727 515.45 932.026Z" fill="white"/>
<path fill-rule="evenodd" clip-rule="evenodd" d="M684.043 935.933C684.698 936.582 683.394 937.232 682.74 937.876C679.487 939.185 679.487 935.933 678.184 934.624C680.137 930.728 684.043 932.026 684.043 935.933ZM704.87 934.629C706.174 936.582 704.22 937.881 702.922 939.19C699.015 939.19 700.319 933.985 701.618 932.026C703.571 931.377 704.225 933.98 704.87 934.629ZM715.94 934.629C715.29 935.279 713.987 935.938 714.636 936.582C711.379 937.881 710.73 934.629 710.73 932.022C713.337 931.377 714.636 933.33 715.94 934.629Z" fill="white"/>
<path fill-rule="evenodd" clip-rule="evenodd" d="M740.024 936.582C739.374 938.535 738.071 937.881 736.767 937.881L735.463 933.33C737.421 934.629 740.673 933.98 740.024 936.582Z" fill="white"/>
<path fill-rule="evenodd" clip-rule="evenodd" d="M468.58 937.883C467.277 939.836 465.323 940.495 462.721 940.495V935.934C465.323 934.63 467.926 936.584 468.58 937.883Z" fill="white"/>
<path fill-rule="evenodd" clip-rule="evenodd" d="M657.353 941.792C656.054 943.101 654.75 942.442 653.451 942.442V935.938C656.703 936.582 658.657 937.881 657.353 941.792Z" fill="white"/>
<path fill-rule="evenodd" clip-rule="evenodd" d="M546.691 941.793C546.041 941.144 545.392 941.793 544.737 942.443L542.135 936.588H546.691V941.793Z" fill="white"/>
<path fill-rule="evenodd" clip-rule="evenodd" d="M732.215 937.882V941.793H728.309L729.612 936.588C730.262 937.232 730.911 938.536 732.215 937.882Z" fill="white"/>
<path fill-rule="evenodd" clip-rule="evenodd" d="M521.309 941.795C520.005 943.104 518.706 944.398 516.748 943.748V937.884C519.356 936.585 520.005 940.496 521.309 941.795Z" fill="white"/>
<path fill-rule="evenodd" clip-rule="evenodd" d="M721.795 943.746C720.496 945.045 719.193 946.998 716.59 946.349V940.494C719.847 939.185 719.847 942.438 721.795 943.746Z" fill="white"/>
<path fill-rule="evenodd" clip-rule="evenodd" d="M527.163 946.349L525.859 941.793L527.163 942.438V946.349Z" fill="white"/>
<path fill-rule="evenodd" clip-rule="evenodd" d="M501.126 947.647C499.178 948.306 497.874 946.348 496.57 945.044L499.173 942.441C500.477 943.745 501.781 945.044 501.126 947.647Z" fill="white"/>
<path fill-rule="evenodd" clip-rule="evenodd" d="M701.618 949.602H698.361L699.016 945.041C700.319 946.35 702.268 947.649 701.618 949.602Z" fill="white"/>
<path fill-rule="evenodd" clip-rule="evenodd" d="M735.467 945.045C735.467 946.354 736.121 946.998 736.771 947.648C736.121 949.601 733.514 948.307 732.215 948.307V945.045H735.467Z" fill="white"/>
<path fill-rule="evenodd" clip-rule="evenodd" d="M478.996 947.648C478.347 948.957 480.3 951.56 477.693 952.209L474.436 946.354C475.744 946.349 478.347 945.046 478.996 947.648ZM517.397 948.303V952.204H515.449V947.643C516.098 948.303 516.748 948.952 517.397 948.303Z" fill="white"/>
<path fill-rule="evenodd" clip-rule="evenodd" d="M729.608 948.303C729.608 949.602 730.257 951.555 728.304 952.205H726.351V947.644C727.655 947.649 728.959 946.999 729.608 948.303ZM679.488 949.602C678.833 951.555 680.137 953.513 678.184 954.163L674.932 948.308C676.231 948.952 678.833 947.649 679.488 949.602ZM717.893 950.911V954.163H715.94V949.602C716.59 950.251 717.244 951.56 717.893 950.911Z" fill="white"/>
<path fill-rule="evenodd" clip-rule="evenodd" d="M449.701 952.203C450.351 954.156 448.402 955.455 447.099 956.764H446.449V950.909C447.748 950.909 449.052 950.909 449.701 952.203ZM509.588 950.909C508.934 952.208 510.237 952.853 510.892 953.512L506.985 955.455L505.682 950.904L509.588 950.909ZM502.424 956.764C501.775 957.413 501.121 958.063 499.822 958.063L497.873 955.46L499.822 953.517C501.126 954.161 503.079 954.811 502.424 956.764Z" fill="white"/>
<path fill-rule="evenodd" clip-rule="evenodd" d="M710.08 953.513C709.431 954.162 710.08 954.812 710.735 955.456L708.781 958.059L706.179 953.508L710.08 953.513ZM626.76 955.456C626.76 958.059 626.105 960.017 624.157 961.311H620.9C618.297 959.368 620.9 954.807 622.853 954.157C624.157 956.115 625.456 955.456 626.76 955.456ZM702.922 959.368C702.267 960.017 701.618 960.666 700.319 960.017L698.366 958.064L700.319 955.461C700.968 956.765 703.571 957.414 702.922 959.368Z" fill="white"/>
<path fill-rule="evenodd" clip-rule="evenodd" d="M486.155 959.368C484.851 961.971 483.552 961.312 481.594 960.018V956.766C483.552 956.116 484.851 958.065 486.155 959.368Z" fill="white"/>
<path fill-rule="evenodd" clip-rule="evenodd" d="M686.647 960.017C687.951 967.18 677.535 962.619 681.441 959.367L686.647 960.017ZM549.299 968.474C546.697 968.474 544.743 968.474 543.439 965.872L548 961.311C548.645 963.928 552.551 965.872 549.299 968.474ZM665.166 968.474C661.909 969.783 661.909 966.531 660.61 965.222L663.867 961.311C667.119 962.619 667.119 966.531 665.166 968.474Z" fill="white"/>
<path fill-rule="evenodd" clip-rule="evenodd" d="M481.599 971.737C481.599 973.681 479.645 974.34 478.996 975.639L474.44 974.34C473.136 969.784 479.645 970.434 481.599 971.737ZM462.721 976.938C463.37 978.891 461.417 980.2 460.118 981.499L456.861 980.2C456.211 977.597 460.118 976.288 462.721 976.938Z" fill="white"/>
<path fill-rule="evenodd" clip-rule="evenodd" d="M597.465 984.745L592.909 989.306C592.26 988.657 591.605 988.007 590.302 988.657C588.353 984.101 595.512 979.54 597.465 984.745Z" fill="white"/>
<path fill-rule="evenodd" clip-rule="evenodd" d="M576.995 718.102C576.995 721.11 575.061 723.259 572.058 723.259C561.53 723.259 560.456 695.977 531.67 695.977C501.81 695.977 481.618 722.185 481.618 761.069C481.618 800.383 501.81 827.45 531.24 827.45C547.135 827.45 549.718 819.72 549.718 808.977C549.718 804.036 549.073 798.449 549.073 792.433C549.073 779.762 546.28 772.671 532.749 772.671C528.452 772.671 525.019 772.671 525.019 767.945C525.019 764.077 527.378 762.573 534.038 762.573C545.426 762.573 556.808 763.218 568.196 763.218C577.859 763.218 587.528 761.499 597.197 761.499C600.634 761.499 602.568 763.218 602.568 766.226C602.568 768.589 600.849 770.733 598.056 771.167C585.384 774.175 584.74 776.539 584.74 782.77C584.74 789.211 585.165 795.441 585.594 801.887C585.809 806.184 586.883 810.481 586.883 814.564C586.883 826.166 559.601 836.909 530.386 836.909C485.915 836.909 440.16 814.998 440.16 764.512C440.16 715.534 486.56 686.528 531.455 686.528C541.096 686.527 550.697 687.756 560.026 690.186C566.252 691.69 573.133 691.904 574.417 699.205C575.491 705.426 576.995 711.872 576.995 718.102ZM656.531 771.387C652.234 771.387 651.375 772.676 651.375 777.403C651.375 802.751 668.563 822.728 690.689 822.728C706.154 822.728 717.326 810.481 721.409 810.481C723.342 810.481 725.066 812.205 725.066 813.919C725.066 824.662 695.206 839.053 675.659 839.053C641.501 839.053 614.434 813.919 614.434 782.125C614.434 750.976 641.716 726.702 676.513 726.702C703.366 726.702 725.926 743.026 725.926 762.578C725.926 769.019 723.347 771.382 715.827 771.382L656.531 771.387ZM679.087 734.656C666.195 734.656 653.523 745.829 653.523 759.145C653.523 762.153 655.242 763.013 661.258 763.013C663.617 763.013 666.845 763.227 670.067 763.227C680.805 763.227 693.912 761.723 693.912 749.696C693.907 740.882 687.896 734.656 679.087 734.656ZM784.723 806.135C784.723 817.523 784.938 819.022 787.302 821.6C792.458 827.401 803.416 823.749 803.416 830.405C803.416 833.627 801.267 834.917 796.54 834.917C787.302 834.917 777.853 834.057 768.614 834.057C758.945 834.057 749.282 834.917 739.613 834.917C735.316 834.917 732.952 833.417 732.952 830.624C732.952 828.046 734.671 826.327 738.324 825.683C750.996 823.104 751.645 820.311 751.645 810.218V769.4C751.645 744.051 734.242 759.087 734.242 749.638C734.242 747.489 735.746 746.2 738.754 745.341C751.86 741.473 763.672 735.247 774.2 726.438C778.282 722.785 779.786 721.926 781.72 721.926C783.869 721.926 784.728 723 784.728 725.579V725.364C784.728 725.364 784.513 728.372 784.513 731.809C784.513 737.181 784.728 744.266 785.802 744.266C785.802 744.266 801.697 726.653 817.167 726.653C828.125 726.653 837.139 734.388 837.139 744.051C837.139 754.36 828.769 762.739 818.021 762.739C812.01 762.739 807.283 760.376 802.556 755.004C798.904 750.497 797.185 749.418 795.036 749.418C785.583 749.418 784.728 762.095 784.728 771.114L784.723 806.135ZM897.523 808.191C897.523 818.075 898.163 821.298 900.956 823.661C907.402 829.247 918.35 825.805 918.35 832.465C918.35 835.468 916.421 836.977 912.769 836.977C901.811 836.977 891.073 835.688 880.11 835.688C869.148 835.688 858.415 836.977 847.452 836.977C844.019 836.977 842.08 835.258 842.08 832.255C842.08 830.102 843.589 828.598 846.163 828.173C860.773 825.165 862.922 823.231 862.922 808.191V748.9C862.922 743.099 860.129 742.24 856.476 742.24C854.547 742.24 852.394 742.455 850.25 742.455C846.817 742.455 845.738 741.38 845.738 739.017C845.738 734.725 848.961 732.356 856.266 731.497C861.208 731.067 862.067 729.563 863.141 721.833C866.355 695.411 888.055 677.582 916.416 677.582C932.306 677.582 943.483 682.739 943.483 690.259C943.483 694.986 937.467 710.451 930.377 710.451C921.133 710.451 915.977 686.606 908.681 686.606C901.586 686.606 896.864 699.063 896.864 717.111C896.864 730.642 897.074 731.287 900.947 731.287C907.173 731.287 913.193 731.072 919.419 731.072C925.221 731.072 926.295 731.717 926.295 736.229C926.295 737.303 926.505 738.162 926.505 738.807C926.505 742.459 925.435 742.459 921.563 742.459C913.828 742.459 908.677 742.245 905.024 742.245C898.578 742.245 897.509 743.104 897.509 748.046V808.191H897.523ZM1006.15 807.351C1006.15 818.739 1006.58 820.243 1008.73 822.816C1013.46 827.543 1025.06 825.824 1025.06 831.625C1025.06 834.843 1022.91 836.132 1017.97 836.132C1008.09 836.132 998.419 835.273 988.54 835.273C978.442 835.273 968.558 836.132 958.47 836.132C954.168 836.132 951.804 834.633 951.804 831.84C951.804 829.262 953.533 827.543 957.176 826.898C969.852 824.32 970.502 821.527 970.502 811.434V710.685C970.502 705.314 969.852 701.021 968.358 699.088C963.416 691.997 953.538 697.154 953.538 690.493C953.538 687.485 956.111 686.196 964.706 684.902C976.523 683.183 983.608 681.249 994.346 676.742C996.92 675.668 999.718 673.949 1002.51 673.949C1004.87 673.949 1006.16 676.098 1006.16 679.96V807.351H1006.15Z" fill="white"/>
<path fill-rule="evenodd" clip-rule="evenodd" d="M1080.29 841.41C1044.42 841.41 1017.57 817.57 1017.57 785.776C1017.57 753.982 1046.57 728.849 1083.08 728.849C1118.31 728.849 1146.46 753.123 1146.46 783.413C1146.46 816.066 1117.67 841.41 1080.29 841.41ZM1079.65 737.013C1065.26 737.013 1054.52 754.842 1054.52 779.116C1054.52 796.949 1061.61 833.245 1085.02 833.245C1099.84 833.245 1109.72 815.637 1109.72 788.999C1109.72 759.354 1096.83 737.013 1079.65 737.013ZM1200.94 809.386C1200.94 820.774 1201.16 822.273 1203.51 824.851C1208.67 830.647 1219.63 827 1219.63 833.65C1219.63 836.873 1217.49 838.172 1212.75 838.172C1203.51 838.172 1194.06 837.303 1184.83 837.303C1175.16 837.303 1165.49 838.172 1155.83 838.172C1151.53 838.172 1149.17 836.663 1149.17 833.87C1149.17 831.297 1150.89 829.578 1154.54 828.933C1167.22 826.355 1167.86 823.557 1167.86 813.468V772.65C1167.86 747.302 1150.46 762.342 1150.46 752.888C1150.46 750.74 1151.96 749.451 1154.98 748.596C1168.08 744.729 1179.9 738.498 1190.42 729.689C1194.5 726.036 1196.01 725.177 1197.94 725.177C1200.09 725.177 1200.95 726.251 1200.95 728.829V728.614C1200.95 728.614 1200.74 731.622 1200.74 735.06C1200.74 740.432 1200.95 747.517 1202.03 747.517C1202.03 747.517 1217.92 729.899 1233.38 729.899C1244.34 729.899 1253.37 737.634 1253.37 747.297C1253.37 757.61 1244.98 765.99 1234.24 765.99C1228.23 765.99 1223.51 763.626 1218.77 758.255C1215.13 753.743 1213.41 752.669 1211.26 752.669C1201.81 752.669 1200.95 765.34 1200.95 774.364V809.386H1200.94ZM1288.41 701.45C1288.41 705.485 1287.21 709.428 1284.96 712.781C1282.71 716.134 1279.53 718.746 1275.8 720.288C1272.07 721.829 1267.97 722.232 1264.01 721.443C1260.05 720.655 1256.42 718.712 1253.56 715.859C1250.71 713.005 1248.76 709.371 1247.97 705.413C1247.19 701.456 1247.59 697.354 1249.13 693.624C1250.67 689.895 1253.28 686.705 1256.63 684.459C1259.98 682.213 1263.93 681.011 1267.96 681.004C1270.65 681.002 1273.31 681.529 1275.79 682.556C1278.27 683.583 1280.53 685.089 1282.43 686.988C1284.32 688.887 1285.83 691.141 1286.86 693.623C1287.89 696.104 1288.41 698.764 1288.41 701.45ZM1251.22 701.45C1251.22 703.65 1251.65 705.828 1252.49 707.861C1253.33 709.893 1254.57 711.74 1256.12 713.296C1257.68 714.852 1259.52 716.086 1261.56 716.928C1263.59 717.77 1265.77 718.204 1267.97 718.204C1270.17 718.21 1272.36 717.781 1274.4 716.942C1276.43 716.104 1278.29 714.871 1279.85 713.314C1281.41 711.758 1282.65 709.909 1283.5 707.873C1284.34 705.837 1284.78 703.654 1284.78 701.45C1284.78 699.24 1284.35 697.052 1283.51 695.01C1282.67 692.967 1281.43 691.112 1279.87 689.55C1278.3 687.988 1276.45 686.749 1274.41 685.906C1272.37 685.063 1270.18 684.632 1267.97 684.637C1265.76 684.639 1263.58 685.076 1261.55 685.922C1259.51 686.768 1257.66 688.008 1256.11 689.569C1254.55 691.131 1253.32 692.984 1252.48 695.023C1251.64 697.061 1251.21 699.245 1251.22 701.45ZM1267.03 699.633C1268.67 699.633 1269.19 699.516 1269.84 699.223C1270.18 699.025 1270.46 698.742 1270.65 698.403C1270.85 698.064 1270.95 697.68 1270.95 697.289C1270.95 695.648 1269.9 695.009 1267.33 695.009H1264.63V699.633H1267.03ZM1267.74 690.673C1270.95 690.673 1272.77 690.907 1274.3 691.493C1276.17 692.255 1277.34 694.13 1277.34 696.239C1277.34 697.934 1276.63 699.516 1275.46 700.336C1274.94 700.688 1274.53 700.864 1273.18 701.391C1275.87 702.211 1276.52 702.915 1276.87 705.61L1277.23 708.066C1277.51 710.059 1277.81 711.055 1278.51 712.168H1271.25C1270.78 710.996 1270.49 709.355 1270.32 707.773C1270.02 704.257 1269.79 703.964 1267.03 703.964H1264.63V712.168H1258.25V690.668L1267.74 690.673Z" fill="white"/>
</svg>
