<svg width="1664" height="1664" viewBox="0 0 1664 1664" fill="none" xmlns="http://www.w3.org/2000/svg">
<path d="M1017.71 754.756C977.048 754.756 940.262 788.666 940.262 831.553C940.262 873.494 975.555 909.044 1017.59 909.022C1059.19 909 1094.67 873.72 1094.67 831.752C1094.67 790.038 1059.2 754.756 1017.71 754.756ZM1033.11 899.524C993.594 899.576 960.7 851.006 960.667 813.28C960.644 788.162 974.93 764.213 1002.61 764.254C1042.1 764.312 1074.21 812.421 1074.27 850.333C1074.31 875.275 1060.59 899.488 1033.11 899.524Z" fill="white"/>
<path d="M597.005 757.902L604.718 779.126L566.577 891.571L552.904 905.816H586.49L573.802 892.587L587.745 851.53C592.107 857.178 596.45 859.353 601.46 859.353C610.428 859.353 620.346 852.38 627.875 852.425C629.247 852.433 630.543 852.759 631.748 853.495L650.763 905.816H676.021L622.207 757.902H597.005ZM617.253 841.921C608.47 841.921 598.908 848.437 591.498 848.437C590.623 848.437 589.708 848.315 588.909 848.093L608.65 789.945L629.769 848.052C625.762 843.763 621.925 841.921 617.253 841.921Z" fill="white"/>
<path d="M778.098 771.498V854.501L711.695 757.912H682.716L695.372 776.34V892.231L682.338 905.815H715.761L702.738 892.231V787.072L785.442 907.502V771.498L798.476 757.912H765.064L778.098 771.498Z" fill="white"/>
<path d="M495.327 900.044V771.108L507.972 757.912H459.858L472.514 771.108V892.619L459.858 905.815H546.144L552.094 855.258L522.607 900.044H495.327Z" fill="white"/>
<path d="M856.984 757.922H807.995L820.38 771.659V892.066L807.995 905.814H856.757C895.513 905.814 928.429 872.419 928.429 832.074C928.429 791.708 895.784 757.922 856.984 757.922ZM852.344 900.346H843.203V763.38H852.56C884.707 763.38 902.771 802.115 902.771 833.587C902.771 869.608 879.104 900.346 852.344 900.346Z" fill="white"/>
<path d="M1136.53 838.347L1184.18 905.816H1210.75L1162.48 837.482C1181.76 833.818 1193.96 817.822 1193.96 798.083C1193.96 775.186 1176.96 757.916 1154.44 757.916H1097.37L1110.02 771.113V892.619L1097.37 905.816H1145.48L1132.84 892.619V838.462L1136.53 838.347ZM1132.84 763.38H1140.95C1163.43 763.38 1170.93 777.939 1170.93 798.082C1170.93 818.21 1163.44 832.998 1140.95 832.998H1132.84V763.38Z" fill="white"/>
</svg>
