<svg width="1664" height="1664" viewBox="0 0 1664 1664" fill="none" xmlns="http://www.w3.org/2000/svg">
<g clip-path="url(#clip0_585_1772)">
<path fill-rule="evenodd" clip-rule="evenodd" d="M191.717 978.295H1498.84V757.592H191.717V978.295Z" fill="#6F6F6F"/>
<path fill-rule="evenodd" clip-rule="evenodd" d="M1255.74 935.09H191.717V948.382H1251.09L1255.74 935.09Z" fill="#FFE822"/>
<path fill-rule="evenodd" clip-rule="evenodd" d="M585.583 808.788L550.384 861.963C550.384 861.963 553.04 834.042 553.04 827.396C553.704 822.08 553.04 808.78 540.416 808.78H485.289L449.426 907.162H492.601L518.504 836.028L513.192 907.162H551.712L598.871 837.358L572.967 907.162H616.135L652.67 808.78L585.583 808.788ZM820.699 905.176C818.043 905.84 802.1 909.156 784.172 909.156C753.62 910.492 726.389 897.858 726.389 875.919C725.725 836.693 764.908 815.426 794.132 810.102C806.748 807.444 831.987 804.121 856.563 810.102L841.947 844.668C837.971 835.364 827.339 835.364 822.691 835.364C812.724 834.699 803.428 838.03 797.452 840.681C782.836 847.326 770.22 868.593 790.812 877.24C802.1 881.892 816.715 877.905 831.995 875.911L820.699 905.176ZM1263.05 907.17H1215.88L1251.76 808.788H1299.58L1263.05 907.17ZM691.182 907.17H644.03L679.894 808.788H727.717L691.182 907.17ZM948.225 808.788L935.609 844.019H911.026L924.313 808.788H879.146L842.619 907.17H887.778L900.402 873.925H924.313L912.362 907.17H957.521L994.048 808.788H948.225ZM1166.74 874.59L1190.65 808.788H1144.16L1108.29 907.17H1201.28L1213.24 874.59H1166.74ZM1417.14 808.788L1391.9 876.591C1392.56 869.945 1393.9 842.69 1394.56 827.396C1395.22 820.751 1393.9 816.099 1390.58 812.768C1386.59 808.78 1381.94 808.78 1381.94 808.78H1326.81L1290.28 907.162H1330.8L1356.04 837.358L1353.39 907.162H1420.46L1457 808.78L1417.14 808.788ZM1039.22 880.579L1043.2 869.945H1095.01L1103.64 845.348H1051.83L1055.82 834.715H1110.29L1119.58 808.788H1020.62L984.089 907.17H1085.05L1094.35 880.579H1039.22Z" fill="white"/>
<path fill-rule="evenodd" clip-rule="evenodd" d="M453.409 853.987C456.064 849.335 452.745 840.696 446.761 834.042C441.449 827.396 434.145 825.403 433.481 822.08C440.785 807.451 432.817 794.824 421.529 789.507C421.867 785.984 421.315 782.433 419.923 779.18C418.53 775.927 416.343 773.076 413.561 770.891C416.217 764.91 419.537 748.295 406.921 738.319C412.233 717.709 390.985 705.747 379.69 705.082C374.37 701.087 367.066 698.429 357.098 697.764C364.41 687.123 362.41 673.167 353.771 665.192C354.435 653.894 346.467 643.253 335.171 639.265C331.187 629.961 309.932 631.29 307.94 639.93C295.324 644.582 288.012 657.881 289.34 670.509C282.029 678.484 282.029 691.783 289.34 701.087C282.693 700.422 273.397 702.416 267.421 705.075H266.757C261.445 702.416 256.125 701.087 250.149 702.416C248.821 701.087 244.837 699.758 242.181 699.093C240.165 695.634 237.161 692.857 233.557 691.118C232.229 685.137 227.581 680.485 222.933 678.484C223.597 673.831 221.605 668.515 220.277 665.856C217.621 661.869 218.285 655.223 218.949 653.894C222.269 650.571 219.613 647.248 218.285 645.911C211.637 639.265 204.997 642.588 203.005 645.911C196.365 633.949 189.061 631.29 185.07 632.62C179.094 627.967 170.462 631.29 170.462 636.607C166.478 639.265 163.822 640.595 169.798 651.236C168.47 673.167 171.126 679.82 185.741 691.783C181.086 696.435 179.094 705.739 183.078 713.057C181.75 723.698 187.726 734.332 195.037 739.648C197.029 754.934 211.637 763.581 221.605 765.575C228.245 775.543 237.541 780.195 246.844 780.86C247.508 785.512 248.836 789.5 251.492 793.487C249.5 802.127 249.5 810.109 252.156 817.42C245.516 824.73 242.86 836.036 246.18 847.334C238.212 856.638 235.549 871.931 240.868 884.558C240.868 884.558 238.876 887.889 237.548 891.204C232.236 893.87 226.924 899.851 224.268 907.826C221.612 913.808 222.94 921.783 224.268 928.436C215.636 935.746 210.317 954.362 225.596 968.983C222.276 979.632 214.972 988.928 206.341 1000.23C200.365 1008.21 199.029 1012.2 206.341 1021.51C211.652 1028.82 221.612 1034.8 230.252 1034.8C246.188 1035.46 257.484 1032.13 258.812 1020.17C260.14 1013.53 255.492 999.569 255.492 996.239C254.828 992.916 256.156 987.599 259.476 978.952C274.091 975.629 281.395 964.996 282.715 954.355C293.347 948.374 301.315 935.739 297.331 921.775C299.323 919.781 299.987 917.795 301.315 914.464C301.315 920.446 305.299 924.441 307.291 928.428C301.315 943.714 309.283 957.678 318.579 963.659C302.635 986.927 319.907 998.225 324.555 1002.88C330.531 1008.19 331.195 1018.17 340.491 1021.5C348.459 1024.16 373.706 1021.5 378.346 1010.86C379.674 1008.19 381.002 1004.88 379.674 1002.88C379.674 994.902 375.026 989.585 366.387 984.261C356.419 978.944 356.419 980.281 351.771 965.645C367.051 958.335 369.707 941.048 369.043 934.402C379.674 921.103 379.01 909.797 373.027 902.487C375.019 896.505 374.355 891.846 373.027 887.201C382.323 879.219 386.307 867.256 382.987 854.621C388.299 846.646 389.627 838.007 387.635 828.03C392.283 835.348 399.587 838.007 407.562 838.007C407.562 838.007 408.226 839.993 408.89 841.33C406.234 845.974 407.562 851.306 413.538 855.286C414.202 857.952 415.53 859.273 416.858 860.603C416.858 862.596 422.17 871.244 428.146 866.584C428.81 866.584 435.458 861.932 435.458 861.932C441.449 866.614 454.729 862.627 453.409 853.987Z" fill="#040506"/>
<path fill-rule="evenodd" clip-rule="evenodd" d="M391.635 810.111C408.235 808.782 424.178 790.166 408.906 775.545C406.914 778.868 402.259 782.191 398.939 783.52C398.275 790.83 393.627 796.812 390.971 800.142C390.971 802.801 391.635 809.446 391.635 810.111Z" fill="white"/>
<path fill-rule="evenodd" clip-rule="evenodd" d="M418.866 796.154C414.882 806.795 404.25 812.776 391.634 814.77C389.642 823.409 400.93 836.709 418.202 828.734C430.825 823.409 435.473 803.464 418.866 796.154ZM414.218 843.347C412.89 844.676 412.89 847.999 414.882 850C414.882 849.328 416.21 845.348 416.874 844.019C416.21 842.69 414.882 842.69 414.218 843.347ZM424.842 851.33C424.178 849.328 424.842 846.677 421.522 846.005C418.202 844.676 418.202 855.317 420.194 854.653C421.522 853.323 422.85 851.987 424.842 851.33ZM429.497 852.659C424.849 853.988 421.529 857.311 423.521 859.969C424.185 861.298 424.849 861.298 427.505 859.305C428.833 858.64 431.489 856.639 432.153 855.974C431.489 853.988 429.497 852.659 429.497 852.659ZM433.481 832.049C432.153 831.384 429.497 829.391 428.169 827.397C424.849 830.72 417.545 834.715 414.218 835.372C414.882 835.372 415.546 838.695 416.21 840.016C417.538 840.016 418.866 841.353 420.194 842.682C421.522 842.018 426.17 842.682 427.505 847.334C429.497 848.664 433.481 850.657 434.809 851.979C440.121 858.632 444.113 857.968 445.441 856.631C450.089 853.308 443.449 849.993 440.129 845.333C438.137 843.332 432.825 836.021 432.825 834.027C432.825 833.363 434.153 834.027 435.481 835.357C435.481 836.021 442.785 844.661 446.769 847.984C443.441 836.701 433.481 832.049 433.481 832.049ZM328.539 816.764C391.642 816.099 399.61 778.875 390.978 764.246C371.714 784.191 307.291 795.489 275.404 770.227C269.428 776.873 261.452 778.867 254.812 780.196C256.804 798.812 290.676 817.428 328.539 816.764Z" fill="white"/>
<path fill-rule="evenodd" clip-rule="evenodd" d="M286.027 737.655C287.355 750.282 282.043 761.588 279.38 765.575C285.356 770.227 297.315 778.867 324.547 779.531C365.73 780.196 409.561 760.258 384.986 726.349C374.369 740.313 321.898 752.276 286.027 737.655ZM231.564 733.667C241.524 724.363 242.196 712.393 237.54 703.753C236.22 702.417 234.884 700.431 232.9 699.094C230.908 716.381 206.332 729.672 190.389 718.374C196.365 742.972 220.94 743.636 231.564 733.667Z" fill="white"/>
<path fill-rule="evenodd" clip-rule="evenodd" d="M251.493 750.282C266.108 733.667 251.493 708.405 244.853 707.076C249.501 731.673 224.925 750.954 203.006 741.642C208.318 756.928 234.221 769.562 251.493 750.282Z" fill="white"/>
<path fill-rule="evenodd" clip-rule="evenodd" d="M231.564 765.575C244.18 778.866 278.06 778.202 280.052 746.959C281.379 725.684 272.084 713.722 257.468 709.734C274.74 742.307 254.148 764.903 231.564 765.575ZM258.132 798.812C252.156 834.714 299.971 846.005 328.539 845.348C377.026 843.346 387.65 820.086 384.994 806.122C354.442 830.055 289.355 827.396 258.132 798.812Z" fill="white"/>
<path fill-rule="evenodd" clip-rule="evenodd" d="M282.708 874.589C308.611 879.906 329.203 867.943 329.203 850.656C316.587 850.656 276.068 849.999 256.812 823.408C243.524 842.024 259.468 867.943 282.708 874.589Z" fill="white"/>
<path fill-rule="evenodd" clip-rule="evenodd" d="M317.907 875.263C294.66 887.225 262.78 878.586 250.828 853.988C233.557 881.244 262.116 905.841 283.372 904.512C309.275 903.175 316.579 886.561 317.907 875.263Z" fill="white"/>
<path fill-rule="evenodd" clip-rule="evenodd" d="M246.182 889.883C238.214 904.511 248.174 920.461 258.798 924.449C281.381 933.088 296.653 918.468 295.333 907.827C277.397 911.822 258.798 906.505 246.182 889.883ZM228.246 934.425C217.615 943.065 224.926 966.333 240.862 971.65C263.446 979.632 273.406 964.339 274.734 956.357C268.765 957.693 242.862 963.01 228.246 934.425Z" fill="white"/>
<path fill-rule="evenodd" clip-rule="evenodd" d="M257.468 928.444C245.516 922.462 238.204 913.151 237.54 900.523C220.269 917.81 234.884 945.058 250.828 950.375C282.707 961.673 293.995 934.425 291.339 926.442C278.723 935.089 263.444 931.767 257.468 928.444ZM371.713 1007.55L373.041 1008.22C370.385 1013.53 351.122 1018.19 343.146 1014.86C333.85 1010.22 335.835 1004.89 329.859 999.577C316.579 986.95 318.571 981.626 320.563 974.98C321.227 971.649 322.555 969.663 325.211 966.333C334.507 969.663 338.491 968.991 346.466 966.997C346.466 967.662 346.466 969.663 347.13 970.328C341.154 970.992 335.842 972.321 335.842 972.321L337.834 976.974C337.834 976.974 342.482 975.644 348.466 974.98C348.466 974.98 349.13 978.303 349.794 979.632C344.482 979.632 339.834 981.626 339.834 981.626L341.162 985.613C341.162 985.613 348.474 983.612 353.778 984.276C359.09 988.928 380.345 994.253 369.721 1005.55C365.737 1009.54 355.77 1010.87 347.802 1010.87V1012.2C349.13 1014.2 363.738 1014.86 371.713 1007.55ZM361.746 939.077C355.255 943.921 347.248 946.281 339.17 945.73C327.882 945.73 319.906 941.078 313.266 933.768C309.282 953.705 321.898 963.01 335.842 963.682C361.082 965.003 361.746 941.735 361.746 939.077Z" fill="white"/>
<path fill-rule="evenodd" clip-rule="evenodd" d="M338.5 941.071C365.731 941.735 373.707 919.132 368.395 909.155C353.115 927.771 317.916 923.784 310.612 900.516C301.308 917.146 316.58 941.071 338.5 941.071Z" fill="white"/>
<path fill-rule="evenodd" clip-rule="evenodd" d="M342.483 916.481C355.763 916.481 370.379 907.17 367.059 890.547C351.779 900.524 332.516 899.859 319.236 889.883C317.908 891.877 315.916 895.2 314.588 896.529C316.58 909.163 329.203 916.481 342.483 916.481Z" fill="white"/>
<path fill-rule="evenodd" clip-rule="evenodd" d="M325.882 869.946C325.218 870.61 324.554 871.275 323.89 871.275C323.89 875.927 322.562 881.916 321.234 885.896C339.834 901.854 379.025 891.877 376.369 859.312C363.074 872.604 341.818 875.927 325.882 869.946Z" fill="white"/>
<path fill-rule="evenodd" clip-rule="evenodd" d="M334.514 850.656C334.514 856.638 332.522 861.954 329.202 866.614C353.114 873.925 383.001 861.297 381.673 832.713C373.705 840.023 359.09 849.335 334.514 850.656ZM214.3 715.715C232.236 707.74 230.908 689.124 220.276 684.472C217.62 687.131 218.284 693.112 218.284 694.441C218.284 697.099 213.636 699.093 212.972 697.764C211.637 695.77 215.628 693.776 213.636 689.124C212.308 685.137 216.956 683.143 216.956 676.497C216.956 672.51 213.636 666.521 213.636 665.199C211.637 661.204 211.637 653.894 214.3 650.571C212.308 648.577 209.652 646.583 207.66 650.571C204.34 655.223 205.668 661.204 207.66 665.856C207.66 666.521 204.34 665.856 203.012 671.173L201.677 673.167H200.349C199.685 669.179 201.013 667.185 202.341 664.527C201.677 663.862 200.349 660.54 200.349 654.558C197.693 646.576 191.717 639.265 187.733 638.601C191.053 643.917 197.036 655.215 197.7 656.552C199.021 659.875 196.365 660.54 196.365 660.54C191.717 651.235 187.069 642.588 183.077 638.601C180.421 636.607 177.765 635.278 176.437 637.271C177.765 637.271 179.093 638.601 180.421 639.93C184.405 645.246 193.045 662.533 193.045 662.533C193.045 662.533 192.381 663.198 191.053 663.198C189.725 663.198 188.397 660.54 186.405 655.887C183.741 651.892 179.757 645.246 177.765 643.253C175.773 640.594 174.445 641.259 173.117 642.588C174.445 644.582 175.773 647.24 175.773 649.234C179.093 647.905 183.077 651.228 183.741 654.551C183.741 657.209 185.069 665.849 187.069 668.515C186.405 668.515 184.413 669.844 184.413 669.844C182.413 667.85 181.085 658.546 180.421 655.223C180.421 653.894 179.757 652.564 177.765 651.9C176.437 651.9 176.437 652.564 176.437 653.229C175.109 671.845 176.437 676.497 193.045 689.124C194.373 689.789 195.701 692.447 197.029 695.106C198.357 697.099 200.349 700.422 204.333 699.758L205.661 701.087C202.341 704.41 197.029 702.416 195.701 701.087C195.037 699.758 192.381 695.77 192.381 695.77C180.421 707.74 196.365 724.355 214.3 715.715ZM232.9 972.978C226.252 987.607 219.612 994.253 212.308 1004.89C206.996 1011.54 208.988 1014.86 212.308 1019.51C218.948 1026.82 230.244 1030.81 238.876 1028.16V1027.5C228.244 1028.16 219.612 1024.17 214.964 1017.52L215.628 1016.86C227.58 1026.16 243.524 1023.5 249.5 1020.18C251.492 1019.51 252.156 1017.52 252.156 1015.53C251.492 1010.22 248.836 1001.57 248.172 996.911C247.508 993.588 248.836 986.278 252.156 978.295C246.844 978.959 236.22 977.638 232.9 972.978ZM387.649 720.367C396.281 726.349 397.617 738.319 397.617 742.971C406.249 726.349 393.633 716.38 386.985 714.386C388.313 717.044 388.313 719.703 387.649 720.367ZM400.273 774.879C416.873 765.574 406.249 745.629 403.593 744.3C402.929 746.294 400.937 751.618 394.961 758.264C398.281 762.244 400.273 768.225 400.273 774.879ZM284.699 731.665C296.651 736.982 309.275 738.983 321.898 738.983C356.434 738.983 380.345 729.007 382.337 719.038C383.665 710.399 367.722 705.074 351.122 703.753C348.466 706.411 345.146 707.74 343.81 707.74C343.146 707.74 341.818 707.076 343.146 706.411C345.802 705.082 348.458 702.424 345.802 697.772C347.794 697.772 353.77 695.113 354.434 684.472C354.434 675.833 350.45 670.516 346.466 667.858C346.466 667.858 345.138 666.528 346.466 666.528C347.794 655.895 340.49 647.255 327.867 644.589V643.253C328.531 643.253 328.531 642.588 328.531 642.588C327.867 639.93 318.571 638.601 314.579 641.924C313.915 642.588 316.571 643.917 317.235 643.917C318.563 643.917 319.227 645.246 317.899 645.246C309.931 644.582 296.644 651.228 296.644 669.179C297.308 669.179 301.292 668.515 302.62 668.515C303.948 669.179 303.284 670.508 302.62 670.508C290.004 671.173 285.348 693.104 301.956 700.422C301.956 700.422 303.284 701.087 301.956 701.751C299.964 703.081 298.636 705.739 301.292 707.733C302.62 707.733 303.284 709.062 302.62 709.726C302.62 711.056 300.628 711.056 299.3 709.726C290.668 705.739 280.7 707.733 272.732 710.391C278.723 715.051 282.707 723.026 284.699 731.665Z" fill="white"/>
<path fill-rule="evenodd" clip-rule="evenodd" d="M198.358 675.826C197.694 676.498 195.702 674.497 193.71 673.167C191.718 672.503 189.062 672.503 189.062 671.838C189.062 671.838 191.054 671.174 193.046 671.174C194.374 671.174 195.702 671.838 197.03 671.838C197.694 673.167 199.022 675.161 198.358 675.826ZM242.198 996.912C238.214 995.583 232.23 994.918 228.91 994.918V990.266C232.894 990.93 238.878 991.595 243.526 992.932L242.198 996.912ZM244.854 988.272C238.878 986.278 237.542 986.278 230.902 985.614V981.626C238.206 981.626 240.198 981.626 246.174 983.62L244.854 988.272ZM339.164 685.138C338.5 685.138 337.836 685.138 337.172 685.802C325.22 683.808 321.9 686.467 315.252 686.467C315.252 685.802 315.252 684.473 313.924 684.473C313.924 685.138 313.261 685.802 313.261 685.802C311.269 688.461 310.605 689.79 311.269 690.454C311.933 691.119 313.26 689.79 313.924 689.125C314.588 689.125 317.244 689.125 319.9 690.454C321.892 691.783 325.876 697.1 329.86 695.106C333.18 693.777 335.836 688.461 337.828 688.461C339.156 688.461 340.484 689.125 340.484 688.461C341.156 688.461 339.828 684.473 339.164 685.138ZM329.868 693.113C325.884 694.442 323.884 689.79 320.564 688.461C323.884 687.796 329.86 687.131 335.18 687.796C333.852 688.461 330.532 692.448 329.868 693.113ZM334.516 654.559C330.532 655.224 327.876 660.54 327.876 667.186C328.54 671.174 329.868 675.161 332.524 677.163C333.852 677.827 335.18 678.492 336.508 678.492C340.492 677.827 343.812 672.511 343.148 665.865C343.148 661.877 341.156 657.89 339.164 656.56C338.581 655.909 337.864 655.392 337.061 655.046C336.258 654.7 335.39 654.534 334.516 654.559Z" fill="#040506"/>
<path fill-rule="evenodd" clip-rule="evenodd" d="M339.827 673.167C340.491 671.838 341.155 669.179 341.155 665.856C340.491 662.533 339.827 659.875 337.835 657.881C337.171 657.217 335.844 657.217 335.18 657.217C331.86 657.217 329.868 661.869 330.532 667.186V668.515C331.196 665.192 332.524 662.533 335.18 661.869C337.835 661.869 339.827 665.192 339.827 669.179V673.167Z" fill="white"/>
<path fill-rule="evenodd" clip-rule="evenodd" d="M315.915 655.223C311.931 655.888 308.604 661.205 308.604 667.858C308.604 671.845 309.932 675.168 312.587 677.827C313.915 678.491 315.243 679.156 317.235 679.156C321.219 679.156 324.547 673.175 324.547 666.529C324.547 662.541 323.219 659.218 320.563 657.225C319.981 656.572 319.263 656.055 318.46 655.709C317.657 655.364 316.789 655.198 315.915 655.223Z" fill="#040506"/>
<path fill-rule="evenodd" clip-rule="evenodd" d="M321.228 672.504C321.892 670.51 322.556 668.516 322.556 666.522C321.899 663.199 321.228 660.541 319.243 658.547C318.579 657.883 317.251 657.218 315.923 657.883C313.267 657.883 310.611 662.535 310.611 667.859C310.611 669.853 311.275 671.847 312.603 673.176C311.939 672.511 311.939 671.839 311.939 670.51C311.939 666.522 313.931 663.192 316.587 663.192C319.243 663.192 321.228 666.522 321.228 670.51V672.504Z" fill="white"/>
</g>
<defs>
<clipPath id="clip0_585_1772">
<rect width="1343.39" height="407.317" fill="white" transform="translate(159.93 627.969)"/>
</clipPath>
</defs>
</svg>
