<svg width="1664" height="1664" viewBox="0 0 1664 1664" fill="none" xmlns="http://www.w3.org/2000/svg">
<path d="M1227.09 576.432C1241.09 574.7 1255.69 577.077 1267.99 584.032C1285.08 593.356 1297.46 610.568 1300.55 629.576C1302.16 640.288 1301.5 651.456 1297.75 661.682C1292.51 676.436 1281.59 689.115 1267.68 696.648C1254.99 703.639 1239.88 706.174 1225.53 703.878C1210.7 701.578 1196.8 694 1186.9 682.882C1176.78 671.677 1170.86 656.878 1170.56 641.889C1170.13 627.735 1174.67 613.509 1183.22 602.129C1193.53 588.214 1209.71 578.62 1227.09 576.432ZM1232.79 584.637C1226.89 585.922 1222.69 590.902 1220.33 596.116C1218.58 600.09 1215.26 603.383 1211.15 604.943C1205.14 607.347 1198.53 604.916 1192.39 606.517C1187.01 608.051 1183.11 613.662 1183.97 619.17C1185.22 626.59 1191.28 632.426 1191.51 640.121C1191.97 644.438 1189.13 647.988 1187.33 651.65C1185.14 655.935 1183.42 660.924 1184.83 665.723C1186.95 671.109 1193.04 674.361 1198.8 673.806C1204.82 673.513 1211.57 673.4 1216.43 677.532C1220.83 681.907 1222.79 688.123 1227.37 692.363C1231.79 696.377 1239.13 696.765 1243.91 693.148C1249.86 688.664 1251.28 680.315 1257.71 676.314C1263.83 672.945 1271.08 674.943 1277.67 673.851C1283.11 673.152 1287.68 668.213 1287.52 662.755C1287.49 656.531 1283.05 651.664 1280.97 646.062C1278.94 641.858 1279.42 636.806 1281.66 632.787C1284.12 627.911 1287.56 622.954 1287.02 617.266C1286.41 611.276 1280.74 606.527 1274.71 606.414C1268.5 605.836 1261.4 607.568 1256.09 603.45C1250.36 599.693 1248.91 592.472 1243.87 588.114C1240.97 585.376 1236.79 583.834 1232.79 584.637Z" fill="white"/>
<path d="M685.054 658.76C704.739 656.31 725.147 660.501 742.239 670.415C763.861 682.792 779.987 703.658 787.399 727.086C795.608 752.747 793.675 781.479 781.769 805.723C771.58 826.711 753.852 844.248 732.06 853.423C712.82 861.637 690.657 862.954 670.573 857.049C649.94 851.109 631.832 837.735 619.504 820.487C605.001 800.406 598.358 775.169 600.415 750.663C602.334 725.868 613.388 701.741 631.571 684.393C645.987 670.505 664.98 661.146 685.054 658.76ZM686.025 709.765C675.654 712.093 666.249 718.02 659.492 726.071C650.825 736.27 646.546 749.842 647.43 763.089C648.268 777.889 655.745 792.3 667.825 801.245C677.94 808.926 691.303 812.327 703.942 810.279C717.135 808.29 729.11 800.41 736.549 789.553C744.383 778.34 747.37 764.082 745.038 750.699C742.615 736.143 733.64 722.661 720.685 715.146C710.401 709.057 697.716 707.109 686.025 709.765Z" fill="white"/>
<path d="M363.135 664.087C370.121 664.06 377.111 664.046 384.098 664.096C412.871 698.408 441.649 732.72 470.441 767.023C499.274 733.599 528.02 700.113 556.871 666.707C563.619 666.726 570.362 666.707 577.11 666.726C577.119 729.847 577.119 792.968 577.11 856.084C558.887 856.102 540.668 856.102 522.458 856.084C522.449 834.375 522.458 812.661 522.449 790.956C505.092 809.314 487.803 827.726 470.454 846.098C453.569 827.302 436.734 808.453 419.848 789.661C419.839 811.574 419.857 833.482 419.839 855.403C400.942 855.408 382.041 855.43 363.144 855.39C363.135 791.619 363.135 727.857 363.135 664.087Z" fill="white"/>
<path d="M816.702 666.725C823.225 666.698 829.744 666.725 836.267 666.707C867.799 694.357 899.257 722.092 930.779 749.751C930.797 722.282 930.769 694.821 930.788 667.356C947.884 667.384 964.994 667.235 982.077 667.433C982.031 730.523 982.068 793.621 982.059 856.706C976.433 856.747 970.817 856.715 965.187 856.724C932.332 827.978 899.541 799.156 866.672 770.405C866.672 799.399 866.658 828.402 866.681 857.396C850.015 857.432 833.363 857.414 816.697 857.405C816.702 793.851 816.702 730.288 816.702 666.725Z" fill="white"/>
<path d="M1002.98 668.678C1052.7 668.678 1102.43 668.669 1152.16 668.687C1152.16 683.761 1152.18 698.827 1152.14 713.901C1136.17 713.919 1120.2 713.892 1104.23 713.91C1104.21 761.745 1104.23 809.58 1104.21 857.414C1086.68 857.432 1069.14 857.432 1051.6 857.423C1051.57 809.796 1051.61 762.173 1051.58 714.546C1035.38 714.528 1019.18 714.546 1002.98 714.537C1002.97 699.251 1002.97 683.96 1002.98 668.678Z" fill="white"/>
<path d="M1084.32 891.374C1105.31 888.835 1126.58 890.269 1147.43 893.277C1145.87 907.463 1144.31 921.645 1142.7 935.821C1132.68 933.719 1122.45 932.578 1112.2 932.569C1099.22 932.479 1086.54 936.967 1075.61 943.656C1064.36 950.652 1055.19 961.504 1052.22 974.459C1048.62 990.183 1051.81 1007.73 1062.16 1020.44C1071.94 1032.36 1086.38 1040.15 1101.47 1043.34C1117.36 1045.78 1133.56 1044.5 1149.47 1042.8C1149.65 1056.61 1150.58 1070.44 1149.62 1084.22C1129.95 1087.18 1109.89 1088.36 1090.06 1086.4C1077.88 1084.94 1065.47 1082.37 1054.87 1076.04C1039.88 1068.6 1026.53 1057.85 1016.43 1044.63C1005.71 1030.61 999.415 1013.37 998.788 995.812C998.156 977.409 1000.67 958.428 1009.23 941.847C1014.82 930.896 1023.26 921.532 1033.1 914.103C1040.26 908.645 1048.17 904.243 1055.96 899.746C1064.6 894.807 1074.52 892.66 1084.32 891.374Z" fill="white"/>
<path d="M523.471 891.951C540.902 891.91 558.328 891.928 575.754 891.942C575.764 940.845 575.745 989.749 575.764 1038.66C589.727 1038.76 603.703 1038.5 617.657 1038.79C617.501 1054.08 617.648 1069.35 617.588 1084.65C586.103 1084.67 554.618 1084.65 523.137 1084.66C523.173 1020.42 523.416 956.186 523.471 891.951Z" fill="white"/>
<path d="M704.125 891.443C712.398 891.416 720.672 891.434 728.95 891.434C755.126 955.786 781.242 1020.17 807.391 1084.52C788.32 1084.47 769.254 1084.42 750.178 1084.41C739.065 1056.82 728.043 1029.19 716.943 1001.6C704.638 1029.25 692.283 1056.87 679.969 1084.51C661.787 1084.58 643.605 1084.61 625.428 1084.66C651.65 1020.24 677.899 955.845 704.125 891.443Z" fill="white"/>
<path d="M361.89 892.641C394.497 892.632 427.119 892.592 459.727 892.659C474.171 893.683 488.954 900.485 496.718 912.916C504.089 924.73 504.648 939.425 502.248 952.745C499.948 965.853 491.849 978.866 478.729 983.656C492.174 987.652 502.83 998.951 506.357 1012.27C509.454 1023.96 508.95 1036.56 505.221 1048.05C501.203 1060.43 491.698 1070.71 479.947 1076.46C471.266 1080.76 461.687 1083.44 451.962 1083.96C421.938 1083.98 391.918 1083.98 361.89 1083.96C361.881 1020.19 361.881 956.412 361.89 892.641ZM415.103 926.651C415.13 939.538 415.208 952.429 415.217 965.316C424.269 965.447 433.322 965.614 442.378 965.722C448.595 965.799 455.072 962.524 457.514 956.683C460.029 950.625 459.965 943.53 457.551 937.454C455.013 931.166 448.265 927.409 441.586 927.215C432.767 926.976 423.935 926.827 415.103 926.651ZM413.738 1002.29C413.729 1015.34 413.729 1028.39 413.738 1041.44C422.675 1041.42 431.613 1041.44 440.541 1041.27C448.082 1040.18 455.613 1035.37 457.954 1027.94C460.001 1021.31 458.971 1013.29 453.771 1008.29C448.989 1003.76 442.131 1002 435.644 1001.88C428.347 1002 421.044 1002.12 413.738 1002.29Z" fill="white"/>
<path d="M815.621 894.785C822.149 894.762 828.677 894.771 835.2 894.771C866.709 922.435 898.185 950.134 929.693 977.807C929.725 950.346 929.684 922.877 929.716 895.403C946.794 895.394 963.881 895.394 980.969 895.412C980.987 958.533 980.978 1021.65 980.978 1084.77C975.366 1084.79 969.754 1084.77 964.143 1084.78C931.274 1056.02 898.473 1027.2 865.6 998.443C865.595 1027.42 865.596 1056.41 865.596 1085.39C848.939 1085.43 832.282 1085.4 815.63 1085.4C815.621 1021.87 815.621 958.325 815.621 894.785Z" fill="white"/>
</svg>
