<svg width="1664" height="1664" viewBox="0 0 1664 1664" fill="none" xmlns="http://www.w3.org/2000/svg">
<path d="M831.627 1237.22C1055.63 1237.22 1237.22 1055.63 1237.22 831.627C1237.22 607.623 1055.63 426.031 831.627 426.031C607.623 426.031 426.031 607.623 426.031 831.627C426.031 1055.63 607.623 1237.22 831.627 1237.22Z" fill="#0032A0"/>
<path d="M646.675 760.805H611.91V834.591C581.449 807.275 551.054 779.959 519.848 752.693V902.449H554.613V828.664C583.617 854.407 614.757 883.295 646.691 910.561L646.675 760.805ZM723.771 902.399H689.006V760.805H723.771V902.399ZM813.88 910.511C789.246 864.158 764.579 810.9 739.945 760.756H779.081L813.846 837.471L847.321 760.756H885.662C861.79 811.033 837.851 864.091 813.929 910.561L813.88 910.511ZM995.603 791.746H936.767V816.181H995.669V847.073H936.767V871.359H995.669V902.251H901.968V760.706H995.669L995.603 791.746ZM1083.94 752.693C1060.02 799.908 1036.1 850.814 1012.17 902.449H1048.5L1055.73 885.48H1112.36L1119.63 902.449H1157.26C1132.46 850.814 1107.83 799.18 1083.94 752.693ZM1065.91 858.91L1083.94 817.721L1101.36 858.91H1065.91Z" fill="white"/>
</svg>
