<svg width="1664" height="1664" viewBox="0 0 1664 1664" fill="none" xmlns="http://www.w3.org/2000/svg">
<g clip-path="url(#clip0_585_1853)">
<rect width="1299" height="212.896" transform="translate(182.127 725.178)" fill="black" fill-opacity="0.84"/>
<path d="M312.01 820.675L311.482 822.041C320.276 825.919 340.017 841.299 340.017 872.279C340.017 901.453 315.483 930.847 276.923 930.847C228.953 930.847 212.421 902.731 212.421 876.907C212.421 843.811 235.505 821.776 235.505 791.633C235.379 780.972 231.649 770.67 224.924 762.409C218.2 754.148 208.878 748.418 198.483 746.154L197.692 747.52C201.461 751.187 204.452 755.579 206.485 760.433C208.518 765.288 209.55 770.504 209.519 775.769C209.519 808.335 182.127 831.472 182.127 868.842C182.127 903.26 206.134 938.338 275.648 938.338C337.599 938.338 370.268 907.931 370.268 875.584C370.224 847.821 350.394 824.332 312.01 820.675Z" fill="url(#paint0_linear_585_1853)"/>
<path d="M584.173 932.786L501.82 826.36V922.298L518.616 926.308V930.715H480.32V926.308L494.038 922.298V817.766C490.699 814.647 486.679 812.353 482.298 811.068C480.628 810.715 478.385 810.319 478.385 810.319V805.912H510.878L581.227 897.575V814.417L564.431 810.363V805.956H602.728V810.363L589.01 814.417V909.562C589.01 918.375 589.625 931.199 589.757 932.83L584.173 932.786ZM756.353 865.008C756.353 909.077 725.575 934.637 691.94 934.637C658.304 934.637 627.394 908.724 627.394 868.445C627.394 828.167 658.172 801.99 691.632 801.99C700.054 801.711 708.446 803.138 716.306 806.186C724.165 809.233 731.33 813.838 737.373 819.726C743.415 825.613 748.21 832.662 751.472 840.45C754.733 848.238 756.393 856.606 756.353 865.052V865.008ZM734.941 871.618C734.941 839.228 715.595 807.807 689.301 807.807C661.338 807.807 648.719 834.909 648.719 863.906C648.719 892.904 664.679 928.864 694.71 928.864C722.937 928.864 734.941 900.219 734.941 871.618ZM782.954 814.329L769.764 810.275V805.868H820.283V810.275L804.455 814.329L839.322 909.606L874.188 814.329L858.36 810.275V805.868H895.733V810.275L882.542 814.329L838.882 933.094H827.714L782.954 814.329ZM1081.5 866.991H1073.5V812.434C1099.88 812.434 1115.57 818.516 1115.57 840.109C1115.44 856.15 1101.72 866.991 1081.5 866.991ZM1307.54 926.308L1325.13 922.298V814.373L1307.54 810.319V805.912H1362.37V810.319L1344.78 814.373V922.298L1362.37 926.308V930.715H1307.54V926.308ZM1395.96 896.429H1399.43L1411.09 923.311C1418.01 926.798 1425.63 928.695 1433.38 928.864C1448.5 928.864 1462.31 920.05 1462.31 904.273C1462.31 892.287 1454.57 885.148 1442.04 878.581L1429.64 872.147C1414.82 864.435 1400.01 853.506 1400.01 835.923C1400.01 816.797 1413.2 802.034 1441.42 802.034C1451.34 802.135 1461.19 803.755 1470.62 806.837L1473.57 835.746H1469.83L1459.06 812.566C1453.48 809.445 1447.2 807.806 1440.81 807.807C1426.52 807.807 1416.8 816.621 1416.8 828.828C1416.8 839.889 1424.14 846.852 1436.72 853.374L1451.4 861.042C1471.45 871.442 1480.95 881.093 1480.95 898.941C1480.95 920.976 1460.33 934.681 1434.7 934.681C1422.63 934.865 1410.61 933.064 1399.13 929.349L1395.96 896.429ZM887.687 926.308L901.801 922.298L945.373 805.824L959.927 802.078L1004.91 922.254L1019.02 926.308V930.715H965.643V926.308L983.714 922.254L970.963 887.704H923.037L910.374 922.254L928.445 926.264V930.671H887.687V926.308ZM926.379 878.493H967.841L947.264 822.79L926.379 878.493ZM1106.65 869.679C1111.05 868.578 1135.71 862.276 1135.71 838.831C1135.71 820.014 1121.33 805.427 1085.9 805.427C1063.91 805.427 1041.93 805.912 1039.16 806V810.407L1053.62 814.461V922.254L1039.16 926.308V930.715H1090.34V926.308L1073.54 922.254V873.513H1088.01L1124.98 930.803H1157.74V926.396L1141.16 921.989L1106.65 869.679ZM1214.72 812.39V922.298L1197.14 926.308V930.715H1251.96V926.308L1234.38 922.298V812.434H1263.97L1273.73 833.499H1277.51L1274.7 806.044H1174.4L1171.59 833.499H1175.37L1185.04 812.654L1214.72 812.39ZM276.483 891.714L294.07 725.178H257.576L275.164 891.714H276.483Z" fill="#DADADA"/>
</g>
<defs>
<linearGradient id="paint0_linear_585_1853" x1="182.083" y1="842.224" x2="370.224" y2="842.224" gradientUnits="userSpaceOnUse">
<stop offset="0.3" stop-color="#848484"/>
<stop offset="0.899038" stop-color="#FEFEFE"/>
</linearGradient>
<clipPath id="clip0_585_1853">
<rect width="1299" height="212.896" fill="white" transform="translate(182.127 725.178)"/>
</clipPath>
</defs>
</svg>
