<svg width="1664" height="1664" viewBox="0 0 1664 1664" fill="none" xmlns="http://www.w3.org/2000/svg">
<g clip-path="url(#clip0_585_1857)">
<path d="M477.125 954.189C474.745 954.365 472.366 954.453 469.987 954.453C467.255 954.453 464.611 954.189 461.968 954.189L469.899 935.165L477.125 954.189ZM485.849 975.768C487.259 975.68 489.374 975.327 491.577 975.327C493.78 975.327 496.424 975.68 497.657 975.768C494.132 968.281 489.021 956.567 486.113 949.873C483.293 943.356 478.711 932.522 475.01 921.953C474.217 922.217 473.335 922.305 472.542 922.305C471.573 922.305 470.868 922.129 469.987 921.953C468.136 928.295 463.642 938.335 455.799 955.863L446.811 975.768C447.868 975.592 449.014 975.327 450.247 975.327C451.481 975.327 452.979 975.592 453.948 975.768C455.182 971.364 457.65 964.934 460.117 959.033C463.201 958.857 466.286 958.769 469.37 958.681C472.719 958.681 475.979 958.857 479.328 959.033L482.588 967.224L485.849 975.768ZM504.443 940.625C504.443 953.837 504.443 966.608 503.561 975.768C505.236 975.68 507.439 975.327 509.113 975.327C510.876 975.327 512.726 975.68 514.577 975.768C513.96 969.514 513.784 961.147 513.784 949.609C513.784 941.77 513.784 928.383 514.665 922.658C512.814 922.922 510.876 923.098 509.201 923.098C508.056 923.098 505.148 922.746 503.738 922.658C504.443 930.232 504.443 935.693 504.443 940.625ZM550.443 949.521C557.493 948.2 563.925 943.796 563.925 935.253C563.925 931.994 562.692 928.823 560.401 926.621C557.052 923.45 553.263 922.834 548.24 922.834C546.477 922.834 537.489 923.186 535.462 923.186C531.496 923.186 529.47 922.922 527.707 922.834C528.236 932.787 528.236 933.932 528.236 944.06C528.236 958.945 528.148 960.707 527.531 975.944C529.205 975.68 531.056 975.504 532.818 975.504C534.757 975.504 536.431 975.768 538.017 975.944C538.017 973.918 537.665 963.966 537.665 961.676V950.666H539.516C543.657 956.567 548.504 963.349 552.47 969.426C553.615 971.188 555.378 974.094 556.523 975.856C558.814 975.504 559.784 975.416 562.78 975.416C565.6 975.416 567.538 975.68 569.653 975.856C564.807 969.779 562.692 967.048 556.611 958.505C555.466 956.919 553.703 954.365 552.558 952.692L550.443 949.521ZM537.753 926.885C538.899 926.797 541.807 926.445 543.217 926.445C545.772 926.445 548.328 926.797 550.443 928.383C553.175 930.408 553.703 933.139 553.703 936.398C553.703 941.418 550.883 947.055 543.129 947.055C541.102 947.055 539.251 946.879 537.753 946.791V926.885ZM590.715 957.712C587.102 946.967 582.079 931.906 579.611 922.746C577.673 923.01 575.998 923.186 574.236 923.186C572.385 923.186 569.742 922.922 568.155 922.746C571.328 931.113 574.06 938.511 576.175 944.413C579.699 954.453 582.079 961.411 584.811 969.955L586.749 975.856C587.807 975.592 589.04 975.416 589.922 975.416C590.803 975.416 591.508 975.592 592.83 975.856C594.063 971.804 595.561 966.872 596.619 963.701C599.615 954.894 600.056 953.661 603.933 942.651L606.224 936.222C607.106 938.688 608.515 942.651 609.397 945.117C610.278 947.495 614.243 959.386 615.125 962.028C616.358 965.463 616.711 966.52 619.531 975.856C620.236 975.768 621.734 975.416 622.879 975.416C623.937 975.416 624.818 975.68 625.964 975.856C628.872 966.696 629.224 965.727 633.542 953.308C637.772 941.242 640.416 934.372 645.086 922.746C642.795 923.362 640.328 923.362 638.037 922.746C635.217 932.787 633.895 937.719 631.604 944.325C627.991 955.158 627.462 956.391 625.259 962.292C622.791 955.598 620.412 948.905 618.121 942.123C616.887 938.423 612.129 922.922 612.129 922.746C611.071 923.01 610.278 923.186 608.692 923.186C607.282 923.186 606.312 922.922 605.255 922.746C602.964 932.17 594.768 954.894 593.975 957.008L592.037 962.028L590.715 957.712ZM668.791 954.189C666.412 954.365 664.033 954.453 661.653 954.453C658.922 954.453 656.278 954.189 653.634 954.189L661.477 935.165L668.791 954.189ZM677.604 975.768C679.014 975.68 681.217 975.327 683.332 975.327C685.535 975.327 688.178 975.68 689.324 975.768C685.887 968.281 680.776 956.567 677.78 949.873C674.96 943.356 670.378 932.522 666.676 921.953C665.795 922.217 665.09 922.305 664.209 922.305C663.328 922.305 662.447 922.129 661.653 921.953C659.803 928.295 655.309 938.335 647.466 955.863L638.477 975.768C639.535 975.592 640.68 975.327 642.002 975.327C643.236 975.327 644.734 975.592 645.703 975.768C646.937 971.364 649.404 964.934 651.872 959.033C654.956 958.857 658.04 958.769 661.125 958.681C664.473 958.681 667.734 958.857 670.994 959.033L674.255 967.224L677.604 975.768ZM710.033 955.07C710.033 954.365 710.473 953.573 711.002 952.604C714.263 947.055 717.259 941.242 720.784 935.693C721.929 933.843 727.569 924.86 728.803 922.746C727.922 923.098 727.129 923.186 725.542 923.186C724.044 923.186 722.546 923.01 721.048 922.746C715.496 934.988 714.263 937.631 707.653 948.905C701.044 937.367 698.136 931.289 694.083 922.746C691.968 923.098 689.853 923.274 687.738 923.186C686.063 923.186 684.213 923.01 681.393 922.746C685.447 929.44 691.968 940.185 695.933 946.967L700.515 954.894C700.515 959.738 700.251 969.779 700.075 975.856C701.573 975.68 703.688 975.416 705.274 975.416C707.037 975.416 708.887 975.68 710.65 975.856C710.297 968.634 710.121 964.494 710.121 957.976L710.033 955.07ZM733.209 964.23C732.856 967.929 732.768 968.986 731.447 972.949C734.266 974.359 739.289 976.913 745.899 976.913C760.086 976.913 765.55 967.841 765.55 960.002C765.55 957.8 765.021 953.308 761.761 949.785C759.558 947.319 757.178 946.438 751.274 944.148C744.489 941.506 740.523 940.009 740.523 934.372C740.523 929.792 743.519 926.005 749.688 926.005C754.535 926.005 758.676 928.295 759.822 932.698H760.879C761.584 929.792 761.761 929.175 763.259 925.388C759.469 923.715 756.033 922.217 750.393 922.217C736.381 922.217 732.328 930.849 732.328 937.719C732.328 944.148 734.619 948.112 742.109 951.459C744.312 952.428 747.925 953.749 750.04 954.718C751.538 955.334 756.385 957.448 756.385 963.613C756.385 969.162 752.332 973.302 746.251 973.302C741.669 973.302 737.791 972.157 734.266 964.406H733.209V964.23Z" fill="#939EAF"/>
<path d="M303.347 821.28C303.347 762.798 334.719 747.032 358.336 747.032C396.405 747.032 412.884 778.563 412.884 812.208C412.884 831.497 410.593 849.553 401.075 864.174C391.558 878.794 375.784 887.602 358.6 887.602C315.685 887.602 303.347 846.734 303.347 821.28ZM418.964 940.8C425.926 935.956 436.853 929.879 444.696 926.444L392.263 893.855C424.516 882.493 444.696 853.692 444.696 814.498C444.696 758.834 402.221 735.142 358.777 735.142C311.895 735.142 271.535 761.124 271.535 820.135C271.535 832.642 274.355 856.335 293.83 876.064C314.01 896.498 337.98 899.492 358.16 899.492C360.715 899.492 363.271 899.492 365.826 899.228L418.964 940.8ZM552.999 831.497C545.773 831.938 538.811 832.466 531.585 832.466C523.478 832.466 515.547 831.761 507.439 831.497L531.144 774.424L552.999 831.497ZM579.259 896.233C583.401 895.969 589.922 894.824 596.443 894.824C602.964 894.824 611.071 895.969 614.596 896.233C604.11 873.686 588.865 838.719 579.964 818.462C571.593 798.997 557.669 766.497 546.566 734.701C544.01 735.406 541.719 735.846 539.163 735.846C536.344 735.846 534.052 735.406 531.497 734.701C525.945 753.726 512.462 783.936 489.022 836.341L462.056 896.233C465.317 895.793 468.577 894.824 472.543 894.824C476.244 894.824 480.65 895.793 483.646 896.233C487.347 883.022 494.838 863.733 502.24 845.854C511.493 845.413 520.834 844.973 530.087 844.973C540.045 844.973 549.826 845.413 559.784 845.854L569.478 870.427L579.259 896.233ZM682.275 778.563C682.275 769.756 682.539 760.948 682.715 752.581C698.753 752.581 715.232 752.845 728.891 754.166C728.186 750.467 727.746 748.353 727.746 745.799C727.746 743.949 728.186 740.955 728.891 736.991C706.596 738.136 686.152 738.4 666.941 738.4C649.052 738.4 623.32 738.136 604.991 736.991C605.696 739.81 606.137 742.804 606.137 745.535C606.137 748.265 605.696 751.348 604.991 754.078C616.888 752.933 639.094 752.493 641.209 752.493H652.842C653.106 761.564 653.282 769.668 653.282 778.299L653.547 843.035C653.547 860.65 652.137 878.53 651.255 896.145C659.627 895.265 663.064 894.736 667.029 894.736C669.849 894.736 677.252 895.441 683.949 896.145C683.244 889.628 682.363 881.965 682.363 864.35L682.275 778.563ZM811.462 831.497C804.236 831.938 797.274 832.466 790.137 832.466C782.029 832.466 774.098 831.761 765.991 831.497L789.696 774.424L811.462 831.497ZM837.723 896.233C841.865 895.969 848.386 894.824 854.907 894.824C861.428 894.824 869.535 895.969 873.06 896.233C862.573 873.686 847.328 838.719 838.428 818.462C830.056 798.997 816.133 766.497 805.029 734.701C802.474 735.406 800.183 735.846 797.627 735.846C794.807 735.846 792.516 735.406 789.96 734.701C784.409 753.726 770.926 783.936 747.485 836.341L720.52 896.233C723.78 895.793 727.041 894.824 731.006 894.824C734.707 894.824 739.114 895.793 742.11 896.233C745.811 883.022 753.213 863.733 760.704 845.854C769.956 845.413 779.297 844.973 788.55 844.973C798.508 844.973 808.29 845.413 818.248 845.854L828.029 870.427L837.723 896.233ZM966.558 817.317C987.707 813.353 1006.92 800.142 1006.92 774.424C1006.92 764.647 1003.22 755.135 996.255 748.441C986.209 738.929 974.841 736.991 959.773 736.991C954.397 736.991 927.52 738.136 921.439 738.136C909.631 738.136 903.55 737.432 898.263 736.991C899.849 766.937 899.849 770.196 899.849 800.582C899.849 845.413 899.585 850.434 897.734 896.145C902.845 895.441 908.397 894.736 913.773 894.736C919.589 894.736 924.7 895.705 929.282 896.145C929.282 890.068 928.401 860.21 928.401 853.428V820.488H933.953C946.466 838.103 960.918 858.537 972.727 876.857C976.163 882.229 981.274 890.773 984.799 896.145C991.761 895.265 994.581 894.736 1003.57 894.736C1011.94 894.736 1017.76 895.441 1024.28 896.145C1009.65 877.825 1003.39 869.722 985.064 843.916C981.539 839.072 976.516 831.409 972.991 826.477L966.558 817.317ZM928.489 749.586C931.926 749.322 940.562 748.441 944.968 748.441C952.635 748.441 960.301 749.586 966.558 754.254C974.665 760.331 976.34 768.611 976.34 778.387C976.34 793.448 967.792 810.447 944.527 810.447C938.447 810.447 932.895 810.007 928.489 809.742V749.586Z" fill="white"/>
<path d="M1313.59 817.757C1313.59 819.255 1292.61 820.664 1262.56 821.809C1257.27 818.814 1253.22 815.82 1250.31 813.177C1286.71 814.499 1313.59 816.084 1313.59 817.757ZM1292 767.113C1292 768.347 1274.37 769.492 1249.17 770.548C1252.87 768.347 1256.66 766.233 1260.45 764.207C1279.48 765.088 1292 766.057 1292 767.113ZM1104.38 876.064C1092.75 876.24 1082.53 876.24 1074.51 876.24C1063.05 876.24 1053.71 872.717 1053.71 868.313C1053.71 863.909 1063.05 860.386 1074.51 860.386C1084.64 860.386 1098.48 860.474 1114.25 860.651C1108.17 869.458 1105.26 874.743 1104.91 875.095L1104.38 876.064ZM1110.64 886.633C1114.43 891.213 1118.57 895.529 1123.06 899.404C1123.06 899.404 1124.91 902.047 1130.55 899.757C1136.28 897.378 1141.22 894.208 1146.68 886.897C1162.72 887.162 1179.73 887.514 1196.47 887.866C1197.88 889.892 1200.61 894.032 1204.05 899.14C1157.43 900.373 1106.76 901.078 1080.77 901.078C1069.93 901.078 1061.2 897.731 1061.2 893.591C1061.2 889.452 1069.93 886.105 1080.77 886.105C1088.7 886.105 1098.83 886.193 1110.46 886.281C1110.64 886.545 1110.64 886.633 1110.64 886.633ZM1092.57 925.563C1082.97 925.563 1075.21 922.568 1075.21 918.957C1075.21 915.346 1082.97 912.352 1092.57 912.352C1117.95 912.352 1169.95 913.144 1214.45 914.377C1216.56 917.46 1218.77 920.543 1220.79 923.361C1174.97 924.682 1119.19 925.563 1092.57 925.563ZM1240.53 946.701C1203.17 948.375 1138.84 949.432 1112.05 949.432C1104.56 949.432 1098.39 947.054 1098.39 944.235C1098.39 941.329 1104.47 939.039 1112.05 939.039C1137.6 939.039 1197.62 940.007 1235.51 941.593C1237.27 943.354 1238.95 945.116 1240.53 946.701ZM1142.98 960.705C1165.01 960.705 1232.25 962.379 1232.25 964.405C1232.25 966.43 1165.1 968.104 1142.98 968.104C1138.66 968.104 1135.22 966.43 1135.22 964.405C1135.14 962.379 1138.66 960.705 1142.98 960.705ZM1143.24 824.98C1115.49 825.42 1090.55 825.684 1074.6 825.684C1063.14 825.684 1053.8 822.161 1053.8 817.757C1053.8 813.354 1063.14 809.831 1074.6 809.831C1093.19 809.831 1123.77 810.183 1156.9 810.799C1152.14 815.379 1147.65 820.135 1143.24 824.98ZM1279.48 789.573C1295.78 790.454 1306.01 791.423 1306.01 792.391C1306.01 793.536 1293.58 794.593 1274.46 795.474C1278.51 792.391 1279.39 789.749 1279.48 789.573ZM1080.94 799.878C1070.1 799.878 1061.38 796.531 1061.38 792.391C1061.38 788.252 1070.1 784.905 1080.94 784.905C1103.15 784.905 1143.33 785.433 1183.69 786.314C1178.93 790.366 1174.26 794.417 1169.59 798.645C1134.17 799.437 1100.5 799.878 1080.94 799.878ZM1201.49 772.046C1160.25 773.103 1115.57 773.719 1092.57 773.719C1082.97 773.719 1075.21 770.813 1075.21 767.113C1075.21 763.502 1082.97 760.508 1092.57 760.508C1117.86 760.508 1169.77 761.3 1214.27 762.533C1212.07 764.119 1209.86 765.792 1207.57 767.466C1205.55 769.051 1203.52 770.548 1201.49 772.046ZM1112.14 747.032C1104.65 747.032 1098.48 744.742 1098.48 741.836C1098.48 738.929 1104.56 736.639 1112.14 736.639C1140.51 736.639 1211.27 737.872 1247.23 739.634C1244.94 741.131 1242.65 742.716 1240.36 744.214C1202.82 745.887 1138.75 747.032 1112.14 747.032ZM1072.39 851.138C1060.67 851.138 1051.24 847.527 1051.24 843.035C1051.24 838.632 1060.76 835.02 1072.39 835.02C1087.02 835.02 1108.96 835.197 1133.82 835.637C1129.59 840.569 1125.53 845.59 1121.65 850.786C1101.83 850.962 1084.55 851.138 1072.39 851.138ZM1135.14 721.666C1135.14 719.64 1138.57 717.967 1142.89 717.967C1164.92 717.967 1232.16 719.64 1232.16 721.666C1232.16 723.692 1165.01 725.365 1142.89 725.365C1138.66 725.365 1135.22 723.692 1135.14 721.666Z" fill="#747F8A"/>
<path d="M1315.79 837.046C1315.96 841.097 1315.96 845.061 1315.7 848.936C1276.57 850.521 1239.56 852.811 1239.56 855.454C1239.56 858.096 1275.78 860.386 1314.47 861.883C1313.76 866.287 1312.88 870.691 1311.82 875.007C1273.75 876.592 1238.42 878.882 1238.42 881.436C1238.42 883.902 1271.37 886.192 1307.94 887.69C1306.27 892.27 1304.42 896.85 1302.22 901.253C1270.84 902.751 1244.94 904.777 1244.94 906.978C1244.94 909.004 1267.58 910.942 1296.14 912.351C1294.55 914.905 1292.88 917.46 1291.11 919.926C1289.17 922.568 1287.24 925.21 1285.12 927.764C1267.23 929.086 1254.98 930.671 1254.98 932.344C1254.98 933.754 1263.79 935.075 1277.28 936.308C1269.35 944.059 1260.53 950.841 1250.93 956.389C1250.93 956.389 1238.86 945.996 1228.81 933.842C1219.91 923.008 1200.96 894.384 1196.56 887.954C1192.06 881.524 1189.15 879.675 1183.96 881.524C1176.99 883.99 1168.89 885.224 1166.33 885.224C1163.78 885.224 1162.45 884.255 1166.68 882.581C1170.83 880.908 1187.3 873.157 1195.41 857.039C1204.49 838.983 1196.47 813.97 1196.47 813.97C1193.38 827.357 1186.42 832.29 1186.42 832.29C1188.71 819.871 1186.25 808.685 1180.08 800.758L1176.64 816.436C1176.64 816.436 1174.53 816.348 1169.24 820.752C1163.95 825.244 1162.54 831.673 1162.54 831.673C1166.68 833.347 1171.71 829.207 1171.71 829.207C1165.27 853.076 1156.2 872.541 1149.5 882.846C1142.8 893.15 1137.34 897.026 1130.64 899.756C1125 902.046 1123.15 899.404 1123.15 899.404C1118.66 895.529 1114.43 891.213 1110.73 886.633C1110.73 886.633 1110.37 886.104 1111.43 886.104C1114.16 886.104 1119.1 881.436 1120.15 879.499C1121.39 877.297 1121.21 875.535 1120.6 875.447C1119.98 875.359 1118.92 877.121 1113.63 880.467C1108.35 883.814 1105.97 881.524 1104.2 879.675C1102.88 878.177 1104.2 876.328 1105 875.183C1105.79 874.126 1133.73 822.161 1207.57 767.465C1304.33 695.859 1366.19 676.482 1369.72 675.073C1372.1 674.192 1375.89 672.959 1376.77 673.84C1377.74 674.809 1378.18 675.69 1378.09 676.835C1378 677.98 1377.38 678.596 1372.89 680.534C1335.7 696.916 1292.35 724.132 1267.76 739.986C1237.45 754.782 1208.54 775.833 1207.48 776.361C1205.19 777.77 1206.87 779.884 1208.28 779.003C1259.48 745.006 1319.4 721.842 1385.76 702.817C1388.93 701.936 1390.69 701.936 1391.22 702.641C1391.84 703.434 1392.1 704.315 1392.19 705.283C1392.28 706.516 1391.31 707.133 1388.58 708.19C1317.37 734.613 1264.85 759.186 1231.1 781.91C1231.1 781.91 1227.58 784.024 1227.58 786.49C1227.58 787.459 1229.43 787.547 1229.43 787.547C1246.35 787.811 1268.91 788.868 1279.66 789.484C1279.66 789.484 1278.16 794.945 1267.85 799.349C1259.92 802.696 1252.51 802.167 1245.29 802.256C1243.7 802.256 1242.29 803.841 1243.61 805.602C1243.97 806.483 1259.48 831.409 1315.79 837.046ZM799.653 967.399H790.136C790.136 967.399 788.814 961.498 792.339 959.296C795.776 957.006 799.741 955.244 799.741 955.244L799.653 967.399ZM844.948 945.468C844.948 945.468 839.132 948.815 835.519 952.074C831.906 955.332 836.312 956.565 836.312 956.565V967.487H808.641V929.262C808.641 929.262 798.507 938.51 797.626 939.743C796.657 941.064 800.005 942.209 800.005 942.209L799.477 945.82C799.477 945.82 795.423 947.934 790.576 951.193C785.73 954.452 782.117 958.591 782.117 961.498C782.117 964.404 780.883 975.678 780.883 975.678H845.036V945.468H844.948ZM787.58 931.464C790.753 931.464 792.956 930.231 792.956 927.676C792.956 925.122 791.458 923.361 787.58 923.361C784.143 923.361 783.174 924.858 783.174 927.676C783.174 930.495 784.408 931.464 787.58 931.464ZM799.389 931.464C802.561 931.464 804.764 930.231 804.764 927.676C804.764 925.122 803.266 923.361 799.389 923.361C795.864 923.361 794.982 924.858 794.982 927.676C794.982 930.495 796.216 931.464 799.389 931.464ZM817.277 979.025C813.841 979.025 812.871 980.522 812.871 983.253C812.871 985.983 814.105 987.04 817.277 987.04C820.45 987.04 822.653 985.807 822.653 983.253C822.741 980.787 821.243 979.025 817.277 979.025ZM829.526 979.025C826.09 979.025 825.12 980.522 825.12 983.253C825.12 985.983 826.354 987.04 829.526 987.04C832.699 987.04 834.902 985.807 834.902 983.253C834.99 980.787 833.492 979.025 829.526 979.025ZM967.879 930.759C971.051 930.759 973.254 929.526 973.254 927.06C973.254 924.594 971.756 922.744 967.879 922.744C964.442 922.744 963.473 924.241 963.473 927.06C963.473 929.79 964.707 930.759 967.879 930.759ZM980.128 930.759C983.3 930.759 985.503 929.526 985.503 927.06C985.503 924.594 984.005 922.744 980.128 922.744C976.691 922.744 975.722 924.241 975.722 927.06C975.722 929.79 976.956 930.759 980.128 930.759ZM1013.97 931.816C1012.2 933.313 1012.73 935.075 1014.94 934.811V975.854H1024.1V924.77C1024.1 924.77 1015.73 930.319 1013.97 931.816ZM977.484 954.804H971.58C971.58 951.545 977.484 949.784 977.484 949.784V954.804ZM938.71 961.586C938.71 963.083 938.622 965.461 938.534 967.487H887.159V958.415C888.48 954.98 890.772 954.54 894.297 954.54H931.837C939.944 954.54 938.71 958.767 938.71 961.586ZM998.81 934.811V967.487H986.561V937.805C986.561 937.805 984.094 938.774 980.657 940.271C977.22 941.857 964.971 946.789 964.971 953.571V961.41H977.484V967.487H947.787C947.787 966.078 947.875 963.964 947.875 960.881C947.875 951.105 939.592 945.82 932.189 945.82H897.821C891.829 945.82 888.921 947.317 887.247 948.903V923.801C887.247 923.801 881.871 927.588 877.906 930.583C873.94 933.578 877.906 935.603 877.906 935.603V967.487H866.626L866.362 940.095C866.362 940.095 858.519 945.82 856.316 947.582C854.113 949.343 855.346 950.841 857.814 950.841C857.814 950.841 857.373 971.01 857.373 975.854C857.373 980.698 853.408 986.159 845.036 983.605C845.036 983.605 842.392 984.133 844.595 986.159C846.798 988.185 849.442 989.682 852.438 989.682C855.346 989.682 866.185 987.656 866.185 975.854H1007.89V924.858C1007.89 924.858 999.515 930.407 997.841 931.816C996.078 933.225 996.607 935.075 998.81 934.811Z" fill="white"/>
</g>
<defs>
<clipPath id="clip0_585_1857">
<rect width="1120.19" height="316.101" fill="white" transform="translate(271.535 673.576)"/>
</clipPath>
</defs>
</svg>
