<svg width="1664" height="1664" viewBox="0 0 1664 1664" fill="none" xmlns="http://www.w3.org/2000/svg">
<g clip-path="url(#clip0_585_1863)">
<path fill-rule="evenodd" clip-rule="evenodd" d="M902.004 1037.15C943.917 1037.14 985.831 1037.08 1027.74 1037.18C1027.81 1073.25 1027.88 1109.33 1027.71 1145.4H999.161C998.956 1134.91 999.009 1124.42 999.117 1113.93C963.081 1113.24 926.968 1113.95 890.91 1113.57C889.948 1124.1 890.834 1134.81 890.456 1145.4H861.927C861.538 1122.73 861.927 1100.03 861.732 1077.35C861.7 1066.91 864.066 1055.68 871.681 1048.06C879.459 1039.97 891.158 1037.39 902.004 1037.15ZM998.934 1058.25C968.795 1058.48 938.656 1058.26 908.529 1058.37C902.598 1058.45 895.911 1060.57 893.156 1066.29C889.333 1074.37 890.866 1083.59 890.456 1092.22C926.644 1092.44 962.854 1092.34 999.042 1092.27C998.967 1080.93 999.215 1069.58 998.934 1058.25Z" fill="white"/>
<path d="M1225.6 1037.1C1226.02 1044.17 1225.83 1051.27 1225.7 1058.35C1203.31 1058.33 1180.92 1058.35 1158.53 1058.34C1158.62 1087.36 1158.64 1116.38 1158.52 1145.4H1130.06C1129.47 1119.11 1129.98 1092.8 1129.79 1066.5C1129.48 1063.72 1130.78 1060.5 1129.12 1058.04C1124.38 1058.64 1119.61 1058.22 1114.85 1058.34C1097.5 1058.3 1080.14 1058.42 1062.78 1058.28C1062.7 1051.27 1062.67 1044.25 1062.77 1037.24C1117.04 1036.96 1171.32 1037.26 1225.6 1037.1Z" fill="white"/>
<path d="M475.275 1037.14C518.474 1037.2 561.684 1037.01 604.883 1037.22C604.894 1044.1 604.937 1050.98 604.85 1057.86C560.939 1058.25 516.994 1057.82 473.083 1058.07C469.529 1057.9 464.991 1059.35 464.224 1063.3C463.857 1066.34 463.63 1070.21 466.353 1072.31C468.805 1074.41 472.24 1074.42 475.286 1074.77C511.042 1077.75 546.809 1080.64 582.565 1083.63C590.872 1084.64 599.978 1086.16 606.136 1092.35C612.088 1098.24 613.255 1107.14 613.028 1115.12C612.942 1123.26 611.084 1132.08 604.926 1137.88C599.287 1142.68 591.704 1145.08 584.347 1144.63C537.227 1144.52 490.085 1144.78 442.965 1144.48C442.771 1137.66 442.577 1130.8 443.084 1123.98C487.32 1124.24 531.567 1124.03 575.803 1124.09C578.816 1124.18 582.155 1123.87 584.445 1121.69C587.145 1118.43 587.275 1113.57 585.536 1109.84C583.494 1106.58 579.4 1105.95 575.889 1105.74C544.541 1103.06 513.181 1100.49 481.822 1097.86C472.099 1096.91 462.064 1096.95 452.795 1093.48C447.059 1091.31 442.091 1086.95 439.93 1081.14C437.294 1075.17 438.655 1068.54 438.245 1062.26C437.705 1053.52 442.738 1044.57 450.754 1040.9C458.305 1037.07 467.011 1037.06 475.275 1037.14Z" fill="white"/>
<path d="M649.896 1037.17C705.151 1037.08 760.405 1037.16 815.66 1037.14C816.157 1037.19 817.14 1037.32 817.637 1037.39C817.626 1044.24 817.485 1051.12 817.68 1057.99C815.973 1058.59 814.137 1058.28 812.387 1058.35C767.827 1058.3 723.278 1058.4 678.728 1058.29C678.534 1065.3 678.674 1072.33 678.663 1079.35C711.362 1079.54 744.072 1079.37 776.771 1079.43C788.535 1079.63 800.353 1079.02 812.073 1079.75C811.976 1086.45 811.955 1093.17 812.084 1099.89C809.34 1100.34 806.543 1100.24 803.777 1100.23C762.058 1100.22 720.339 1100.24 678.621 1100.22C678.815 1106.13 678.102 1112.56 681.148 1117.9C684.302 1123.25 691.184 1123.95 696.79 1124.07C737.04 1124.1 777.29 1124.15 817.55 1124.05C817.68 1130.81 817.561 1137.58 817.594 1144.34C801.142 1144.95 784.603 1144.44 768.118 1144.63C739.697 1144.58 711.287 1144.66 682.877 1144.65C672.906 1143.92 662.482 1140.04 656.378 1131.77C651.042 1124.57 649.562 1115.32 649.789 1106.56C649.886 1083.43 649.67 1060.29 649.896 1037.17Z" fill="white"/>
<path d="M601.794 692.597C751.558 720.225 901.269 748.318 1051.01 776.108C1054.29 776.907 1057.79 776.972 1060.93 778.171L1061.31 779.035C1060.49 803.595 1060.01 828.177 1059.13 852.738C1058.55 867.891 1056.95 883.747 1049.15 897.096C1040.79 910.899 1025.22 918.536 1009.8 921.419C987.084 925.685 963.88 925.966 940.871 927.23C841.867 931.723 742.657 929.239 643.815 922.434C635.919 921.884 627.881 921.743 620.212 919.551C616.237 918.298 612.132 916.278 609.885 912.606C607.476 907.789 607.324 902.291 606.73 897.042C604.613 868.388 603.49 839.68 601.988 810.994C652.975 814.234 704.049 816.049 755.134 817.183C804.458 817.982 853.782 817.971 903.106 818.457C913.746 818.9 925.251 816.869 933.32 809.395C934.498 808.045 936.41 806.792 936.215 804.773C913.984 801.435 891.882 797.288 869.694 793.637C780.423 778.376 691.108 763.255 601.848 747.908C601.74 729.471 601.869 711.034 601.794 692.597Z" fill="white"/>
<path d="M753.956 520.846C840.397 517.801 926.925 520.825 1013.22 526.366C1022.3 527.154 1031.5 527.089 1040.45 529.001C1045.29 530.167 1050.52 532.014 1053.35 536.41C1055.93 541.195 1055.98 546.779 1056.65 552.05C1058.7 577.939 1059.31 603.936 1061.24 629.825C1057.5 630.278 1053.77 629.706 1050.03 629.587C983.476 626.142 916.868 623.279 850.206 623.193C815.682 623.29 781.114 622.955 746.622 624.629C738.261 625.86 728.798 628.658 723.969 636.111C750.068 640.744 776.112 645.744 802.2 650.464C888.663 666.644 975.19 682.467 1061.65 698.624C1061.58 715.02 1061.61 731.415 1061.64 747.81C1013.02 739.764 964.485 731.08 915.896 722.775C811.361 704.759 706.858 686.495 602.291 668.653C602.496 650.454 603.274 632.265 603.652 614.056C604.311 599.637 603.9 585.024 607.162 570.864C609.355 560.874 613.417 550.829 620.99 543.69C634.061 530.751 652.965 527.111 670.562 525.285C698.292 522.715 726.14 521.872 753.956 520.846Z" fill="white"/>
</g>
<defs>
<clipPath id="clip0_585_1863">
<rect width="789.979" height="627.654" fill="white" transform="translate(436.637 517.801)"/>
</clipPath>
</defs>
</svg>
