<svg width="1664" height="1664" viewBox="0 0 1664 1664" fill="none" xmlns="http://www.w3.org/2000/svg">
<g clip-path="url(#clip0_585_1866)">
<path d="M831.219 1205.86C1037.96 1205.86 1205.48 1038.33 1205.48 831.599C1205.48 624.862 1037.96 457.014 831.219 457.014C624.485 457.014 456.637 624.862 456.637 831.598C456.637 1038.32 624.485 1205.86 831.219 1205.86Z" fill="#000C0A"/>
<path d="M831.218 1196.46C1032.77 1196.46 1196.08 1033.15 1196.08 831.598C1196.08 630.046 1032.77 466.408 831.218 466.408C629.669 466.408 466.357 630.046 466.357 831.598C466.357 1033.15 629.669 1196.46 831.218 1196.46Z" fill="white"/>
<path d="M831.218 1185.44C1026.61 1185.44 1185.39 1026.99 1185.39 831.6C1185.39 635.88 1026.61 477.426 831.218 477.426C635.825 477.426 477.049 635.879 477.049 831.6C477.05 1026.99 635.825 1185.44 831.218 1185.44Z" fill="#000C0A"/>
<path d="M831.218 1052.59C953.379 1052.59 1052.21 953.441 1052.21 831.599C1052.21 709.436 953.38 610.28 831.218 610.28C709.058 610.28 609.904 709.436 609.904 831.599C609.904 953.44 709.058 1052.59 831.218 1052.59ZM872.049 513.069C881.441 526.357 882.742 544.828 880.15 560.7C877.237 575.286 865.57 584.358 852.282 588.572C831.543 591.163 806.271 596.347 787.801 576.583C777.432 562 777.432 543.529 781.316 525.059C786.504 505.295 809.185 500.11 827.655 498.811C843.86 498.812 860.381 501.406 872.049 513.069Z" fill="white"/>
<path d="M848.388 529.269C849.687 541.261 853.578 559.731 844.504 570.101C836.403 575.934 825.063 578.199 816.961 572.692C806.269 562.323 807.888 546.445 810.482 533.16C811.773 525.381 816.961 517.281 825.063 515.986C833.81 514.689 845.802 518.578 848.388 529.269Z" fill="#000C0A"/>
<path d="M1029.53 573.665C1035.04 589.544 1029.53 604.127 1021.75 617.087C1015.27 629.077 997.123 638.795 987.399 637.179C966.016 633.292 947.862 620.006 926.805 607.046L968.608 531.541C989.995 543.205 1016.24 550.01 1029.53 573.665Z" fill="white"/>
<path d="M1004.58 577.556C1005.88 589.544 1000.69 602.83 989.996 610.609C979.626 618.708 958.24 602.83 958.24 602.83L981.892 559.086C991.292 564.593 1001.99 567.187 1004.58 577.556Z" fill="#000C0A"/>
<path d="M575.557 648.84C567.777 657.916 558.38 666.017 557.086 677.68C557.086 681.57 560.647 686.429 565.184 685.781C578.15 675.086 591.432 652.731 609.903 657.916C619.298 657.916 628.373 667.312 630.964 675.086C636.474 698.741 619.298 718.834 603.422 734.386L588.843 725.313C599.534 715.914 615.088 701.661 608.603 687.077C588.194 677.031 584.951 714.62 563.889 714.62C554.491 714.62 541.854 708.139 538.615 697.448C538.615 697.448 537.318 690.965 537.318 686.752C536.995 679.299 540.234 671.198 543.8 664.394C547.687 657.915 551.902 652.731 551.902 652.731L563.89 639.445L575.557 648.84ZM537.319 671.198C534.402 671.524 529.217 672.173 525.979 672.495C526.627 670.227 529.543 663.101 529.543 663.101L539.912 661.481L535.05 653.053C537.318 649.814 538.937 646.25 541.209 643.01L547.038 653.702L537.319 671.198ZM1129.66 688.052L1064.85 760.309L1052.54 734.062L1068.09 719.155L1050.59 689.024L1030.83 693.557L1015.91 672.495L1110.86 656.616L1129.66 688.052Z" fill="white"/>
<path d="M1078.46 705.87L1066.79 684.809L1106.64 677.031L1078.46 705.87Z" fill="#000C0A"/>
<path d="M696.744 1121.28L676.98 1108.64L681.193 1094.72L663.368 1081.43L650.407 1090.18C645.223 1085.64 640.361 1081.11 635.502 1076.57L687.023 1038.33L713.595 1054.21L696.744 1121.28ZM1010.41 1067.5C1015.27 1078.51 1011.7 1090.18 1003.6 1096.66C993.234 1107.35 981.246 1113.83 966.668 1112.54C953.705 1111.23 943.01 1097.95 939.125 1087.58C936.53 1076.89 936.53 1065.54 944.306 1058.42C954.995 1049.02 965.371 1042.86 979.949 1041.25C993.234 1041.25 1005.23 1055.83 1010.41 1067.5Z" fill="white"/>
<path d="M686.696 1082.08L674.385 1073.32L691.884 1058.74L686.696 1082.08ZM990.644 1077.22C994.855 1086.61 990.317 1095.36 980.27 1096.97C966.667 1099.57 962.125 1084.67 957.589 1076.89C953.704 1069.11 958.887 1058.42 967.965 1057.12C981.247 1054.53 985.457 1069.44 990.644 1077.22Z" fill="#000C0A"/>
<path d="M766.088 1121.61C765.765 1128.41 778.402 1132.95 782.938 1125.82C784.558 1120.96 788.772 1096.97 791.364 1082.4C798.166 1084.02 805.945 1085.64 811.127 1086.94C809.51 1097.95 807.89 1128.73 794.604 1140.41C785.528 1147.2 770.949 1143.32 761.553 1140.41C740.489 1132.94 744.054 1115.45 744.054 1115.45L753.775 1074.62L773.866 1078.83L766.088 1121.61ZM886.954 1093.74L896.351 1140.73L875.612 1144.94L866.215 1097.63L850.013 1101.51L846.773 1087.25L900.563 1075.27L904.452 1089.53L886.954 1093.74Z" fill="white"/>
<path d="M869.778 645.6C926.16 706.196 957.269 788.175 932.965 875.015C932.965 875.015 925.835 895.753 923.893 904.18C922.269 912.604 922.595 919.082 922.595 919.082C925.183 924.596 933.61 926.211 939.123 924.915C944.625 919.408 934.907 912.281 940.415 905.476C967.638 902.883 990.317 922.003 1010.73 939.823C992.913 961.541 966.016 982.268 938.472 975.469C934.588 969.96 947.219 962.832 938.799 957.324L738.22 956.993C732.387 957.324 721.696 974.5 715.537 976.122C706.79 978.063 692.208 977.732 688.319 975.47C679.892 967.037 677.95 953.44 672.443 943.711C666.932 931.725 641.981 919.41 646.194 910.337C648.139 907.097 696.098 899.968 726.88 910.982C738.543 916.17 750.536 926.862 762.847 923.619C763.492 923.295 764.467 922.974 765.115 921.354C768.355 883.764 741.137 842.288 701.279 823.172C689.613 817.661 681.192 816.364 669.849 817.338C657.859 817.983 645.222 819.28 637.124 813.451C630.317 808.266 631.614 790.767 636.798 773.593C639.389 765.818 642.954 757.391 646.519 750.59C662.722 714.943 713.919 752.854 720.721 756.42C729.473 760.956 738.543 770.677 741.137 758.04C740.488 749.939 724.612 742.164 714.243 736.654C683.783 720.454 664.341 724.342 674.061 705.871C676.978 700.364 686.696 687.727 699.985 676.383C713.594 664.395 730.764 653.053 743.404 651.435C766.086 649.167 790.388 681.245 790.388 681.245L819.23 713.324C824.739 716.564 827.976 712.999 828.624 710.734C830.244 705.871 825.711 700.684 825.711 700.684C825.711 700.684 812.425 684.484 805.295 677.358C798.494 670.228 778.402 651.112 778.402 651.112C770.623 637.503 785.205 633.289 793.303 631.99C819.551 629.397 848.387 622.271 869.778 645.6Z" fill="#676767"/>
<path d="M870.424 908.392C887.272 908.392 900.887 894.783 900.887 877.933C900.887 861.083 887.272 847.151 870.424 847.151C853.577 847.151 839.968 861.082 839.968 877.933C839.967 894.785 853.577 908.392 870.424 908.392ZM695.771 575.608C711.325 585.331 730.764 591.81 746.321 602.83L719.75 615.465L673.091 591.164L673.739 541.588L697.718 528.947C700.304 542.237 696.097 561.027 695.771 575.608ZM676.979 643.659L628.697 571.396L648.787 557.139L697.391 628.428L676.979 643.659Z" fill="white"/>
</g>
<defs>
<clipPath id="clip0_585_1866">
<rect width="750.128" height="749.227" fill="white" transform="translate(456.562 457.014)"/>
</clipPath>
</defs>
</svg>
