<svg width="1664" height="1664" viewBox="0 0 1664 1664" fill="none" xmlns="http://www.w3.org/2000/svg">
<g clip-path="url(#clip0_585_1741)">
<path fill-rule="evenodd" clip-rule="evenodd" d="M771.767 665.327C782.876 674.722 793.984 693.798 805.661 723.123L819.333 757.572L813.352 770.385C799.964 799.709 782.02 814.228 760.089 814.228C746.701 814.228 735.876 810.243 727.615 802.555C719.356 794.298 710.525 778.64 701.411 756.149L688.308 723.123C677.484 696.075 666.659 677.284 656.123 666.466C645.014 654.792 628.206 646.82 606.273 642.549V641.695H682.325C724.196 641.695 753.82 649.667 771.763 665.325" fill="#FFA700"/>
<path fill-rule="evenodd" clip-rule="evenodd" d="M1044.64 643.121C1022.71 647.391 1005.9 655.364 994.223 667.321C983.684 678.424 972.862 697.215 962.037 723.693L949.219 756.719C931.843 800.849 905.355 823.056 869.465 823.056H777.178V822.486C790.85 818.784 802.812 809.674 813.067 795.154C819.048 786.33 825.315 773.517 831.865 756.719L844.683 723.693C856.361 694.083 867.756 674.722 878.58 665.612C896.81 649.953 926.718 642.266 968.018 642.266H1044.64V643.121Z" fill="#FF1A00"/>
<path fill-rule="evenodd" clip-rule="evenodd" d="M508.871 812.51C488.078 812.51 471.284 818.216 457.898 829.889C444.509 841.276 437.661 856.081 437.661 874.019C437.661 897.932 452.734 917.851 482.642 933.51C504.291 945.183 515.102 956.309 515.102 966.845C515.102 981.364 506.568 988.731 489.763 988.731C472.673 988.731 455.309 979.076 437.365 959.43V1006.11C456.449 1015.5 474.667 1020.05 492.612 1020.05C513.689 1020.05 530.791 1013.79 544.179 1001.54C557.281 989.015 563.821 972.835 563.821 952.905C563.821 928.991 549.853 909.333 522.223 894.244L496.586 879.711C489.181 874.304 485.491 867.731 485.491 860.613C485.491 848.087 492.338 841.869 505.726 841.869C523.672 841.869 538.221 851.242 549.045 869.747V819.923C535.943 815.084 522.543 812.51 508.871 812.51ZM737.572 829.296C713.931 829.296 695.713 837.837 682.326 854.919C669.508 872.286 662.98 895.656 662.98 925.266C662.98 955.158 669.508 978.518 682.326 995.316C695.715 1012.68 713.933 1021.47 737.572 1021.47C761.214 1021.47 779.728 1012.68 793.114 995.316C805.934 977.948 812.52 954.591 812.52 925.266C812.52 861.206 787.419 829.296 737.572 829.296ZM1032.38 830.184C1007.03 830.184 986.534 839.878 971.436 858.953C956.91 876.888 949.48 898.788 949.48 925.264C949.48 953.451 956.351 976.228 970.31 993.595C983.982 1011.24 1002.22 1020.05 1024.73 1020.05C1044.38 1020.05 1062.02 1012.98 1078.25 998.458L1063.41 977.106C1055.16 985.931 1045.79 990.154 1035.82 990.154C1011.33 990.154 999.089 968.54 999.089 925.266C999.089 880.567 1010.74 858.063 1034.1 858.063C1049.2 858.063 1062.02 868.619 1072.55 889.973V836.709C1060.88 832.44 1047.48 830.184 1032.38 830.184ZM558.124 833.863L553.021 866.901L580.08 864.35H589.457V981.08C589.457 997.876 588.627 1009.55 587.201 1016.67H637.879C636.455 1009.55 635.92 997.876 635.92 981.08V864.35H645.297L671.765 866.899L667.254 833.863H558.124ZM819.346 833.863C820.77 840.981 821.303 852.652 821.303 869.452V981.08C821.303 997.876 820.77 1009.55 819.346 1016.67H870.022C868.598 1009.55 868.065 997.876 868.065 981.08V941.518H869.726C876.847 941.518 881.986 946.322 885.688 956.286L899.099 991.875C905.65 1008.39 915.312 1016.67 928.414 1016.67H975.116C964.008 1014.1 952.934 999.276 941.825 971.947C932.427 948.315 923.298 934.933 914.469 932.086C935.263 922.122 945.504 906.213 945.504 884.576C945.504 850.696 927.263 833.863 891.089 833.863H819.346ZM1080.51 833.863C1081.93 844.397 1082.52 856.354 1082.52 869.452V981.08C1082.52 994.462 1081.93 1006.13 1080.51 1016.67H1130.65C1129.23 1006.13 1128.69 994.462 1128.69 981.08V964.531L1141.75 942.941L1157.71 981.909C1162.27 993.012 1165.71 1004.42 1168.27 1016.67H1226.07C1218.86 1005.71 1212.76 994.07 1207.85 981.909L1172.25 897.625L1189.63 869.747C1199.6 853.519 1207.58 841.55 1213.85 833.863H1169.7C1165.71 842.974 1159.12 854.93 1150.29 869.452L1128.69 905.336V869.452C1128.69 856.354 1129.23 844.397 1130.65 833.863H1080.51ZM737.572 856.639C754.663 856.639 763.208 879.427 763.208 925.266C763.208 970.819 754.663 993.595 737.572 993.595C720.768 993.595 712.53 970.819 712.53 925.266C712.53 879.427 720.768 856.639 737.572 856.639ZM868.065 860.613H873.76C890.568 860.613 899.099 869.475 899.099 887.126C899.099 905.631 889.391 915.005 870.024 915.005H868.065V860.613Z" fill="white"/>
</g>
<defs>
<clipPath id="clip0_585_1741">
<rect width="788.754" height="379.864" fill="white" transform="translate(437.25 641.695)"/>
</clipPath>
</defs>
</svg>
