<svg width="1664" height="1664" viewBox="0 0 1664 1664" fill="none" xmlns="http://www.w3.org/2000/svg">
<g clip-path="url(#clip0_585_1737)">
<path d="M1205.3 813.407H1298.45V906.455H1205.3V813.407ZM925.862 813.407H1019V906.455H925.862V813.407ZM646.412 813.407H739.562V906.455H646.412V813.407ZM587.118 962.701C587.118 992.219 591.431 1011.38 600.087 1020.21C607.405 1027.74 619.875 1032.37 637.36 1034.1C642.544 1034.54 651.434 1034.74 663.983 1034.74V1060.6H439.538V1034.74C457.567 1034.74 470.848 1033.88 479.442 1032.16C496.833 1028.5 507.793 1018.38 512.293 1001.78C514.644 993.183 515.843 980.15 515.843 962.701V624.643C477.761 625.717 447.977 638.313 426.476 662.45C406.049 685.545 393.594 720.895 389.063 768.516L364.807 764.333L369.322 602.652H734.2L738.73 764.333L714.442 768.516C709.927 720.895 697.363 685.545 676.858 662.45C655.249 638.313 625.325 625.716 587.118 624.643V962.701ZM365.249 813.407H458.399V906.455H365.249V813.407Z" fill="white"/>
</g>
<defs>
<clipPath id="clip0_585_1737">
<rect width="933.64" height="457.949" fill="white" transform="translate(364.807 602.652)"/>
</clipPath>
</defs>
</svg>
