<svg width="1664" height="1664" viewBox="0 0 1664 1664" fill="none" xmlns="http://www.w3.org/2000/svg">
<path d="M1144.83 724.167C1149.66 723.673 1156.31 723.197 1161.04 724.184C1163.78 724.756 1166.53 726.102 1168.06 728.534C1169.2 730.346 1169.5 732.475 1169 734.55C1168.2 737.964 1165.5 740.646 1162.61 742.44C1150.88 749.698 1111.26 756.667 1098.13 754.44C1093.8 753.707 1090.66 749.797 1086.48 748.865C1081.31 747.712 1072.29 750.286 1067.01 751.157C1024.87 758.115 974.37 773.041 938.272 796.096C949.617 799.403 961.984 797.22 973.642 796.765C1012.02 795.266 1057.11 794.186 1091.23 814.64C1100.03 819.919 1108.9 827.184 1111.47 837.619C1113.19 844.603 1112.1 851.446 1108.39 857.571C1088.36 890.559 1005.06 911.982 968.664 920.877C942.553 927.259 847.854 948.585 826.599 935.456C824.248 934.003 822.576 931.976 821.945 929.257C821.126 925.721 822.372 921.999 824.246 919.009C841.361 891.7 946.737 861.782 980.129 854.202C996.194 849.209 1019.89 843.641 1036.3 846.587C1032.95 849.751 1029.66 853.178 1025.27 854.832C1017.75 857.661 1009.1 858.788 1001.26 860.669C991.336 863.047 981.446 866.081 971.67 868.997C943.689 877.344 916.375 888.537 889.663 900.245C877.59 905.537 864.941 910.813 853.331 916.982C851.251 918.088 848.966 919.22 848.257 921.559L849.423 922.519C860.696 925.477 890.048 919.168 902.691 917.276C912.317 915.835 921.997 914.734 931.622 913.227C964.96 908.013 997.908 898.524 1029.84 887.81C1039.94 884.422 1050.39 881.391 1060.02 876.806C1070.76 871.691 1084.59 863.251 1091.58 853.611C1093.81 850.522 1095.31 846.866 1094.66 842.994C1093.47 836.002 1087.01 831.004 1081.15 827.834C1055.69 814.067 1006.95 814.448 977.971 815.161C962.664 815.537 946.948 816.729 931.683 815.483C926.079 815.026 918.738 814.159 914.061 810.739C912.041 809.264 910.742 807.391 910.394 804.89C909.931 801.575 911.469 798.306 913.417 795.72C937.34 764.002 1058.38 736.714 1099.6 729.623C1114.51 727.059 1129.82 726.236 1144.83 724.167ZM556.363 727.438C561.956 726.534 636.992 726.492 643.003 727.635C644.42 727.904 645.451 728.297 646.277 729.562C647.598 731.587 647.597 735.074 647.087 737.346C646.022 742.087 641.203 744.793 636.751 745.624C626.095 747.613 613.776 743.904 602.878 743.574C587.625 743.113 572.166 744.466 556.862 744.476C539.84 744.488 522.846 744.125 505.823 744.602C499.701 744.774 493.311 744.671 487.233 745.391C483.048 745.886 478.718 747.019 475.129 749.282C452.085 763.81 436.141 841.463 429.787 869.691C446.746 860.366 458.066 837.603 472.469 824.643C477.591 820.035 486.43 821.509 485.977 826.591C484.443 843.777 476.452 857.178 474.914 874.951C500 872.328 494.95 838.969 528.079 829.1C534.005 827.334 544.352 824.922 550.117 828.096C556.435 831.573 554.335 840.555 556.047 846.391C556.474 847.844 557.34 849.361 558.743 850.067C564.33 852.878 574.978 842.236 580.784 840.35C582.834 839.684 584.965 839.212 586.963 840.244C587.226 840.592 587.927 841.318 588.061 841.697C589.406 845.522 575.736 863.887 576.426 873.21C576.558 874.993 577.169 875.66 578.435 876.775C579.001 876.871 579.645 876.981 580.366 877.103C587.477 869.791 593.358 861.255 600.73 854.142C605.549 849.75 613.202 841.664 620.417 844.08C624.401 845.414 627.064 850.536 625.688 854.385C624.356 858.107 621.373 861.903 620.141 865.757C619.505 867.747 618.816 869.198 619.691 871.115C627.132 870.73 640.325 844.298 651.814 843.637C666.431 842.796 655.296 861.59 656.635 869.424C657.759 871.212 657.146 870.732 659.186 871.314C665.219 870.178 672.358 854.934 677.38 848.681C681.471 843.49 686.35 838.973 691.839 835.293C699.375 830.343 711.233 826.234 720.154 828.126C737.698 831.845 731.245 859.382 728.208 871.365C727.377 874.644 726.996 877.024 728.837 879.842C734.459 883.618 748.662 878.872 752.585 874.208C761.752 863.306 726.561 851.838 747.949 839.57C763.552 830.621 784.142 822.303 802.05 820.402C825.597 817.902 828.97 837.315 806.707 840.853C804.757 841.133 798.157 837.463 793.061 837.795C786.214 838.24 757.722 844.788 758.307 852.97C763.402 860.804 803.856 856.257 803.95 875.541C804.11 908.082 754.135 926.879 728.435 934.728C711.954 939.762 688.934 934.349 705.768 913.867C708.866 910.098 722.325 901.146 722.024 897.194C720.287 896.052 705.668 890.676 702.636 889.469C690.641 893.081 677.337 904.893 666.366 892.062C660.18 893.279 655.563 894.549 649.246 894.25C641.776 892.769 638.882 888.231 633.9 882.838C620.201 889.413 615.02 903.185 600.564 887.979C592.05 890.196 587.301 894.273 579.763 897.133C560.056 904.609 558.178 877.1 554.545 865.274C554.371 864.708 553.609 864.499 553.082 864.247C544.57 867.121 537.525 883.573 529.541 889.975C516.521 900.416 505.758 903.314 493.577 889.382C484.042 891.729 477.529 897.99 468.133 899.603C453.735 902.075 452.744 884.006 451.667 874.211C440.791 879.811 433.984 892.223 423.806 899.349C412.867 907.006 403.933 897.457 406.368 887.542C413.461 858.664 421.264 825.289 431.053 797.659C434.706 787.583 438.465 777.545 442.331 767.549C444.634 761.583 448.254 753.144 449.475 747.106C409.439 746.231 368.06 750.672 328.24 754.966C311.583 756.762 293.954 761.172 277.993 766.159C301.36 767.51 323.313 767.768 346.689 766.896C363.008 766.288 379.257 767.328 395.675 765.662C406.161 764.598 413.644 758.517 423.96 758.237C430.332 758.156 434.789 764.797 433.434 770.695C428.667 781.664 414.758 784.164 409.642 795.799C395.497 827.965 385.222 862.266 380.782 897.173C380.308 900.041 379.639 906.94 376.905 908.578C362.675 917.105 361.584 904.129 362.615 893.847C363.337 887.725 363.769 879.798 365.854 874.062C372.174 856.671 377.452 839.603 382.536 821.847C386.529 807.9 391.832 799.438 393.332 784.102C386.94 783.745 380.413 783.899 373.989 783.543C366.824 783.568 358.947 782.332 351.854 782.588C328.045 783.739 304.182 783.701 280.369 784.319C268.048 784.64 217.535 786.139 213.119 771.793C213.119 770.112 213.709 768.977 214.809 767.728C228.294 752.42 341.549 739.288 364.274 737.37C381.118 735.948 397.965 735.427 414.831 734.511L556.363 727.438ZM765.798 877.05C763.085 881.527 760.521 885.328 756.589 888.85C747.744 896.774 729.324 904.44 723.654 913.933C722.565 915.756 722.205 918.063 721.794 920.127C726.403 919.508 730.98 918.9 735.385 917.325C749.808 913.735 771.595 905.195 779.473 892.047C780.702 889.995 781.609 887.512 780.96 885.112C780.35 882.861 778.476 881.269 776.512 880.172C773.259 878.355 769.417 877.71 765.798 877.05ZM1251.72 743.515C1256.78 743.284 1260.79 748.31 1259.6 752.784C1253.31 776.465 1246.06 800.503 1238.73 823.869C1233.83 839.516 1228.24 854.242 1223.8 870.026C1235.64 864.432 1253.83 847.62 1267.86 851.1C1275.53 853.001 1279.47 870.259 1283 877.611C1285.2 875.824 1286.96 873.822 1288.75 871.675C1293.92 865.49 1299.47 859.416 1305.91 854.653C1315.55 847.522 1331.39 843.313 1338.95 855.685C1340.77 858.667 1343.15 861.874 1345.28 864.821C1359.47 870.835 1418.49 864.405 1437.1 866.729C1451.1 865.404 1455.88 881.356 1441.08 881.502C1412.78 881.781 1381.49 878.579 1353.47 885.059C1332.76 889.848 1326.76 912.727 1305.38 919.398C1293.35 921.326 1287.08 915.147 1282.44 904.891C1279.88 899.248 1277.27 893.159 1275.47 887.241C1271.94 890.202 1267.69 895.442 1263.67 898.809C1249.45 910.718 1234.27 920.306 1214.95 917.123C1207.43 915.885 1201.33 913.618 1194.02 912.42C1189.23 911.634 1184.18 912.491 1178.88 911.975C1173.94 911.497 1164.97 907.069 1161.62 907.381C1153.25 908.161 1145.2 914.755 1135.83 915.443C1128.93 915.95 1122.52 914.2 1116.94 909.954C1113.68 907.481 1112.18 903.953 1111.71 900.042C1110.63 890.999 1118.77 878.298 1124.66 871.767C1134.48 860.86 1151.62 844.25 1166.71 842.803C1170.39 842.451 1175.92 843.717 1178.45 846.288C1189.28 857.27 1180.31 870.796 1180.66 883.352C1180.77 885.996 1181.62 887.959 1183.43 889.756C1185.82 892.133 1194.34 890.945 1196 888.405C1202.92 877.78 1205.76 864.553 1209.65 852.614C1214.73 837.015 1220.27 821.589 1225.87 806.168C1232.53 788.42 1240.11 757.657 1251.72 743.515ZM1327.03 866.523C1325.75 866.131 1324.8 866.177 1323.51 866.342C1312 869.28 1302.45 877.103 1296.43 887.282C1294.27 890.946 1292.12 895.34 1293.24 899.686C1293.73 901.555 1294.74 902.999 1296.42 903.964C1297.06 904.328 1297.73 904.663 1298.39 904.97C1304.75 904.991 1309.85 901.741 1314.24 897.389C1320.52 891.165 1328.08 879.454 1328.07 870.325C1328.07 868.89 1327.93 867.691 1327.03 866.523ZM1257.26 867.595C1255.57 866.978 1253.68 866.637 1251.89 866.857C1241.02 871.711 1229.91 882.372 1225.61 893.624C1224.78 895.81 1223.47 899.279 1224.46 901.532C1224.99 902.747 1225.79 903.479 1227.03 903.958C1229.09 904.757 1231.52 904.729 1233.66 904.26C1244.43 900.073 1254.38 887.858 1258.97 877.436C1259.93 875.247 1260.97 872.313 1260.01 869.954C1259.55 868.836 1258.36 868 1257.26 867.595ZM1163.18 861.489C1151.24 864.562 1141.07 869.832 1134.58 880.818C1132.32 884.648 1130.21 891.021 1131.37 895.451C1131.76 896.933 1132.64 897.412 1133.77 898.313C1139.3 899.114 1144.29 897.304 1148.72 893.978C1156.78 887.931 1162.88 877.35 1164.27 867.405C1164.5 865.738 1164.94 863.684 1164.33 862.084L1163.18 861.489ZM541.054 843.512C540.304 843.354 539.61 843.177 538.841 843.291C527.127 846.387 517.291 852.556 511.067 863.203C508.43 867.714 507.16 872.224 506.79 877.414C508.103 880.174 508.887 882.318 511.923 883.542C518.124 883.76 522.078 881.538 526.532 877.379C533.881 870.518 541.533 857.74 541.896 847.468C541.949 845.987 541.838 844.795 541.054 843.512ZM714.386 845.44C713.672 845.137 713.416 844.999 712.624 845.099C699.567 848.773 691.919 854.195 685.19 866.228C683.572 869.123 681.105 873.923 682.087 877.272C682.128 877.414 682.178 877.551 682.23 877.688C683.192 878.175 684.103 878.517 685.144 878.794C693.923 878.331 700.887 875.032 706.797 868.439C711.978 862.661 715.201 855.311 714.793 847.433C714.758 846.76 714.596 846.078 714.386 845.44Z" fill="white"/>
</svg>
