<svg width="1664" height="1664" viewBox="0 0 1664 1664" fill="none" xmlns="http://www.w3.org/2000/svg">
<g clip-path="url(#clip0_585_1650)">
<path d="M350.973 929.938L301.408 843.199H400.213L350.973 929.938Z" fill="#006196"/>
<path d="M400.213 843.198H301.408L350.647 756.785L400.213 843.198Z" fill="#2BA8E0"/>
<path d="M364.346 733.311H463.15L400.216 843.202L350.65 756.789L364.346 733.311Z" fill="#006196"/>
<path d="M337.279 733.311L350.649 756.789L301.409 843.202L238.475 733.311H337.279Z" fill="#6ECFF5"/>
<path d="M1407.82 854.613C1398.37 854.613 1390.87 862.113 1390.87 871.57C1390.87 881.026 1398.37 888.526 1407.82 888.526C1417.28 888.526 1424.78 881.026 1424.78 871.57C1424.78 862.439 1417.28 854.613 1407.82 854.613ZM1407.82 885.265C1400.32 885.265 1394.13 879.07 1394.13 871.57C1394.13 864.07 1400.32 857.874 1407.82 857.874C1415.32 857.874 1421.52 864.07 1421.52 871.57C1421.19 879.07 1415.32 885.265 1407.82 885.265Z" fill="white"/>
<path d="M1415 868.305C1415 865.371 1412.71 863.414 1408.8 863.414H1401.63V879.718H1404.24V873.197H1406.52L1411.74 879.718H1415L1409.45 873.197C1413.04 872.871 1415 871.24 1415 868.305ZM1404.56 871.24V866.349H1408.8C1411.08 866.349 1412.06 867.327 1412.06 868.958C1412.06 870.588 1410.76 871.566 1408.8 871.566H1404.56V871.24Z" fill="white"/>
<path d="M550.865 856.567L524.452 777.98H491.844L531.952 887.872H566.192L606.3 777.98H576.952L550.865 856.567Z" fill="white"/>
<path d="M709.018 819.717C693.04 817.434 687.822 814.5 687.822 807.652C687.822 800.804 693.366 796.239 703.474 796.239C708.692 796.239 712.605 797.217 715.54 799.5C718.474 801.782 720.105 805.043 720.757 809.608H748.8C746.192 784.173 727.605 775.369 703.474 775.369C680.974 775.369 659.779 786.782 659.779 809.608C659.779 831.13 671.192 839.608 700.54 843.847C716.192 846.13 722.713 849.391 722.713 856.891C722.713 864.391 717.17 868.956 705.431 868.956C698.909 868.956 694.344 867.652 691.083 864.717C688.148 862.108 686.518 858.195 685.866 853.304H657.496C658.474 877.108 675.757 890.152 705.431 890.152C734.453 890.152 751.735 877.76 751.735 853.956C751.735 830.478 736.409 823.63 709.018 819.717Z" fill="white"/>
<path d="M798.692 852.976V799.498H821.844V777.976H798.692V753.193H768.365V777.976H754.344V799.498H768.365V855.585C768.365 878.411 780.757 890.15 803.909 890.15C812.061 890.15 818.257 888.846 822.496 887.215V863.737C818.909 865.041 815.648 865.693 811.083 865.693C803.257 866.019 798.692 861.78 798.692 852.976Z" fill="white"/>
<path d="M916.082 794.282C911.19 785.478 899.125 775.369 879.234 775.369C848.582 775.369 824.777 798.521 824.777 832.76C824.777 863.413 844.343 890.478 879.234 890.478C894.56 890.478 908.908 884.608 916.082 871.891V888.195H944.125V777.978H916.082V794.282ZM916.408 834.717C916.082 840.26 914.451 845.478 911.19 850.369C906.299 857.869 898.147 864.065 884.777 864.065C861.951 864.065 853.147 844.826 853.147 833.413V833.087C853.147 819.065 862.603 801.456 884.451 801.456C900.43 801.456 909.234 809.934 913.147 818.413C915.756 823.63 917.06 829.173 916.408 834.717Z" fill="white"/>
<path d="M647.389 777.98H617.062V888.198H647.389V777.98Z" fill="white"/>
<path d="M630.43 733.307C622.604 733.959 616.082 740.481 615.43 748.307C614.452 759.068 623.256 767.872 634.017 766.894C641.843 766.242 648.365 759.72 649.017 751.894C649.995 741.133 640.865 732.329 630.43 733.307Z" fill="white"/>
<path d="M1100.97 776.677H1118.58V796.569C1125.43 784.177 1134.89 775.373 1154.78 774.721V791.025C1132.61 792.003 1118.58 799.177 1118.58 826.242V886.895H1100.97V776.677Z" fill="white"/>
<path d="M1167.5 750.259C1167.5 744.063 1172.71 738.52 1179.24 738.52C1185.76 738.52 1190.97 743.737 1190.97 750.259C1190.97 756.78 1185.76 761.998 1179.24 761.998C1172.71 761.998 1167.5 756.454 1167.5 750.259ZM1170.43 776.672H1188.04V886.889H1170.43V776.672Z" fill="white"/>
<path d="M1213.8 776.681H1231.41V794.29C1236.63 783.855 1248.69 775.051 1266.95 775.051C1289.78 775.051 1305.76 787.442 1305.76 819.399V887.225H1288.15V818.094C1288.15 798.855 1280 790.051 1262.06 790.051C1245.76 790.051 1231.41 800.486 1231.41 820.051V886.899H1213.8V776.681Z" fill="white"/>
<path d="M1330.21 859.497V791.671H1314.24V776.997H1330.21V751.562H1347.82V776.671H1373.58V791.345H1347.82V857.541C1347.82 868.302 1352.71 873.519 1361.52 873.519C1367.06 873.519 1371.3 872.541 1374.89 871.236V885.91C1371.3 887.215 1367.06 888.193 1359.89 888.193C1339.67 888.519 1330.21 876.78 1330.21 859.497Z" fill="white"/>
<path d="M991.081 776.677V793.634C1001.19 781.895 1013.91 774.721 1029.89 774.721C1064.45 774.721 1086.62 798.851 1086.62 832.112C1086.62 865.047 1063.47 888.525 1032.49 888.525C1012.6 888.525 997.277 880.373 990.755 867.982V929.612H973.146V776.677H991.081ZM1030.21 873.851C1054.02 873.851 1069.02 855.916 1069.02 833.09C1069.02 807.655 1053.69 789.395 1030.21 789.395C1006.73 789.395 991.081 807.982 991.081 833.09C990.755 856.242 1006.41 873.851 1030.21 873.851Z" fill="white"/>
</g>
<defs>
<clipPath id="clip0_585_1650">
<rect width="1186.3" height="196.63" fill="white" transform="translate(238.475 733.312)"/>
</clipPath>
</defs>
</svg>
